<svg xmlns="http://www.w3.org/2000/svg" width="40" height="39" viewBox="0 0 40 39">
    <g fill="none" fill-rule="evenodd">
        <path fill="#8DE37F" d="M37.782 9.47a24.128 24.128 0 0 0-3.175-3.394 22.63 22.63 0 0 0-6.703-4.108 21.513 21.513 0 0 0-7.87-1.493c-5.808 0-11.112 2.313-15.16 6.129a24.146 24.146 0 0 0-2.589 2.865 24.936 24.936 0 0 0-2.023 3.097l5.707 5.058a17.146 17.146 0 0 1 1.915-3.193 16.393 16.393 0 0 1 2.687-2.777c2.643-2.157 5.934-3.441 9.508-3.441.25 0 .495.02.742.033 2.988.15 5.754 1.191 8.08 2.888.247.18.495.36.732.554L11.225 28.003c2.326 1.697 5.092 2.738 8.08 2.888l14.91-13.214 5.649-5.008a24.886 24.886 0 0 0-2.082-3.2"/>
        <path fill="#35A8D8" d="M32.241 24.706a16.414 16.414 0 0 1-2.687 2.777c-2.642 2.157-5.934 3.441-9.508 3.441-2.494 0-4.846-.636-6.94-1.747l-.092-.048a15.31 15.31 0 0 1-.847-.492l-.114-.072a15.68 15.68 0 0 1-.828-.562c-.247-.18-.495-.36-.732-.554L28.9 11.134c-2.326-1.696-5.092-2.738-8.08-2.888L5.91 21.46l-5.65 5.008a24.89 24.89 0 0 0 2.083 3.2A24.124 24.124 0 0 0 4.85 32.45c4.059 3.863 9.395 6.211 15.243 6.211 5.807 0 11.112-2.313 15.16-6.128a24.142 24.142 0 0 0 2.588-2.866 24.912 24.912 0 0 0 2.024-3.096l-5.708-5.059a17.173 17.173 0 0 1-1.915 3.193"/>
    </g>
</svg>
