<svg xmlns="http://www.w3.org/2000/svg" viewBox="0 0 16 15.428">
  <defs>
    <style>
      .cls-1 {
        fill-rule: evenodd;
      }
    </style>
  </defs>
  <g id="Group_26" data-name="Group 26" transform="translate(-0.614 -0.748)">
    <g id="Group-26" transform="translate(0.615 0.748)">
      <g id="Logo" transform="translate(0)">
        <path id="Fill-3" class="cls-1" d="M15.775,4.467a9.9,9.9,0,0,0-1.012-1.151c-.088-.086-.179-.169-.27-.252a9.109,9.109,0,0,0-2.708-1.7A8.516,8.516,0,0,0,8.6.748,8.791,8.791,0,0,0,2.479,3.282,9.909,9.909,0,0,0,1.434,4.467a10.34,10.34,0,0,0-.818,1.28L2.922,7.84A7.126,7.126,0,0,1,3.7,6.519,6.711,6.711,0,0,1,4.781,5.371,5.965,5.965,0,0,1,8.623,3.948c.1,0,.2.009.3.014a5.944,5.944,0,0,1,3.264,1.194c.1.075.2.149.3.229L5.046,12.132A5.943,5.943,0,0,0,8.31,13.326l6.024-5.464,2.283-2.071a10.32,10.32,0,0,0-.841-1.323" transform="translate(-0.616 -0.748)"/>
        <path id="Fill-5" class="cls-1" d="M13.535,85.268a6.719,6.719,0,0,1-1.086,1.149A5.966,5.966,0,0,1,8.608,87.84a5.854,5.854,0,0,1-2.8-.723l-.037-.02q-.174-.1-.342-.2l-.046-.03c-.114-.074-.225-.151-.334-.232h0c-.1-.075-.2-.149-.3-.229l7.437-6.747a5.943,5.943,0,0,0-3.264-1.194L2.9,83.926.615,86a10.321,10.321,0,0,0,.841,1.323,9.9,9.9,0,0,0,1.012,1.151A8.8,8.8,0,0,0,8.626,91.04a8.791,8.791,0,0,0,6.125-2.534A9.906,9.906,0,0,0,15.8,87.32a10.328,10.328,0,0,0,.818-1.28l-2.306-2.092a7.138,7.138,0,0,1-.774,1.32" transform="translate(-0.615 -75.611)"/>
      </g>
    </g>
  </g>
</svg>
