<svg width="18px" height="18px" viewBox="0 0 18 18" version="1.1" xmlns="http://www.w3.org/2000/svg" xmlns:xlink="http://www.w3.org/1999/xlink">
    <g id="Zam" stroke="none" stroke-width="1" fill="none" fill-rule="evenodd">
        <g id="Team-pop-up" transform="translate(-1347.000000, -55.000000)" fill="#FFFFFF">
            <path d="M1357.47056,62.4705627 L1366.47056,62.4705627 C1367.29899,62.4705627 1367.97056,63.1421356 1367.97056,63.9705627 C1367.97056,64.7989899 1367.29899,65.4705627 1366.47056,65.4705627 L1357.47056,65.4705627 L1357.47056,74.4705627 C1357.47056,75.2989899 1356.79899,75.9705627 1355.97056,75.9705627 C1355.14214,75.9705627 1354.47056,75.2989899 1354.47056,74.4705627 L1354.47056,65.4705627 L1345.47056,65.4705627 C1344.64214,65.4705627 1343.97056,64.7989899 1343.97056,63.9705627 C1343.97056,63.1421356 1344.64214,62.4705627 1345.47056,62.4705627 L1354.47056,62.4705627 L1354.47056,53.4705627 C1354.47056,52.6421356 1355.14214,51.9705627 1355.97056,51.9705627 C1356.79899,51.9705627 1357.47056,52.6421356 1357.47056,53.4705627 L1357.47056,62.4705627 Z" id="Combined-Shape" transform="translate(1355.970563, 63.970563) rotate(-315.000000) translate(-1355.970563, -63.970563) "></path>
        </g>
    </g>
</svg>