<svg width="36px" height="36px" viewBox="0 0 36 36" version="1.1" xmlns="http://www.w3.org/2000/svg" xmlns:xlink="http://www.w3.org/1999/xlink">
    <defs>
        <polygon id="path-1" points="0 0.0594617414 35.9406332 0.0594617414 35.9406332 35.9943008 0 35.9943008"></polygon>
    </defs>
    <g id="Zam" stroke="none" stroke-width="1" fill="none" fill-rule="evenodd">
        <g id="Team" transform="translate(-326.000000, -672.000000)">
            <g id="Group" transform="translate(326.000000, 672.000000)">
                <g id="Group-3">
                    <mask id="mask-2" fill="white">
                        <use xlink:href="#path-1"></use>
                    </mask>
                    <g id="Clip-2"></g>
                    <path d="M35.9406332,18.0297309 C35.9406332,27.9543325 27.8947757,36 17.9703641,36 C8.04538259,36 0,27.9543325 0,18.0297309 C0,8.10484433 8.04538259,0.0594617414 17.9703641,0.0594617414 C27.8947757,0.0594617414 35.9406332,8.10484433 35.9406332,18.0297309" id="Fill-1" fill="#2B4B82" mask="url(#mask-2)"></path>
                </g>
                <path d="M15.4976474,23.3044067 C15.4976474,21.6363894 15.4910277,19.9684663 15.5038778,18.3007317 C15.5062141,18.01962 15.4240514,17.9316313 15.133464,17.9431245 C14.5963884,17.9642267 14.0578526,17.9409577 13.5200956,17.9529219 C13.3023254,17.9582917 13.2221096,17.8998838 13.2245434,17.676709 C13.2353491,16.6361059 13.2342783,15.5948433 13.2256142,14.5539576 C13.2236672,14.3537691 13.2859707,14.2879189 13.4951742,14.2924408 C14.0450025,14.3046876 14.595999,14.2775562 15.1448539,14.3038398 C15.4629911,14.3189128 15.5287992,14.2095392 15.5221794,13.9239056 C15.5030016,13.131913 15.5030016,12.3386957 15.5209139,11.5466089 C15.5428174,10.5792041 15.8111119,9.67595385 16.406597,8.88942521 C17.1600799,7.89319328 18.2314079,7.43779988 19.4673535,7.3844791 C20.7366898,7.32993364 22.0092387,7.36017387 23.2801326,7.34698498 C23.4573081,7.34500665 23.5101688,7.40633497 23.50939,7.57298597 C23.5037437,8.62555328 23.5025755,9.67849742 23.5101688,10.7310647 C23.5119211,10.9183469 23.4487414,10.9756244 23.2588131,10.972704 C22.6475574,10.9634717 22.0362044,10.9679937 21.4253381,10.9695952 C20.6117908,10.9720445 20.12485,11.3770375 20.073839,12.1563123 C20.0329524,12.7810887 20.0628386,13.4096333 20.0478468,14.0361996 C20.0422979,14.2594686 20.1793656,14.244113 20.3320091,14.2439245 C21.2608179,14.2426057 22.1900161,14.2528741 23.1188249,14.2375185 C23.3915001,14.2329024 23.4814507,14.2936655 23.450299,14.5713857 C23.3333826,15.6172644 23.2329182,16.6651214 23.1403391,17.7135436 C23.1192143,17.9500957 23.0076521,17.9952206 22.7880323,17.9916407 C22.0552848,17.9807128 21.3217585,17.9841042 20.5883296,17.9886261 C20.0616704,17.9916407 20.1127787,17.9140147 20.1127787,18.433751 C20.110345,21.6984714 20.1057696,24.9632859 20.1202746,28.227912 C20.1217348,28.5727072 20.0307133,28.6582465 19.6782118,28.6522173 C18.4194866,28.6297962 17.1600799,28.6286657 15.9013546,28.6527826 C15.5466141,28.6595654 15.4882045,28.5431264 15.4910277,28.2369558 C15.5044618,26.5927728 15.4976474,24.9486839 15.4976474,23.3044067" id="Fill-4" fill="#FFFFFE"></path>
            </g>
        </g>
    </g>
</svg>