<svg width="35px" height="35px" viewBox="0 0 35 35" version="1.1" xmlns="http://www.w3.org/2000/svg" xmlns:xlink="http://www.w3.org/1999/xlink">
    <g id="Zam" stroke="none" stroke-width="1" fill="none" fill-rule="evenodd">
        <g id="Team" transform="translate(-368.000000, -672.000000)">
            <g id="Group-9" transform="translate(368.000000, 672.000000)">
                <path d="M35.0194387,17.5097656 C35.0194387,27.1800408 27.1799483,35.0195313 17.5096731,35.0195313 C7.83902768,35.0195313 0,27.1800408 0,17.5097656 C0,7.83921278 7.83902768,0 17.5096731,0 C27.1799483,0 35.0194387,7.83921278 35.0194387,17.5097656" id="Fill-1" fill="#0172B1"></path>
                <path d="M18.479242,16.1589239 C18.5655937,16.0660935 18.5991903,16.0376799 18.6233466,16.0026024 C19.8000614,14.2854724 21.4809108,13.7805974 23.4420098,14.0820415 C25.7082549,14.4307801 27.1585556,16.0172257 27.5287663,18.4446051 C27.6166914,19.0201903 27.6602837,19.5980893 27.6598209,20.179968 C27.6585252,22.5967964 27.6547305,25.0134397 27.6650039,27.4301755 C27.6665773,27.702373 27.5995691,27.7822459 27.3206153,27.7788215 C26.0545871,27.7636428 24.787911,27.7638279 23.5216051,27.7788215 C23.2445949,27.7819683 23.1736995,27.7029283 23.1750878,27.4303606 C23.1854537,25.1763324 23.1818442,22.9223968 23.1795303,20.6685537 C23.1786974,20.1562745 23.1435273,19.6472348 22.9995154,19.1512449 C22.5379551,17.5600791 20.7277171,17.0015236 19.4386432,18.0595859 C18.7421842,18.6309137 18.4698942,19.3866064 18.4751697,20.2759452 C18.4864611,22.4021581 18.4785016,24.5282785 18.4785016,26.6544914 C18.4785016,26.9334452 18.4629527,27.213232 18.4832218,27.4905198 C18.5009919,27.7315271 18.4025158,27.7779885 18.184184,27.7765077 C16.8944623,27.7678077 15.6049257,27.7668822 14.3154816,27.777063 C14.0814159,27.7788215 13.997378,27.7313419 14.0000621,27.4740455 C14.0189428,25.5575569 14.0266247,23.6402354 14.0273651,21.7235618 C14.0277353,19.3648565 14.0231077,17.0064289 14.0066333,14.6480012 C14.0048748,14.3897792 14.0589256,14.3134233 14.3256624,14.316385 C15.6153842,14.3308232 16.9049208,14.3286945 18.1944574,14.3177732 C18.4266721,14.3156445 18.491459,14.3856144 18.4840548,14.6114429 C18.4680431,15.0974371 18.479242,15.5842642 18.479242,16.1589239" id="Fill-3" fill="#FEFEFE"></path>
                <path d="M11.4849193,20.7324383 C11.4849193,22.8577257 11.4803842,24.9831982 11.4903799,27.1086707 C11.491398,27.3725384 11.4382727,27.466572 11.1505264,27.4627773 C9.87320674,27.4457476 8.59551687,27.4497274 7.31810465,27.4603709 C7.08089211,27.4624071 7.00092658,27.4030808 7.00120424,27.1538364 C7.00740527,22.867999 7.00629464,18.5824393 7.00000106,14.2966945 C6.9997234,14.0734574 7.05414438,13.9988599 7.28839523,14.0009886 C8.58931584,14.012095 9.89023644,14.0134833 11.1907868,14.0000631 C11.4503971,13.997194 11.4907501,14.0919679 11.4898246,14.3213135 C11.481865,16.4585402 11.4852895,18.5953967 11.4849193,20.7324383" id="Fill-5" fill="#FEFEFE"></path>
                <path d="M9.55062659,8.00000265 C11.2644247,8.00185371 12.3778336,9.359324 11.9716198,10.9514154 C11.6647151,12.1535822 10.4213623,12.8455987 8.98624029,12.6126436 C7.46199005,12.3652502 6.61226381,10.8776509 7.17396608,9.44002995 C7.52455567,8.54217631 8.42176144,7.99861436 9.55062659,8.00000265" id="Fill-7" fill="#FEFEFE"></path>
            </g>
        </g>
    </g>
</svg>