<svg width="30px" height="35px" viewBox="0 0 30 35" version="1.1" xmlns="http://www.w3.org/2000/svg" xmlns:xlink="http://www.w3.org/1999/xlink">
    <g id="Zam" stroke="none" stroke-width="1" fill="none" fill-rule="evenodd">
        <g id="zam_website_homepage-" transform="translate(-209.000000, -939.000000)" fill="#ECECEC" fill-rule="nonzero">
            <g id="Group-63" transform="translate(150.000000, 939.000000)">
                <g id="android-logo" transform="translate(59.000000, 0.000000)">
                    <path d="M2.18168972,11.39333 L2.09218379,11.39333 C0.94479249,11.39333 0.0092687747,12.3318281 0.0092687747,13.4762451 L0.0092687747,22.5449111 C0.0092687747,23.6938241 0.94479249,24.6292787 2.09218379,24.6292787 L2.18321146,24.6292787 C3.33060277,24.6292787 4.26612648,23.6907806 4.26612648,22.5449111 L4.26612648,13.4761759 C4.26460474,12.3318281 3.32762846,11.39333 2.18168972,11.39333 Z" id="Shape"></path>
                    <path d="M5.26279644,26.0452569 C5.26279644,27.0986462 6.12368577,27.9565613 7.1770751,27.9565613 L9.22270751,27.9565613 L9.22270751,32.8549704 C9.22270751,34.005336 10.1612055,34.9408597 11.3056225,34.9408597 L11.3951285,34.9408597 C12.5440415,34.9408597 13.4810178,34.0038834 13.4810178,32.8549704 L13.4810178,27.9565613 L16.3398123,27.9565613 L16.3398123,32.8549704 C16.3398123,34.005336 17.2812846,34.9408597 18.4257016,34.9408597 L18.5137549,34.9408597 C19.6625988,34.9408597 20.5981225,34.0038834 20.5981225,32.8549704 L20.5981225,27.9565613 L22.6452075,27.9565613 C23.6970751,27.9565613 24.5580336,27.0986462 24.5580336,26.0452569 L24.5580336,11.7260375 L5.26279644,11.7260375 L5.26279644,26.0452569 Z" id="Shape"></path>
                    <path d="M19.7162747,3.04230237 L21.3411462,0.534199605 C21.4455929,0.376007905 21.3993182,0.159713439 21.2396739,0.0567193676 C21.0815514,-0.0477272727 20.8651877,-0.00442687747 20.7621937,0.1581917 L19.0776976,2.75289526 C17.8139625,2.2351581 16.4024802,1.94422925 14.9118676,1.94422925 C13.4198024,1.94422925 12.0112945,2.2351581 10.744585,2.75289526 L9.06306324,0.1581917 C8.96013834,-0.00442687747 8.74225296,-0.0477272727 8.5826087,0.0567193676 C8.42296443,0.159644269 8.37668972,0.376007905 8.48113636,0.534199605 L10.1074605,3.04230237 C7.17555336,4.47916996 5.19860672,7.18724308 5.19860672,10.293666 C5.19860672,10.4846443 5.21057312,10.6726482 5.2269664,10.8591304 L24.5982213,10.8591304 C24.6146146,10.6726482 24.6250593,10.4846443 24.6250593,10.293666 C24.6251285,7.18724308 22.6466601,4.47916996 19.7162747,3.04230237 Z M10.4208004,7.53336957 C9.90603755,7.53336957 9.48825099,7.11855731 9.48825099,6.6023419 C9.48825099,6.08612648 9.90603755,5.6727668 10.4208004,5.6727668 C10.9385375,5.6727668 11.3533498,6.08605731 11.3533498,6.6023419 C11.3533498,7.11862648 10.9355632,7.53336957 10.4208004,7.53336957 Z M19.4014822,7.53336957 C18.8867194,7.53336957 18.4689328,7.11855731 18.4689328,6.6023419 C18.4689328,6.08612648 18.8867194,5.6727668 19.4014822,5.6727668 C19.9176976,5.6727668 20.3325099,6.08605731 20.3325099,6.6023419 C20.3325099,7.11855731 19.9176976,7.53336957 19.4014822,7.53336957 Z" id="Shape"></path>
                    <path d="M27.7285771,11.39333 L27.6420455,11.39333 C26.4946542,11.39333 25.5561561,12.3318281 25.5561561,13.4762451 L25.5561561,22.5449111 C25.5561561,23.6938241 26.4961759,24.6292787 27.6420455,24.6292787 L27.7300988,24.6292787 C28.8789427,24.6292787 29.8130138,23.6907806 29.8130138,22.5449111 L29.8130138,13.4761759 C29.8130138,12.3318281 28.8759684,11.39333 27.7285771,11.39333 Z" id="Shape"></path>
                </g>
            </g>
        </g>
    </g>
</svg>