<svg width="29px" height="35px" viewBox="0 0 29 35" version="1.1" xmlns="http://www.w3.org/2000/svg" xmlns:xlink="http://www.w3.org/1999/xlink">
    <g id="Zam" stroke="none" stroke-width="1" fill-rule="evenodd">
        <g id="zam_website_homepage-" transform="translate(-150.000000, -939.000000)" fill-rule="nonzero">
            <g id="Group-63" transform="translate(150.000000, 939.000000)">
                <g id="apple">
                    <path d="M1.53029297,12.866123 C-1.42864258,18.0008008 0.452402344,25.7929492 3.72449219,30.5176074 C5.35780273,32.8796973 7.01141602,35 9.27629883,35 C9.31895508,35 9.36181641,34.9991797 9.40563477,34.9974707 C10.4697168,34.9550195 11.2386914,34.627373 11.9822363,34.3108008 C12.817041,33.9550586 13.6802832,33.5872852 15.0343457,33.5872852 C16.3224414,33.5872852 17.1445313,33.9431641 17.9396875,34.2871484 C18.7232227,34.6261426 19.5302734,34.9768262 20.7227344,34.9544727 C23.274043,34.9069629 24.8404297,32.6189746 26.2224512,30.6005957 C27.6644238,28.4931445 28.3879395,26.4469434 28.6320508,25.6650488 L28.6418945,25.6339453 C28.6882422,25.4949707 28.6226172,25.3432813 28.4895215,25.2820996 C28.4857617,25.2803906 28.4722949,25.2747852 28.4683984,25.2731445 C28.0192773,25.0893945 24.0783594,23.3411719 24.0369336,18.5761133 C23.9983789,14.7047852 26.9932031,12.6546875 27.593877,12.2830859 L27.6219043,12.2656543 C27.6870508,12.22375 27.7324414,12.1573047 27.7476855,12.0813574 C27.7632031,12.0054785 27.747002,11.9265234 27.7035254,11.8627441 C25.6363379,8.83756836 22.4678809,8.38167969 21.1923633,8.32685547 C21.0072461,8.30839844 20.8161133,8.29910156 20.6242285,8.29910156 C19.1261328,8.29910156 17.690791,8.86498047 16.5377051,9.31963867 C15.7417969,9.63347656 15.054375,9.90452148 14.5800977,9.90452148 C14.0473047,9.90452148 13.355918,9.63012695 12.555293,9.3125293 C11.4846484,8.88760742 10.2711328,8.40608398 8.98645508,8.40608398 C8.95583008,8.40608398 8.92561523,8.40642578 8.89594727,8.40697266 C5.90884766,8.45085937 3.08635742,10.1597754 1.53029297,12.866123 Z" id="Shape"></path>
                    <path d="M21.1948926,0.000205078125 C19.3858984,0.0738964844 17.2161719,1.18733398 15.9190527,2.70648438 C14.8168262,3.98336914 13.7400977,6.11228516 14.0238574,8.2581543 C14.0416309,8.39241211 14.1508691,8.49604492 14.2859473,8.50650391 C14.4079004,8.51600586 14.532793,8.52085937 14.6567285,8.52099609 C16.4255273,8.52099609 18.3335742,7.5425 19.6365039,5.96688477 C21.0079297,4.3031543 21.7013672,2.16808594 21.4916406,0.255595703 C21.4753711,0.105683594 21.3433008,-0.00560546875 21.1948926,0.000205078125 Z" id="Shape"></path>
                </g>
            </g>
        </g>
    </g>
</svg>