<svg xmlns="http://www.w3.org/2000/svg" viewBox="0 0 155 79.999">
  <defs>
    <style>
      .cls-1 {
        fill: #fff;
      }

      .cls-2 {
        fill: #79d36d;
      }

      .cls-3 {
        fill: #4b4d53;
      }
    </style>
  </defs>
  <g id="android" transform="translate(-410 -2172)">
    <rect id="Rectangle_14" data-name="Rectangle 14" class="cls-1" width="155" height="79.999" rx="10" transform="translate(410 2172)"/>
    <g id="Group_10" data-name="Group 10" transform="translate(444.882 2195.065)">
      <g id="Android_Pay_logo">
        <g id="g3337">
          <path id="path3352" class="cls-2" d="M1018.163,944.52h-.1v13.871a2.11,2.11,0,0,0,2.1,2.1h1.814v4.834a2.1,2.1,0,0,0,4.208,0V960.5h2.835v4.834a2.1,2.1,0,0,0,4.208,0V960.5H1035a2.11,2.11,0,0,0,2.1-2.1V944.52Zm4.191-5a.894.894,0,1,0,.894-.894A.894.894,0,0,0,1022.354,939.523Zm8.661,0a.894.894,0,1,0,.894-.894A.894.894,0,0,0,1031.016,939.523Zm-12.933,4.261c0-.1-.006-.192-.006-.289a7.618,7.618,0,0,1,.234-1.877,8.643,8.643,0,0,1,4.507-5.456l-1.46-2.694a.342.342,0,1,1,.6-.326l1.477,2.726a10.6,10.6,0,0,1,8.293-.012l1.471-2.714a.342.342,0,1,1,.6.326l-1.453,2.679a8.6,8.6,0,0,1,4.6,5.771,7.479,7.479,0,0,1,.13.851v1.014Zm23.968,2.472a2.1,2.1,0,0,0-4.208,0v8.838a2.1,2.1,0,0,0,4.208,0Zm-24.745,0v8.838a2.1,2.1,0,0,1-4.208,0v-8.838a2.1,2.1,0,0,1,4.208,0" transform="translate(-1013.097 -932.963)"/>
          <path id="path3354" class="cls-3" d="M1034.639,1059.013h-2.715l-5.9,14.124h1.205l-5.88-14.108h-2.8l6.667,15.474-.53,1.205a3.028,3.028,0,0,1-2.8,1.912h-.884v2.427h.852a5.534,5.534,0,0,0,5.3-3.728l7.471-17.306ZM1017.11,1075.1V1059.03h-2.41v1.832a7.443,7.443,0,0,0-5.334-2.154,8.357,8.357,0,0,0,0,16.711,7.512,7.512,0,0,0,5.334-2.153v1.832Zm-7.567-2.024a6.018,6.018,0,0,1,0-12.035,5.784,5.784,0,0,1,5,2.619,1.028,1.028,0,0,1,.161.531v5.7a.971.971,0,0,1-.176.547,5.986,5.986,0,0,1-4.981,2.635Zm-23.554,6.845v-6.652a7.457,7.457,0,0,0,5.334,2.169,8.365,8.365,0,0,0,0-16.727,7.51,7.51,0,0,0-5.334,2.154v-1.832h-2.41v20.888h2.41Zm5.158-6.829a5.86,5.86,0,0,1-5-2.619.894.894,0,0,1-.161-.531v-5.768a.944.944,0,0,1,.177-.53,6.005,6.005,0,1,1,4.981,9.448h0" transform="translate(-945.026 -1050.863)"/>
        </g>
      </g>
    </g>
  </g>
</svg>
