<svg xmlns="http://www.w3.org/2000/svg" xmlns:xlink="http://www.w3.org/1999/xlink" viewBox="0 0 215 140">
  <defs>
    <style>
      .cls-1 {
        fill: #fff;
      }

      .cls-2 {
        fill: none;
      }

      .cls-3 {
        fill: #231f20;
      }

      .cls-4 {
        fill: #ff5f00;
      }

      .cls-5 {
        fill: #eb001b;
      }

      .cls-6 {
        fill: #f79e1b;
      }

      .cls-7 {
        filter: url(#Rectangle_15);
      }
    </style>
    <filter id="Rectangle_15" x="0" y="0" width="215" height="140" filterUnits="userSpaceOnUse">
      <feOffset dy="3" input="SourceAlpha"/>
      <feGaussianBlur stdDeviation="10" result="blur"/>
      <feFlood flood-color="#47494d" flood-opacity="0.161"/>
      <feComposite operator="in" in2="blur"/>
      <feComposite in="SourceGraphic"/>
    </filter>
  </defs>
  <g id="Group_126" data-name="Group 126" transform="translate(-1486 -4785)">
    <g id="Group_18" data-name="Group 18" transform="translate(592 -570)">
      <g class="cls-7" transform="matrix(1, 0, 0, 1, 894, 5355)">
        <rect id="Rectangle_15-2" data-name="Rectangle 15" class="cls-1" width="155" height="80" rx="10" transform="translate(30 27)"/>
      </g>
    </g>
    <g id="mc_vrt_pos" transform="translate(1552.733 4818.557)">
      <g id="Layer_1" data-name="Layer 1">
        <rect id="Rectangle_18" data-name="Rectangle 18" class="cls-2" width="79.067" height="64.853"/>
        <path id="Path_13" data-name="Path 13" class="cls-3" d="M29.355,99.077V95.846A1.917,1.917,0,0,0,27.33,93.8a1.993,1.993,0,0,0-1.81.916,1.89,1.89,0,0,0-1.7-.916,1.7,1.7,0,0,0-1.508.765v-.636H21.19v5.149h1.131V96.244a1.206,1.206,0,0,1,1.26-1.368c.743,0,1.12.485,1.12,1.357V99.1h1.131V96.244a1.212,1.212,0,0,1,1.26-1.368c.765,0,1.131.485,1.131,1.357V99.1ZM46.09,93.928H44.247V92.366H43.116v1.562H42.093v1.023h1.045v2.37c0,1.2.463,1.907,1.788,1.907a2.628,2.628,0,0,0,1.4-.4L46,97.871a2.068,2.068,0,0,1-.991.291c-.539,0-.743-.345-.743-.862V94.952H46.1Zm9.555-.129a1.519,1.519,0,0,0-1.357.754v-.625h-1.11v5.149H54.3V96.19c0-.851.366-1.325,1.077-1.325a1.826,1.826,0,0,1,.7.129l.345-1.077a2.4,2.4,0,0,0-.8-.14ZM41.2,94.338a3.851,3.851,0,0,0-2.1-.539c-1.3,0-2.154.625-2.154,1.648,0,.84.625,1.357,1.777,1.519l.539.075c.614.086.9.248.9.539,0,.4-.409.625-1.174.625a2.742,2.742,0,0,1-1.713-.539l-.539.873a3.716,3.716,0,0,0,2.23.668c1.487,0,2.348-.7,2.348-1.68s-.679-1.379-1.8-1.54l-.539-.075c-.485-.065-.873-.162-.873-.506s.366-.6.98-.6a3.318,3.318,0,0,1,1.616.442ZM71.2,93.8a1.519,1.519,0,0,0-1.357.754v-.625h-1.11v5.149h1.12V96.19c0-.851.366-1.325,1.077-1.325a1.826,1.826,0,0,1,.7.129l.345-1.077a2.4,2.4,0,0,0-.8-.14ZM56.77,96.492a2.6,2.6,0,0,0,2.747,2.693,2.693,2.693,0,0,0,1.853-.614l-.539-.9a2.262,2.262,0,0,1-1.346.463,1.653,1.653,0,0,1,0-3.3,2.262,2.262,0,0,1,1.347.463l.539-.9a2.693,2.693,0,0,0-1.853-.614A2.6,2.6,0,0,0,56.77,96.47Zm10.492,0V93.928h-1.12v.625a1.955,1.955,0,0,0-1.616-.754,2.693,2.693,0,0,0,0,5.386,1.955,1.955,0,0,0,1.616-.754v.625h1.12Zm-4.169,0a1.546,1.546,0,1,1,.42,1.166,1.557,1.557,0,0,1-.42-1.166ZM49.574,93.8a2.693,2.693,0,0,0,.075,5.386,3.129,3.129,0,0,0,2.138-.7l-.539-.829a2.451,2.451,0,0,1-1.5.539,1.427,1.427,0,0,1-1.54-1.26h3.824V96.5A2.448,2.448,0,0,0,49.59,93.81Zm0,1a1.276,1.276,0,0,1,1.3,1.25H48.185a1.325,1.325,0,0,1,1.368-1.25Zm28.066,1.7V91.86H76.564v2.693a1.955,1.955,0,0,0-1.616-.754,2.693,2.693,0,0,0,0,5.386,1.955,1.955,0,0,0,1.616-.754v.625h1.077Zm1.869,1.826a.518.518,0,0,1,.485.307.5.5,0,0,1,0,.4.515.515,0,0,1-.28.269.506.506,0,0,1-.2.043.539.539,0,0,1-.485-.312.506.506,0,0,1,0-.4.523.523,0,0,1,.5-.307Zm0,.91a.383.383,0,0,0,.156-.032.4.4,0,0,0,.124-.086.388.388,0,0,0-.124-.625.388.388,0,0,0-.156-.032.4.4,0,0,0-.156.032.393.393,0,0,0-.129.086.391.391,0,0,0,.3.657Zm.032-.641a.215.215,0,0,1,.14.043.135.135,0,0,1,.048.113.129.129,0,0,1-.038.1.188.188,0,0,1-.113.048l.156.178h-.124l-.145-.178h-.048v.178h-.1V98.6Zm-.118.092v.129h.118a.113.113,0,0,0,.065,0,308.024,308.024,0,0,1,0-.1.113.113,0,0,0-.065,0ZM73.5,96.5a1.546,1.546,0,1,1,.42,1.166A1.557,1.557,0,0,1,73.5,96.5Zm-37.826,0V93.928h-1.12v.625a1.955,1.955,0,0,0-1.616-.754,2.693,2.693,0,1,0,0,5.386,1.955,1.955,0,0,0,1.616-.754v.625h1.12Zm-4.169,0a.66.66,0,1,1-.011,0Z" transform="translate(-9.777 -42.384)"/>
        <g id="_Group_" data-name="&lt;Group&gt;" transform="translate(8.163 8.16)">
          <rect id="Rectangle_19" data-name="Rectangle 19" class="cls-4" width="16.966" height="30.49" transform="translate(22.888 4.147)"/>
          <path id="_Path_" data-name="&lt;Path&gt;" class="cls-5" d="M39.12,34.547A19.357,19.357,0,0,1,46.526,19.3a19.39,19.39,0,1,0,0,30.49A19.357,19.357,0,0,1,39.12,34.547Z" transform="translate(-15.155 -15.152)"/>
          <path id="Path_14" data-name="Path 14" class="cls-6" d="M104.773,34.545A19.39,19.39,0,0,1,73.4,49.788a19.39,19.39,0,0,0,0-30.49A19.39,19.39,0,0,1,104.773,34.54Z" transform="translate(-42.029 -15.151)"/>
          <path id="Path_15" data-name="Path 15" class="cls-6" d="M127.878,72.814v-.625h.253V72.06h-.641v.129h.275v.625Zm1.244,0V72.06h-.194l-.226.539-.226-.539H128.3v.754h.14v-.566l.21.49h.145l.21-.49v.571Z" transform="translate(-66.986 -41.409)"/>
        </g>
      </g>
    </g>
  </g>
</svg>
