<svg xmlns="http://www.w3.org/2000/svg" xmlns:xlink="http://www.w3.org/1999/xlink" viewBox="0 0 178 102">
  <defs>
    <style>
      .cls-1 {
        fill: #fff;
      }

      .cls-2 {
        fill: #e21836;
      }

      .cls-3 {
        fill: #00447c;
      }

      .cls-4 {
        fill: #007b84;
      }

      .cls-5 {
        fill: #fefefe;
      }

      .cls-6 {
        filter: url(#Rectangle_15);
      }
    </style>
    <filter id="Rectangle_15" x="0" y="0" width="178" height="102" filterUnits="userSpaceOnUse">
      <feOffset dy="3" input="SourceAlpha"/>
      <feGaussianBlur stdDeviation="5" result="blur"/>
      <feFlood flood-color="#47494d" flood-opacity="0.161"/>
      <feComposite operator="in" in2="blur"/>
      <feComposite in="SourceGraphic"/>
    </filter>
  </defs>
  <g id="Group_409" data-name="Group 409" transform="translate(-1501 -4915)">
    <g class="cls-6" transform="matrix(1, 0, 0, 1, 1501, 4915)">
      <rect id="Rectangle_15-2" data-name="Rectangle 15" class="cls-1" width="148" height="72" rx="10" transform="translate(15 12)"/>
    </g>
    <g id="UnionPay_logo" transform="translate(1559.246 4944.125)">
      <path id="Path_23" data-name="Path 23" class="cls-2" d="M11.9,0H27.06A2.955,2.955,0,0,1,30,3.85L22.94,34.158A5.153,5.153,0,0,1,18.2,38H3.043A2.954,2.954,0,0,1,.1,34.158L7.166,3.85A5.139,5.139,0,0,1,11.9,0" transform="translate(0 -0.001)"/>
      <path id="Path_24" data-name="Path 24" class="cls-3" d="M70.372,0H87.809c2.116,0,1.162,1.725.664,3.849L81.415,34.158C80.92,36.275,81.074,38,78.953,38H61.516a2.946,2.946,0,0,1-2.935-3.843L65.639,3.85A5.15,5.15,0,0,1,70.372,0" transform="translate(-44.574 -0.001)"/>
      <path id="Path_25" data-name="Path 25" class="cls-4" d="M140.809,0h15.163A2.951,2.951,0,0,1,158.91,3.85l-7.058,30.309A5.155,5.155,0,0,1,147.114,38H131.958a2.95,2.95,0,0,1-2.939-3.843L136.078,3.85A5.138,5.138,0,0,1,140.809,0" transform="translate(-98.265 -0.001)"/>
      <path id="Path_26" data-name="Path 26" class="cls-5" d="M37.741,40.685a16.3,16.3,0,0,1-2.167-.035c-.057.269-1.109,5.122-1.112,5.127a3.554,3.554,0,0,1-.951,2.134,1.7,1.7,0,0,1-1.119.39,1.034,1.034,0,0,1-1.162-.995l-.013-.224s.211-1.315.211-1.323,1.1-4.423,1.3-5.008a.426.426,0,0,0,.016-.067,16.23,16.23,0,0,1-2.557-.035c-.014.048-.068.322-.068.322l-1.128,4.985-.1.423-.187,1.383a2.035,2.035,0,0,0,.241,1.028c.514.9,1.979,1.032,2.808,1.032a5.45,5.45,0,0,0,2.747-.641,4.07,4.07,0,0,0,1.757-2.745l.127-.495s1.138-4.594,1.331-5.192A.209.209,0,0,1,37.741,40.685Zm3.871,3.706a3,3,0,0,0-1.226.287c-.163.084-.318.181-.481.277l.147-.531-.081-.089c-.955.193-1.168.219-2.05.343l-.074.049a26.084,26.084,0,0,1-.573,3.156c-.145.615-.295,1.236-.445,1.849l.041.078c.9-.048,1.178-.048,1.963-.035l.064-.069c.1-.511.113-.631.334-1.666.1-.491.32-1.569.427-1.953a1.464,1.464,0,0,1,.575-.18c.44,0,.387.384.37.537-.019.257-.179,1.1-.344,1.816l-.11.465c-.077.343-.16.677-.237,1.017l.033.068c.891-.048,1.162-.048,1.923-.035l.089-.069c.137-.8.178-1.012.422-2.174L42.5,47c.238-1.045.358-1.575.178-2.007A1.037,1.037,0,0,0,41.612,44.391Zm4.324,1.094c-.473.091-.775.152-1.076.191s-.588.091-1.045.154l-.036.033-.033.026c-.048.341-.081.635-.144.982s-.136.765-.27,1.35a5.3,5.3,0,0,1-.217.761,6.58,6.58,0,0,0-.238.751l.027.041.023.037c.428-.02.707-.035.995-.037s.585,0,1.045,0l.04-.033.043-.036c.067-.4.077-.5.117-.7s.11-.5.28-1.263c.081-.361.17-.72.254-1.088s.178-.728.264-1.088l-.013-.044Zm.01-1.475a1.735,1.735,0,0,0-1.693.177c-.507.344-.564.832-.136,1.089A1.73,1.73,0,0,0,45.8,45.1C46.307,44.744,46.37,44.261,45.946,44.009Zm2.6,5.88a3.233,3.233,0,0,0,2.434-.952,4.312,4.312,0,0,0,.836-1.79,2.277,2.277,0,0,0-.2-2.053,2.24,2.24,0,0,0-1.826-.671,3.353,3.353,0,0,0-2.294.794A3.76,3.76,0,0,0,46.477,47.2c-.164.718-.354,2.01.835,2.491A3.48,3.48,0,0,0,48.547,49.89Zm-.068-2.638c.2-.888.438-1.633,1.042-1.633.474,0,.508.554.3,1.445a3.982,3.982,0,0,1-.445,1.246.734.734,0,0,1-.57.371c-.064,0-.442,0-.448-.561A3.823,3.823,0,0,1,48.479,47.252Zm5.513,2.524.068-.069c.1-.511.112-.631.326-1.666.107-.491.328-1.569.432-1.953a1.444,1.444,0,0,1,.578-.181c.437,0,.384.384.367.537a17.456,17.456,0,0,1-.344,1.816l-.1.465c-.079.344-.166.677-.242,1.018l.033.068c.894-.048,1.155-.048,1.92-.035l.092-.069c.134-.8.17-1.012.422-2.174L57.66,47c.239-1.045.361-1.575.183-2.006a1.049,1.049,0,0,0-1.071-.6,2.99,2.99,0,0,0-1.226.287c-.16.084-.32.18-.478.277l.137-.531-.074-.09c-.954.194-1.172.22-2.053.344l-.068.049a27.053,27.053,0,0,1-.573,3.156c-.145.615-.295,1.236-.445,1.849l.04.078C52.939,49.763,53.209,49.763,53.993,49.775Zm6.566.035c.056-.274.39-1.9.393-1.9s.284-1.193.3-1.236a.706.706,0,0,1,.179-.173h.132a6.11,6.11,0,0,0,3.742-.808,3.988,3.988,0,0,0,1.487-2.368,3.579,3.579,0,0,0,.1-.824,1.732,1.732,0,0,0-.3-1.053c-.56-.784-1.676-.8-2.964-.8L63,40.65c-1.649.02-2.31.014-2.582-.019-.023.12-.066.334-.066.334s-.591,2.737-.591,2.742L58.281,49.8C59.72,49.783,60.31,49.783,60.559,49.81Zm1.094-4.862s.628-2.732.625-2.721l.02-.14.009-.107.251.026,1.325.114a1.079,1.079,0,0,1,.575,1.373,2,2,0,0,1-1.035,1.366,3.271,3.271,0,0,1-1.455.227h-.341Zm3.91,2.355c-.166.707-.357,2,.826,2.46a2.307,2.307,0,0,0,1.058.191,1.747,1.747,0,0,0,1.01-.463l-.084.323.054.069c.85-.036,1.114-.036,2.036-.029l.084-.064c.135-.791.261-1.559.611-3.072.17-.725.34-1.442.515-2.164l-.027-.079c-.951.176-1.206.214-2.121.344l-.069.057c-.009.074-.019.144-.028.215a1.308,1.308,0,0,0-.667-.548,2.548,2.548,0,0,0-2.184.794A3.709,3.709,0,0,0,65.563,47.3Zm2,.043c.2-.872.438-1.61,1.044-1.61.383,0,.585.354.544.957-.033.15-.068.309-.109.488-.061.259-.126.516-.19.773a1.875,1.875,0,0,1-.224.452,1.047,1.047,0,0,1-.741.358c-.061,0-.435,0-.448-.551A3.789,3.789,0,0,1,67.561,47.346Zm10.434-2.879-.074-.084c-.941.191-1.112.221-1.977.338l-.064.064c0,.01-.006.026-.01.041l0-.014c-.644,1.485-.625,1.165-1.149,2.334,0-.053,0-.086-.006-.143l-.131-2.535-.082-.084c-.986.191-1.009.221-1.92.338l-.071.064a.687.687,0,0,0-.016.1l.006.013a12.789,12.789,0,0,1,.2,1.37c.053.451.124.9.177,1.349.09.745.14,1.111.25,2.248-.615,1.015-.761,1.4-1.353,2.29l0,.009-.417.659a.316.316,0,0,1-.152.137.629.629,0,0,1-.273.039H70.7l-.343,1.142,1.178.02A1.452,1.452,0,0,0,72.9,53.4l.741-1.269h-.012l.078-.089C74.2,50.968,77.994,44.467,77.994,44.467Zm-12.432,15h-.5l1.849-6.117h.613l.195-.63.019.7c-.023.433.318.817,1.213.754h1.035L70.344,53h-.39c-.224,0-.328-.057-.315-.178l-.019-.713H67.7v0a26.872,26.872,0,0,0-2.845.159,3.35,3.35,0,0,0-.931.46l.188-.631H62.321l-.374,1.252-1.874,6.21H59.71l-.357,1.169h3.572l-.12.39h1.76l.117-.39h.494ZM64.1,54.592a8.015,8.015,0,0,0-.822.32l.475-1.563h1.425l-.344,1.139A4.631,4.631,0,0,0,64.1,54.592Zm.027,2.233s-.448.056-.742.123a7.26,7.26,0,0,0-.834.365l.491-1.627h1.432Zm-.8,2.655H61.9l.414-1.373h1.425Zm3.442-3.794h2.06l-.3.959H66.445l-.313,1.048h1.826L66.575,59.64a.57.57,0,0,1-.28.234.821.821,0,0,1-.371.107h-.507l-.348,1.148h1.325a1.611,1.611,0,0,0,1.4-.725l.948-1.3.2,1.318a.62.62,0,0,0,.341.448,1.227,1.227,0,0,0,.463.2c.208.009.358.016.458.016h.651l.391-1.285H70.99a1.074,1.074,0,0,1-.445-.071.7.7,0,0,1-.067-.274l-.207-1.321h-.846l.371-.442H71.88l.32-1.048H70.272l.3-.959H72.5l.357-1.182H67.119Zm-17.4,4.061.481-1.6h1.976l.361-1.19H50.209l.3-.985h1.933l.358-1.152H47.965l-.351,1.152h1.1l-.293.985h-1.1l-.365,1.21h1.1l-.641,2.116a.5.5,0,0,0,.121.517.529.529,0,0,0,.354.258,2.13,2.13,0,0,0,.507.069h2.228l.4-1.318-.988.136C49.839,59.946,49.311,59.923,49.369,59.747ZM49.6,52.09l-.5.905a1.05,1.05,0,0,1-.29.377.962.962,0,0,1-.448.068H48.1L47.746,54.6h.868a1.967,1.967,0,0,0,.891-.23c.164-.088.208-.038.335-.16l.293-.254h2.71l.36-1.206H51.218l.346-.658Zm4,7.681c-.046-.067-.013-.184.058-.428l.741-2.451h2.635c.384-.006.661-.01.842-.023a1.722,1.722,0,0,0,.634-.214,1.186,1.186,0,0,0,.46-.425A3.618,3.618,0,0,0,59.42,55.2l.931-3.1-2.734.016a8.665,8.665,0,0,0-1.213.261,4.957,4.957,0,0,0-.908.58l.247-.85H54.054l-2.365,7.842a4.838,4.838,0,0,0-.153.658c0,.143.18.285.3.391a1.077,1.077,0,0,0,.551.107c.211.016.511.026.925.026h1.3l.4-1.345-1.162.11A.306.306,0,0,1,53.6,59.77Zm1.276-4.535H57.64l-.176.551a1.994,1.994,0,0,0-.366.006H54.7Zm.554-1.849h2.791l-.2.664s-1.315-.013-1.526.026a3.113,3.113,0,0,0-1.468.656Zm2.1,4.247a.3.3,0,0,1-.11.17.547.547,0,0,1-.283.049h-.394l.023-.672h-1.64l-.067,3.283c0,.237.02.374.194.484a3.292,3.292,0,0,0,1.426.154H57.7l.371-1.229-.895.049-.3.017a.34.34,0,0,1-.123-.077c-.038-.037-.1-.014-.091-.251l.007-.842.938-.039a1.216,1.216,0,0,0,.908-.322,1.006,1.006,0,0,0,.3-.557l.157-.745H57.69Z" transform="translate(-21.884 -30.971)"/>
    </g>
  </g>
</svg>
