<svg xmlns="http://www.w3.org/2000/svg" xmlns:xlink="http://www.w3.org/1999/xlink" viewBox="0 0 218 95">
  <defs>
    <style>
      .cls-1 {
        fill: #fff;
      }

      .cls-2 {
        fill: #1f1f1f;
      }

      .cls-3 {
        filter: url(#Path_57);
      }
    </style>
    <filter id="Path_57" x="0" y="0" width="218" height="95" filterUnits="userSpaceOnUse">
      <feOffset dy="3" input="SourceAlpha"/>
      <feGaussianBlur stdDeviation="3" result="blur"/>
      <feFlood flood-opacity="0.161"/>
      <feComposite operator="in" in2="blur"/>
      <feComposite in="SourceGraphic"/>
    </filter>
  </defs>
  <g id="appst" transform="translate(-1555 -470)">
    <g class="cls-3" transform="matrix(1, 0, 0, 1, 1555, 470)">
      <path id="Path_57-2" data-name="Path 57" class="cls-1" d="M9.259,0H190.741C195.854,0,200,4.477,200,10V67c0,5.523-4.146,10-9.259,10H9.259C4.146,77,0,72.523,0,67V10C0,4.477,4.146,0,9.259,0Z" transform="translate(9 6)"/>
    </g>
    <g id="Download_on_the_App_Store_Badge_US-UK_RGB_blk_092917" transform="translate(1566.17 481.029)">
      <g id="Group_33" data-name="Group 33" transform="translate(18.002 15.696)">
        <g id="_Group_" data-name="&lt;Group&gt;" transform="translate(0)">
          <g id="_Group_2" data-name="&lt;Group&gt;" transform="translate(0 0)">
            <g id="_Group_3" data-name="&lt;Group&gt;">
              <path id="_Path_" data-name="&lt;Path&gt;" class="cls-2" d="M34.277,24.367a8.129,8.129,0,0,1,3.871-6.82A8.321,8.321,0,0,0,31.6,14c-2.758-.289-5.433,1.651-6.838,1.651-1.432,0-3.6-1.622-5.928-1.573a8.73,8.73,0,0,0-7.347,4.481c-3.177,5.5-.807,13.583,2.236,18.029,1.522,2.177,3.3,4.609,5.63,4.523,2.275-.091,3.129-1.456,5.879-1.456,2.724,0,3.523,1.456,5.9,1.4,2.445-.04,3.985-2.184,5.454-4.384a18.006,18.006,0,0,0,2.494-5.08A7.855,7.855,0,0,1,34.277,24.367Z" transform="translate(-9.975 -5.346)"/>
              <path id="_Path_2" data-name="&lt;Path&gt;" class="cls-2" d="M24.124,14.454a8.008,8.008,0,0,0,1.831-5.733,8.143,8.143,0,0,0-5.269,2.73,7.616,7.616,0,0,0-1.878,5.521,6.734,6.734,0,0,0,5.316-2.518Z" transform="translate(-4.308 -8.721)"/>
            </g>
          </g>
          <g id="Group_32" data-name="Group 32" transform="translate(40.167 15.028)">
            <path id="Path_29" data-name="Path 29" class="cls-2" d="M47.362,32.963H39.589l-1.867,5.514h-3.3l7.364-20.4h3.422l7.364,20.4h-3.35Zm-6.97-2.548h6.163l-3.038-8.948h-.085Z" transform="translate(-34.427 -17.736)"/>
            <path id="Path_30" data-name="Path 30" class="cls-2" d="M60.639,28.941c0,4.621-2.473,7.59-6.206,7.59a5.041,5.041,0,0,1-4.679-2.6h-.071V41.3H46.631V21.5h2.955v2.473h.056a5.278,5.278,0,0,1,4.732-2.629C58.151,21.349,60.639,24.333,60.639,28.941Zm-3.138,0c0-3.011-1.556-4.99-3.93-4.99-2.332,0-3.9,2.021-3.9,4.99,0,3,1.569,5,3.9,5,2.375,0,3.931-1.966,3.931-5Z" transform="translate(-26.585 -15.637)"/>
            <path id="Path_31" data-name="Path 31" class="cls-2" d="M70.6,28.941c0,4.621-2.473,7.59-6.206,7.59a5.041,5.041,0,0,1-4.679-2.6h-.071V41.3H56.6V21.5h2.955v2.473H59.6a5.278,5.278,0,0,1,4.732-2.629C68.117,21.349,70.6,24.333,70.6,28.941Zm-3.138,0c0-3.011-1.556-4.99-3.93-4.99-2.332,0-3.9,2.021-3.9,4.99,0,3,1.569,5,3.9,5C65.911,33.946,67.467,31.981,67.467,28.941Z" transform="translate(-20.183 -15.637)"/>
            <path id="Path_32" data-name="Path 32" class="cls-2" d="M72.933,32.926c.227,2.022,2.191,3.353,4.876,3.353,2.573,0,4.424-1.329,4.424-3.152,0-1.583-1.117-2.532-3.76-3.185L75.834,29.3c-3.745-.9-5.484-2.656-5.484-5.5,0-3.519,3.067-5.937,7.422-5.937,4.31,0,7.264,2.417,7.364,5.937H82.05c-.182-2.036-1.867-3.264-4.326-3.264s-4.141,1.243-4.141,3.053c0,1.442,1.075,2.29,3.7,2.94l2.251.553c4.186.99,5.924,2.671,5.924,5.655,0,3.816-3.039,6.206-7.874,6.206-4.524,0-7.577-2.334-7.775-6.023Z" transform="translate(-11.693 -17.869)"/>
            <path id="Path_33" data-name="Path 33" class="cls-2" d="M85.392,19.3v3.519H88.22v2.417H85.392v8.2c0,1.274.566,1.867,1.809,1.867a9.539,9.539,0,0,0,1-.071v2.4a8.383,8.383,0,0,1-1.7.141c-3.011,0-4.186-1.131-4.186-4.015V25.237H80.163V22.819h2.162V19.3Z" transform="translate(-5.039 -16.951)"/>
            <path id="Path_34" data-name="Path 34" class="cls-2" d="M86.065,28.946c0-4.679,2.755-7.619,7.053-7.619s7.055,2.94,7.055,7.619-2.73,7.619-7.055,7.619S86.065,33.642,86.065,28.946Zm11,0c0-3.21-1.471-5.1-3.945-5.1s-3.943,1.911-3.943,5.1c0,3.222,1.47,5.1,3.943,5.1S97.062,32.172,97.062,28.946Z" transform="translate(-1.247 -15.646)"/>
            <path id="Path_35" data-name="Path 35" class="cls-2" d="M96.186,21.5H99.1v2.53h.071a3.549,3.549,0,0,1,3.577-2.687,4.707,4.707,0,0,1,1.046.114v2.856a4.267,4.267,0,0,0-1.371-.182,3.076,3.076,0,0,0-3.185,3.422v8.82H96.186Z" transform="translate(5.257 -15.636)"/>
            <path id="Path_36" data-name="Path 36" class="cls-2" d="M114.632,32.016c-.41,2.7-3.039,4.55-6.4,4.55-4.326,0-7.007-2.9-7.007-7.553s2.7-7.69,6.883-7.69c4.114,0,6.7,2.826,6.7,7.335V29.7H104.3v.182a3.873,3.873,0,0,0,4,4.212,3.367,3.367,0,0,0,3.434-2.093Zm-10.319-4.435h7.435a3.576,3.576,0,0,0-3.647-3.775,3.765,3.765,0,0,0-3.787,3.775Z" transform="translate(8.489 -15.646)"/>
          </g>
        </g>
      </g>
      <g id="_Group_4" data-name="&lt;Group&gt;" transform="translate(60.212 15.229)">
        <g id="Group_34" data-name="Group 34">
          <path id="Path_37" data-name="Path 37" class="cls-2" d="M39.211,8.735a4.336,4.336,0,0,1,4.612,4.87c0,3.131-1.693,4.931-4.612,4.931h-3.54v-9.8Zm-2.018,8.415h1.848a3.081,3.081,0,0,0,3.232-3.525,3.094,3.094,0,0,0-3.232-3.505H37.193Z" transform="translate(-35.671 -8.253)"/>
          <path id="Path_38" data-name="Path 38" class="cls-2" d="M41.687,13.945a3.5,3.5,0,1,1,6.976,0,3.5,3.5,0,1,1-6.976,0Zm5.474,0c0-1.6-.72-2.541-1.985-2.541s-1.983.937-1.983,2.541.713,2.548,1.983,2.548S47.162,15.556,47.162,13.945Z" transform="translate(-31.816 -7.363)"/>
          <path id="Path_39" data-name="Path 39" class="cls-2" d="M54.787,17.591H53.275l-1.529-5.447H51.63l-1.522,5.447h-1.5l-2.038-7.4h1.483l1.325,5.642h.109L51.008,10.2h1.4l1.521,5.642h.116L55.363,10.2h1.456Z" transform="translate(-28.668 -7.308)"/>
          <path id="Path_40" data-name="Path 40" class="cls-2" d="M53.854,10.253h1.407v1.176h.109a2.214,2.214,0,0,1,2.208-1.318,2.406,2.406,0,0,1,2.56,2.751v4.791H58.681V13.228c0-1.188-.517-1.78-1.6-1.78a1.7,1.7,0,0,0-1.766,1.875v4.331H53.863Z" transform="translate(-23.987 -7.366)"/>
          <path id="Path_41" data-name="Path 41" class="cls-2" d="M59.094,8.437H60.55V18.72H59.094Z" transform="translate(-20.62 -8.437)"/>
          <path id="Path_42" data-name="Path 42" class="cls-2" d="M61.224,13.945a3.5,3.5,0,1,1,6.977,0,3.505,3.505,0,1,1-6.977,0Zm5.474,0c0-1.6-.72-2.541-1.985-2.541s-1.983.937-1.983,2.541.713,2.548,1.983,2.548S66.7,15.557,66.7,13.945Z" transform="translate(-19.261 -7.363)"/>
          <path id="Path_43" data-name="Path 43" class="cls-2" d="M66.4,15.555c0-1.331.991-2.1,2.751-2.208l2-.116v-.637c0-.781-.517-1.222-1.514-1.222-.819,0-1.38.3-1.542.819h-1.41c.149-1.274,1.344-2.086,3.022-2.086,1.855,0,2.9.923,2.9,2.485v5.054H71.2V16.608h-.116a2.489,2.489,0,0,1-2.221,1.161A2.234,2.234,0,0,1,66.4,15.555Zm4.755-.632V14.3l-1.806.116c-1.018.068-1.481.415-1.481,1.066s.578,1.053,1.371,1.053a1.744,1.744,0,0,0,1.911-1.617Z" transform="translate(-15.925 -7.363)"/>
          <path id="Path_44" data-name="Path 44" class="cls-2" d="M71.348,15.019c0-2.337,1.2-3.822,3.07-3.822a2.438,2.438,0,0,1,2.269,1.3H76.8V8.437h1.456V18.72h-1.4V17.552H76.74a2.567,2.567,0,0,1-2.322,1.29C72.536,18.843,71.348,17.362,71.348,15.019Zm1.508,0c0,1.569.74,2.512,1.976,2.512s1.991-.957,1.991-2.506-.768-2.512-1.991-2.512S72.856,13.463,72.856,15.019Z" transform="translate(-12.746 -8.437)"/>
          <path id="Path_45" data-name="Path 45" class="cls-2" d="M79.236,13.945a3.5,3.5,0,1,1,6.976,0,3.5,3.5,0,1,1-6.976,0Zm5.474,0c0-1.6-.72-2.541-1.984-2.541s-1.978.937-1.978,2.541.713,2.548,1.983,2.548S84.711,15.555,84.711,13.945Z" transform="translate(-7.688 -7.363)"/>
          <path id="Path_46" data-name="Path 46" class="cls-2" d="M84.669,10.253h1.405v1.176h.109a2.214,2.214,0,0,1,2.208-1.318,2.406,2.406,0,0,1,2.56,2.751v4.791H89.495V13.228c0-1.188-.517-1.78-1.6-1.78a1.7,1.7,0,0,0-1.766,1.875v4.331H84.676Z" transform="translate(-4.187 -7.366)"/>
          <path id="Path_47" data-name="Path 47" class="cls-2" d="M94.546,9.074v1.875h1.6v1.229h-1.6v3.8c0,.774.319,1.114,1.046,1.114a4.873,4.873,0,0,0,.557-.034v1.216a4.788,4.788,0,0,1-.794.075c-1.623,0-2.27-.571-2.27-2V12.178H91.911V10.949h1.173V9.074Z" transform="translate(0.467 -8.028)"/>
          <path id="Path_48" data-name="Path 48" class="cls-2" d="M95.7,8.437h1.447v4.076h.116a2.275,2.275,0,0,1,2.259-1.325,2.437,2.437,0,0,1,2.548,2.757v4.776h-1.461V14.305c0-1.183-.546-1.78-1.582-1.78A1.729,1.729,0,0,0,97.164,14.4v4.32H95.7Z" transform="translate(2.905 -8.437)"/>
          <path id="Path_49" data-name="Path 49" class="cls-2" d="M107.364,15.651a3,3,0,0,1-3.2,2.138,3.36,3.36,0,0,1-3.417-3.822,3.412,3.412,0,0,1,3.411-3.864c2.058,0,3.3,1.406,3.3,3.731v.51H102.23v.082a1.955,1.955,0,0,0,1.97,2.119,1.773,1.773,0,0,0,1.76-.9Zm-5.135-2.383h3.735a1.784,1.784,0,0,0-1.82-1.916,1.892,1.892,0,0,0-1.911,1.916Z" transform="translate(6.122 -7.363)"/>
        </g>
      </g>
    </g>
  </g>
</svg>
