<svg xmlns="http://www.w3.org/2000/svg" xmlns:xlink="http://www.w3.org/1999/xlink" viewBox="0 0 215 140">
  <defs>
    <style>
      .cls-1 {
        fill: #fff;
      }

      .cls-2 {
        fill: #272727;
        fill-rule: evenodd;
      }

      .cls-3 {
        filter: url(#Rectangle_28);
      }
    </style>
    <filter id="Rectangle_28" x="0" y="0" width="215" height="140" filterUnits="userSpaceOnUse">
      <feOffset dy="3" input="SourceAlpha"/>
      <feGaussianBlur stdDeviation="10" result="blur"/>
      <feFlood flood-color="#47494d" flood-opacity="0.161"/>
      <feComposite operator="in" in2="blur"/>
      <feComposite in="SourceGraphic"/>
    </filter>
  </defs>
  <g id="Group_128" data-name="Group 128" transform="translate(-92 -1487)">
    <g class="cls-3" transform="matrix(1, 0, 0, 1, 92, 1487)">
      <rect id="Rectangle_28-2" data-name="Rectangle 28" class="cls-1" width="155" height="80" rx="10" transform="translate(30 27)"/>
    </g>
    <path id="saltedge-logo-05f6599a16a351f2c87ad7bb1b768fb50386b5195efc50903798cee7a1b59e1a" class="cls-2" d="M102.08,16.558H94.373V4.442h8.066v1.9H96.4V9.288h5.739v1.893H96.4V14.65h6.042v1.907h-.359ZM88,9.664h4.352V15.87l-.26.081q-.478.149-.965.262-.469.109-.982.188t-1.078.116c-.383.026-.785.039-1.2.039a7.1,7.1,0,0,1-2.5-.412,5.07,5.07,0,0,1-1.914-1.254h0A5.351,5.351,0,0,1,82.263,12.9a8.047,8.047,0,0,1-.391-2.6,7.629,7.629,0,0,1,.2-1.757A6.164,6.164,0,0,1,82.65,7a5.3,5.3,0,0,1,.959-1.274,5.411,5.411,0,0,1,1.306-.932A6.517,6.517,0,0,1,86.5,4.226a8.451,8.451,0,0,1,1.813-.187,9.875,9.875,0,0,1,1.881.176,8.93,8.93,0,0,1,1.754.529l.345.144-.15.335L91.619,6.4l-.148.328-.335-.14a8.709,8.709,0,0,0-1.493-.474,6.7,6.7,0,0,0-1.415-.155,5.066,5.066,0,0,0-1.774.287,3.448,3.448,0,0,0-1.3.843,3.659,3.659,0,0,0-.819,1.355,5.671,5.671,0,0,0-.28,1.855,6.183,6.183,0,0,0,.271,1.932,3.458,3.458,0,0,0,.784,1.343,3.257,3.257,0,0,0,1.283.807,5.564,5.564,0,0,0,1.848.277,10.053,10.053,0,0,0,2.007-.2V11.582H87.632V9.663H88Zm-9.361.738a6.462,6.462,0,0,0-.26-1.938,3.391,3.391,0,0,0-.753-1.329,3.124,3.124,0,0,0-1.249-.8,5.4,5.4,0,0,0-1.818-.277H73v8.814h1.251a6.043,6.043,0,0,0,1.964-.287,3.285,3.285,0,0,0,2.152-2.2,6.377,6.377,0,0,0,.277-1.984Zm2.017-.012A7.872,7.872,0,0,1,80.26,13a5.06,5.06,0,0,1-1.219,1.963,5.146,5.146,0,0,1-1.976,1.2,8.033,8.033,0,0,1-2.616.393H70.981V4.443h3.8a7.174,7.174,0,0,1,2.448.389A4.963,4.963,0,0,1,79.1,6.024a5.082,5.082,0,0,1,1.172,1.9,7.371,7.371,0,0,1,.386,2.467h0ZM68.2,16.558H60.5V4.442h8.066v1.9H62.519V9.288h5.74v1.893h-5.74V14.65h6.042v1.907H68.2Zm-12.889,0h.364V6.341h4.009v-1.9H49.606v1.9h4.007V16.557h1.7ZM42.751,16.2V4.442h2.013V14.635h5.649v1.922H42.75V16.2h0Zm-5.244-4.889L36.29,7.834c-.064-.176-.127-.364-.192-.565-.056.183-.115.368-.177.556l0,.006-1.234,3.477h2.823Zm2.172,5.02-1.343-3.379H34.212l-1.327,3.378-.091.231H30.651l.2-.491L35.4,4.672l.092-.23h1.625l.09.23,4.536,11.394.2.491H39.77l-.091-.23h0ZM13.309,9.68V6.865L1.615,11.319l0,2.815,11.7-4.455Zm1.613-6.035L0,9.288V5.643L14.922,0V3.645h0Zm0,11.711L0,21V17.355l14.922-5.644v3.644h0Zm15.326-2.373a3.632,3.632,0,0,1-.3,1.5,3.057,3.057,0,0,1-.9,1.149,3.963,3.963,0,0,1-1.367.7,6.108,6.108,0,0,1-1.723.226,10.5,10.5,0,0,1-1.8-.138,5.034,5.034,0,0,1-1.38-.427l-.2-.1v-2.06l.486.213a6.877,6.877,0,0,0,.679.254q.354.113.74.2a7.408,7.408,0,0,0,.76.123,7.1,7.1,0,0,0,.757.04,4.171,4.171,0,0,0,1.043-.115,1.871,1.871,0,0,0,.684-.317,1.27,1.27,0,0,0,.383-.471,1.523,1.523,0,0,0,.128-.647,1.961,1.961,0,0,0-.048-.456,1.118,1.118,0,0,0-.129-.33h0a1.38,1.38,0,0,0-.244-.284,2.626,2.626,0,0,0-.405-.294h0a6.346,6.346,0,0,0-.65-.327q-.4-.175-.938-.374h0a7.9,7.9,0,0,1-1.386-.655,3.91,3.91,0,0,1-.965-.8,3,3,0,0,1-.566-1.028A4.057,4.057,0,0,1,22.727,7.3,3.2,3.2,0,0,1,23,5.953a2.9,2.9,0,0,1,.821-1.05v0a3.605,3.605,0,0,1,1.232-.65,5.167,5.167,0,0,1,1.528-.213,8.123,8.123,0,0,1,1.652.164,7.158,7.158,0,0,1,1.521.5l.3.137-.111.318-.4,1.159-.124.361-.341-.148A7.137,7.137,0,0,0,27.791,6.1a5.657,5.657,0,0,0-1.24-.14,3,3,0,0,0-.818.1,1.618,1.618,0,0,0-.566.278,1.111,1.111,0,0,0-.328.411,1.358,1.358,0,0,0-.109.564,2.231,2.231,0,0,0,.043.463v0a1.164,1.164,0,0,0,.12.331,1.277,1.277,0,0,0,.222.283,2.215,2.215,0,0,0,.371.288,5.211,5.211,0,0,0,.6.311q.38.172.879.359h0a9.931,9.931,0,0,1,1.523.692,4,4,0,0,1,1.012.783,2.856,2.856,0,0,1,.565.972,3.643,3.643,0,0,1,.184,1.188h0Z" transform="translate(148.561 1545)"/>
  </g>
</svg>
