<svg xmlns="http://www.w3.org/2000/svg" xmlns:xlink="http://www.w3.org/1999/xlink" viewBox="0 0 178 102">
  <defs>
    <style>
      .cls-1 {
        fill: #fff;
      }

      .cls-2 {
        fill: #79d36d;
      }

      .cls-3 {
        fill: #4b4d53;
      }

      .cls-4 {
        filter: url(#Rectangle_14);
      }
    </style>
    <filter id="Rectangle_14" x="0" y="0" width="178" height="102" filterUnits="userSpaceOnUse">
      <feOffset dy="3" input="SourceAlpha"/>
      <feGaussianBlur stdDeviation="5" result="blur"/>
      <feFlood flood-color="#47494d" flood-opacity="0.161"/>
      <feComposite operator="in" in2="blur"/>
      <feComposite in="SourceGraphic"/>
    </filter>
  </defs>
  <g id="android" transform="translate(-395 -2160)">
    <g class="cls-4" transform="matrix(1, 0, 0, 1, 395, 2160)">
      <rect id="Rectangle_14-2" data-name="Rectangle 14" class="cls-1" width="148" height="72" rx="10" transform="translate(15 12)"/>
    </g>
    <g id="Group_10" data-name="Group 10" transform="translate(443.241 2192.481)">
      <g id="Android_Pay_logo">
        <g id="g3337">
          <path id="path3352" class="cls-2" d="M1017.649,943.347h-.094v12.464a1.9,1.9,0,0,0,1.891,1.891h1.63v4.344a1.89,1.89,0,0,0,3.781,0V957.7h2.547v4.344a1.891,1.891,0,0,0,3.781,0V957.7h1.588a1.9,1.9,0,0,0,1.891-1.891V943.347Zm3.766-4.49a.8.8,0,1,0,.8-.8A.8.8,0,0,0,1021.415,938.857Zm7.783,0a.8.8,0,1,0,.8-.8A.8.8,0,0,0,1029.2,938.857Zm-11.621,3.829c0-.086-.006-.173-.006-.259a6.843,6.843,0,0,1,.211-1.687,7.766,7.766,0,0,1,4.049-4.9l-1.312-2.421a.307.307,0,1,1,.54-.293l1.328,2.45a9.52,9.52,0,0,1,7.452-.011l1.322-2.439a.307.307,0,1,1,.54.293l-1.305,2.408a7.724,7.724,0,0,1,4.136,5.186,6.7,6.7,0,0,1,.116.764v.911Zm21.536,2.221a1.89,1.89,0,0,0-3.781,0v7.941a1.89,1.89,0,0,0,3.781,0Zm-22.234,0v7.941a1.89,1.89,0,0,1-3.781,0v-7.941a1.89,1.89,0,0,1,3.781,0" transform="translate(-1013.097 -932.963)"/>
          <path id="path3354" class="cls-3" d="M1029.458,1058.982h-2.44l-5.3,12.691h1.083L1017.519,1059h-2.512l5.991,13.9-.476,1.083a2.721,2.721,0,0,1-2.512,1.718h-.794v2.18h.765a4.972,4.972,0,0,0,4.764-3.35l6.713-15.55Zm-15.75,14.452V1059h-2.166v1.646a6.688,6.688,0,0,0-4.793-1.935,7.509,7.509,0,0,0,0,15.016,6.75,6.75,0,0,0,4.793-1.935v1.646Zm-6.8-1.819a5.407,5.407,0,0,1,0-10.814,5.2,5.2,0,0,1,4.49,2.353.924.924,0,0,1,.144.477v5.125a.872.872,0,0,1-.159.491,5.379,5.379,0,0,1-4.475,2.368Zm-21.164,6.15v-5.977a6.7,6.7,0,0,0,4.793,1.949,7.516,7.516,0,0,0,0-15.03,6.748,6.748,0,0,0-4.793,1.935V1059h-2.166v18.769h2.166Zm4.634-6.136a5.265,5.265,0,0,1-4.49-2.353.8.8,0,0,1-.144-.477v-5.183a.848.848,0,0,1,.159-.476,5.4,5.4,0,1,1,4.475,8.489h0" transform="translate(-948.938 -1051.659)"/>
        </g>
      </g>
    </g>
  </g>
</svg>
