<svg xmlns="http://www.w3.org/2000/svg" xmlns:xlink="http://www.w3.org/1999/xlink" viewBox="0 0 215 140">
  <defs>
    <style>
      .cls-1 {
        fill: #fff;
      }

      .cls-2 {
        fill: #4b4d53;
      }

      .cls-3 {
        filter: url(#Rectangle_14);
      }
    </style>
    <filter id="Rectangle_14" x="0" y="0" width="215" height="140" filterUnits="userSpaceOnUse">
      <feOffset dy="3" input="SourceAlpha"/>
      <feGaussianBlur stdDeviation="10" result="blur"/>
      <feFlood flood-color="#47494d" flood-opacity="0.161"/>
      <feComposite operator="in" in2="blur"/>
      <feComposite in="SourceGraphic"/>
    </filter>
  </defs>
  <g id="apple_pay" data-name="apple pay" transform="translate(-714 -2152)">
    <g id="Group_13" data-name="Group 13" transform="translate(744 2179)">
      <g class="cls-3" transform="matrix(1, 0, 0, 1, -30, -27)">
        <rect id="Rectangle_14-2" data-name="Rectangle 14" class="cls-1" width="155" height="80" rx="10" transform="translate(30 27)"/>
      </g>
    </g>
    <path id="Apple_Pay_logo" class="cls-2" d="M13.839,3.992a4.633,4.633,0,0,1-3.712,1.753A5.253,5.253,0,0,1,11.452,1.9,5.538,5.538,0,0,1,15.135,0a5.594,5.594,0,0,1-1.3,3.992m1.282,2.033c-2.048-.118-3.8,1.164-4.773,1.164s-2.475-1.1-4.1-1.075A6.051,6.051,0,0,0,1.111,9.237c-2.21,3.8-.575,9.428,1.562,12.522,1.046,1.532,2.3,3.212,3.948,3.153C8.182,24.853,8.8,23.9,10.686,23.9s2.445,1.017,4.1.987c1.709-.029,2.784-1.532,3.83-3.064A13.437,13.437,0,0,0,20.321,18.3a5.551,5.551,0,0,1-3.329-5.053,5.668,5.668,0,0,1,2.7-4.744,5.838,5.838,0,0,0-4.567-2.475M26.95,1.753V24.72h3.565V16.868h4.935A7.29,7.29,0,0,0,43.126,9.3a7.2,7.2,0,0,0-7.557-7.543H26.95Zm3.565,3.005h4.11c3.094,0,4.862,1.65,4.862,4.552s-1.768,4.567-4.876,4.567h-4.1ZM49.638,24.9A5.9,5.9,0,0,0,54.9,21.965h.074V24.72h3.3V13.288c0-3.315-2.652-5.451-6.732-5.451-3.786,0-6.585,2.166-6.688,5.141h3.212c.265-1.414,1.576-2.342,3.374-2.342,2.18,0,3.4,1.017,3.4,2.887v1.267l-4.449.265c-4.14.25-6.379,1.945-6.379,4.891C44.01,22.923,46.323,24.9,49.638,24.9Zm.958-2.725c-1.9,0-3.108-.913-3.108-2.313,0-1.444,1.164-2.283,3.388-2.416l3.963-.25v1.3C54.838,20.639,53.011,22.171,50.6,22.171Zm12.08,8.795c3.477,0,5.112-1.326,6.541-5.348l6.261-17.56H71.853l-4.2,13.568h-.074l-4.2-13.568H59.655L65.7,24.779,65.371,25.8c-.545,1.724-1.429,2.387-3.005,2.387-.28,0-.825-.029-1.046-.059v2.755A9.819,9.819,0,0,0,62.675,30.966Z" transform="translate(783.868 2204.451)"/>
  </g>
</svg>
