<svg xmlns="http://www.w3.org/2000/svg" viewBox="0 0 216 77">
  <defs>
    <style>
      .cls-1 {
        fill: #fff;
      }

      .cls-2 {
        fill: #1f1f1f;
      }
    </style>
  </defs>
  <g id="appst" transform="translate(-1564 -476)">
    <path id="Path_57" data-name="Path 57" class="cls-1" d="M10,0H206a10,10,0,0,1,10,10V67a10,10,0,0,1-10,10H10A10,10,0,0,1,0,67V10A10,10,0,0,1,10,0Z" transform="translate(1564 476)"/>
    <g id="Download_on_the_App_Store_Badge_US-UK_RGB_blk_092917" transform="translate(1564 476.958)">
      <g id="Group_33" data-name="Group 33">
        <g id="_Group_" data-name="&lt;Group&gt;" transform="translate(17.999 15.741)">
          <g id="_Group_2" data-name="&lt;Group&gt;">
            <g id="_Group_3" data-name="&lt;Group&gt;">
              <path id="_Path_" data-name="&lt;Path&gt;" class="cls-2" d="M36.681,25.4a8.933,8.933,0,0,1,4.254-7.5,9.144,9.144,0,0,0-7.2-3.895c-3.031-.318-5.97,1.814-7.514,1.814-1.574,0-3.953-1.782-6.514-1.729a9.594,9.594,0,0,0-8.074,4.924c-3.491,6.044-.887,14.927,2.457,19.812,1.673,2.392,3.628,5.065,6.187,4.97,2.5-.1,3.439-1.6,6.461-1.6,2.994,0,3.871,1.6,6.482,1.536,2.687-.044,4.379-2.4,5.994-4.818a19.787,19.787,0,0,0,2.741-5.582A8.632,8.632,0,0,1,36.681,25.4Z" transform="translate(-9.972 -4.492)"/>
              <path id="_Path_2" data-name="&lt;Path&gt;" class="cls-2" d="M24.651,15.021a8.8,8.8,0,0,0,2.012-6.3,8.948,8.948,0,0,0-5.79,3,8.369,8.369,0,0,0-2.064,6.067,7.4,7.4,0,0,0,5.842-2.767Z" transform="translate(-2.872 -8.72)"/>
            </g>
          </g>
          <g id="Group_32" data-name="Group 32" transform="translate(44.144 16.518)">
            <path id="Path_29" data-name="Path 29" class="cls-2" d="M48.642,34.435H40.1l-2.052,6.059H34.427L42.52,18.078h3.76l8.093,22.415H50.692Zm-7.659-2.8h6.773L44.417,21.8h-.093Z" transform="translate(-34.427 -17.704)"/>
            <path id="Path_30" data-name="Path 30" class="cls-2" d="M62.025,29.692c0,5.078-2.718,8.341-6.82,8.341a5.54,5.54,0,0,1-5.142-2.859h-.078v8.1H46.631V21.52h3.247v2.718h.062a5.8,5.8,0,0,1,5.2-2.889C59.291,21.349,62.025,24.628,62.025,29.692Zm-3.448,0c0-3.309-1.71-5.484-4.319-5.484-2.563,0-4.287,2.221-4.287,5.484,0,3.293,1.724,5.5,4.287,5.5,2.61,0,4.32-2.161,4.32-5.5Z" transform="translate(-24.602 -15.074)"/>
            <path id="Path_31" data-name="Path 31" class="cls-2" d="M71.99,29.692c0,5.078-2.718,8.341-6.82,8.341a5.54,5.54,0,0,1-5.142-2.859H59.95v8.1H56.6V21.52h3.247v2.718H59.9a5.8,5.8,0,0,1,5.2-2.889C69.256,21.349,71.99,24.628,71.99,29.692Zm-3.448,0c0-3.309-1.71-5.484-4.319-5.484-2.563,0-4.287,2.221-4.287,5.484,0,3.293,1.724,5.5,4.287,5.5,2.609,0,4.319-2.159,4.319-5.5Z" transform="translate(-16.58 -15.074)"/>
            <path id="Path_32" data-name="Path 32" class="cls-2" d="M73.242,34.415C73.491,36.637,75.65,38.1,78.6,38.1c2.827,0,4.862-1.46,4.862-3.464,0-1.74-1.227-2.782-4.132-3.5l-2.9-.7c-4.116-.994-6.027-2.919-6.027-6.043,0-3.867,3.37-6.524,8.156-6.524,4.736,0,7.983,2.656,8.093,6.524H83.261c-.2-2.237-2.052-3.587-4.754-3.587s-4.551,1.366-4.551,3.355c0,1.585,1.181,2.517,4.07,3.231L80.5,28c4.6,1.088,6.51,2.935,6.51,6.214,0,4.194-3.34,6.82-8.653,6.82-4.971,0-8.327-2.565-8.544-6.619Z" transform="translate(-5.944 -17.871)"/>
            <path id="Path_33" data-name="Path 33" class="cls-2" d="M85.909,19.3v3.867h3.108v2.656H85.909v9.009c0,1.4.622,2.052,1.988,2.052a10.482,10.482,0,0,0,1.1-.078v2.641a9.212,9.212,0,0,1-1.863.155c-3.309,0-4.6-1.243-4.6-4.412V25.824H80.163V23.167h2.376V19.3Z" transform="translate(2.392 -16.721)"/>
            <path id="Path_34" data-name="Path 34" class="cls-2" d="M86.065,29.7c0-5.142,3.028-8.373,7.751-8.373s7.753,3.231,7.753,8.373-3,8.373-7.753,8.373S86.065,34.86,86.065,29.7Zm12.085,0c0-3.527-1.616-5.609-4.335-5.609s-4.333,2.1-4.333,5.609c0,3.541,1.615,5.607,4.333,5.607S98.15,33.245,98.15,29.7Z" transform="translate(7.144 -15.086)"/>
            <path id="Path_35" data-name="Path 35" class="cls-2" d="M96.186,21.52h3.2V24.3h.078a3.9,3.9,0,0,1,3.931-2.953,5.173,5.173,0,0,1,1.149.125V24.61a4.689,4.689,0,0,0-1.507-.2,3.38,3.38,0,0,0-3.5,3.76v9.693H96.186Z" transform="translate(15.292 -15.073)"/>
            <path id="Path_36" data-name="Path 36" class="cls-2" d="M115.959,33.074c-.451,2.967-3.34,5-7.037,5-4.754,0-7.7-3.185-7.7-8.3s2.967-8.451,7.564-8.451c4.521,0,7.365,3.106,7.365,8.061v1.149H104.6v.2a4.256,4.256,0,0,0,4.4,4.629,3.7,3.7,0,0,0,3.774-2.3ZM104.619,28.2h8.17a3.93,3.93,0,0,0-4.008-4.148,4.137,4.137,0,0,0-4.162,4.148Z" transform="translate(19.342 -15.086)"/>
          </g>
        </g>
      </g>
      <g id="_Group_4" data-name="&lt;Group&gt;" transform="translate(64.388 15.229)">
        <g id="Group_34" data-name="Group 34">
          <path id="Path_37" data-name="Path 37" class="cls-2" d="M39.561,8.736a4.765,4.765,0,0,1,5.068,5.352c0,3.441-1.86,5.419-5.068,5.419h-3.89V8.736Zm-2.218,9.247h2.031a3.386,3.386,0,0,0,3.552-3.874,3.4,3.4,0,0,0-3.552-3.852h-2.03Z" transform="translate(-35.671 -8.206)"/>
          <path id="Path_38" data-name="Path 38" class="cls-2" d="M41.689,14.325a3.851,3.851,0,1,1,7.666,0,3.851,3.851,0,1,1-7.666,0Zm6.016,0c0-1.762-.791-2.792-2.181-2.792s-2.179,1.03-2.179,2.792.784,2.8,2.179,2.8S47.7,16.1,47.7,14.325Z" transform="translate(-30.841 -7.092)"/>
          <path id="Path_39" data-name="Path 39" class="cls-2" d="M55.6,18.323H53.938l-1.68-5.986h-.127l-1.673,5.986H48.81l-2.24-8.128H48.2l1.456,6.2h.12l1.671-6.2h1.539l1.671,6.2h.127l1.449-6.2h1.6Z" transform="translate(-26.897 -7.022)"/>
          <path id="Path_40" data-name="Path 40" class="cls-2" d="M53.854,10.268H55.4V11.56h.12a2.433,2.433,0,0,1,2.426-1.448,2.644,2.644,0,0,1,2.813,3.023V18.4h-1.6V13.537c0-1.306-.568-1.956-1.754-1.956a1.865,1.865,0,0,0-1.941,2.06V18.4h-1.6Z" transform="translate(-21.033 -7.095)"/>
          <path id="Path_41" data-name="Path 41" class="cls-2" d="M59.094,8.437h1.6v11.3h-1.6Z" transform="translate(-16.814 -8.437)"/>
          <path id="Path_42" data-name="Path 42" class="cls-2" d="M61.226,14.325a3.851,3.851,0,1,1,7.667,0,3.852,3.852,0,1,1-7.667,0Zm6.016,0c0-1.762-.791-2.792-2.181-2.792s-2.179,1.03-2.179,2.792.784,2.8,2.179,2.8S67.242,16.1,67.242,14.325Z" transform="translate(-15.112 -7.092)"/>
          <path id="Path_43" data-name="Path 43" class="cls-2" d="M66.4,16.094c0-1.463,1.089-2.307,3.023-2.426l2.2-.127v-.7c0-.858-.568-1.343-1.664-1.343-.9,0-1.516.329-1.694.9h-1.55c.164-1.4,1.477-2.292,3.321-2.292,2.038,0,3.187,1.014,3.187,2.731v5.554H71.679v-1.14h-.127a2.735,2.735,0,0,1-2.441,1.276A2.455,2.455,0,0,1,66.4,16.094Zm5.225-.695v-.68l-1.985.127c-1.119.075-1.627.456-1.627,1.172s.635,1.157,1.507,1.157a1.916,1.916,0,0,0,2.1-1.777Z" transform="translate(-10.932 -7.092)"/>
          <path id="Path_44" data-name="Path 44" class="cls-2" d="M71.348,15.67c0-2.568,1.32-4.2,3.374-4.2a2.679,2.679,0,0,1,2.493,1.43h.12V8.437h1.6v11.3H77.4V18.454h-.127a2.821,2.821,0,0,1-2.552,1.418C72.654,19.872,71.348,18.245,71.348,15.67Zm1.657,0c0,1.724.813,2.761,2.172,2.761s2.188-1.052,2.188-2.754-.844-2.761-2.188-2.761S73,13.96,73,15.67Z" transform="translate(-6.949 -8.437)"/>
          <path id="Path_45" data-name="Path 45" class="cls-2" d="M79.238,14.325a3.851,3.851,0,1,1,7.666,0,3.851,3.851,0,1,1-7.666,0Zm6.016,0c0-1.762-.791-2.792-2.18-2.792S80.9,12.563,80.9,14.325s.784,2.8,2.179,2.8S85.254,16.094,85.254,14.325Z" transform="translate(-0.612 -7.092)"/>
          <path id="Path_46" data-name="Path 46" class="cls-2" d="M84.669,10.268h1.544V11.56h.12a2.433,2.433,0,0,1,2.426-1.448,2.644,2.644,0,0,1,2.813,3.023V18.4h-1.6V13.537c0-1.306-.568-1.956-1.754-1.956a1.865,1.865,0,0,0-1.941,2.06V18.4h-1.6Z" transform="translate(3.775 -7.095)"/>
          <path id="Path_47" data-name="Path 47" class="cls-2" d="M94.807,9.074v2.061h1.761v1.351H94.807v4.179c0,.851.351,1.224,1.149,1.224a5.355,5.355,0,0,0,.612-.037v1.336a5.262,5.262,0,0,1-.873.082c-1.784,0-2.494-.628-2.494-2.195v-4.59h-1.29V11.134H93.2V9.074Z" transform="translate(9.605 -7.924)"/>
          <path id="Path_48" data-name="Path 48" class="cls-2" d="M95.7,8.437h1.59v4.479h.127A2.5,2.5,0,0,1,99.9,11.46a2.678,2.678,0,0,1,2.8,3.03v5.248h-1.606V14.886c0-1.3-.6-1.956-1.738-1.956a1.9,1.9,0,0,0-2.047,2.061v4.747H95.7Z" transform="translate(12.659 -8.437)"/>
          <path id="Path_49" data-name="Path 49" class="cls-2" d="M108.022,16.2a3.3,3.3,0,0,1-3.522,2.35,3.692,3.692,0,0,1-3.755-4.2,3.749,3.749,0,0,1,3.748-4.246c2.262,0,3.626,1.545,3.626,4.1v.56H102.38v.09a2.148,2.148,0,0,0,2.165,2.329,1.948,1.948,0,0,0,1.934-.985Zm-5.643-2.619h4.105a1.961,1.961,0,0,0-2-2.106,2.079,2.079,0,0,0-2.1,2.106Z" transform="translate(16.69 -7.092)"/>
        </g>
      </g>
    </g>
  </g>
</svg>
