<svg xmlns="http://www.w3.org/2000/svg" xmlns:xlink="http://www.w3.org/1999/xlink" viewBox="0 0 178 102">
  <defs>
    <style>
      .cls-1 {
        fill: #fff;
      }

      .cls-2 {
        fill: #95c11f;
      }

      .cls-3 {
        fill: #010000;
      }

      .cls-4 {
        filter: url(#Rectangle_29);
      }
    </style>
    <filter id="Rectangle_29" x="0" y="0" width="178" height="102" filterUnits="userSpaceOnUse">
      <feOffset dy="3" input="SourceAlpha"/>
      <feGaussianBlur stdDeviation="5" result="blur"/>
      <feFlood flood-color="#47494d" flood-opacity="0.161"/>
      <feComposite operator="in" in2="blur"/>
      <feComposite in="SourceGraphic"/>
    </filter>
  </defs>
  <g id="Group_129" data-name="Group 129" transform="translate(-107 -1623)">
    <g class="cls-4" transform="matrix(1, 0, 0, 1, 107, 1623)">
      <rect id="Rectangle_29-2" data-name="Rectangle 29" class="cls-1" width="148" height="72" rx="10" transform="translate(15 12)"/>
    </g>
    <g id="Group_28" data-name="Group 28" transform="translate(157.867 1661.758)">
      <path id="Path_1" data-name="Path 1" class="cls-2" d="M533.4,55.247h-2.249a.965.965,0,0,0-.968.968v9.4a.421.421,0,0,1-.415.413h-8.252a.967.967,0,0,0-.873,1.386c0,.005,0,.012,0,.016a4.028,4.028,0,0,0,3.753,2.3h5.781a4.108,4.108,0,0,0,4.188-4.187V56.215a.965.965,0,0,0-.969-.968" transform="translate(-458.969 -50.63)"/>
      <path id="Path_2" data-name="Path 2" class="cls-3" d="M459.883,19.619a.965.965,0,0,1,.969-.968H463.1a.965.965,0,0,1,.969.968v17.1a.966.966,0,0,1-.969.969h-2.249a.966.966,0,0,1-.969-.969Z" transform="translate(-405.713 -18.501)"/>
      <path id="Path_3" data-name="Path 3" class="cls-3" d="M24.507,37.295a3.818,3.818,0,0,1-4.119,4.119H17.1a.965.965,0,0,1-.969-.969V38.819a.966.966,0,0,1,.969-.969h2.736a.419.419,0,0,0,.449-.45V18.923a.991.991,0,0,1,.969-.969h2.287a.991.991,0,0,1,.969.969Z" transform="translate(-16.13 -17.889)"/>
      <path id="Path_4" data-name="Path 4" class="cls-3" d="M255.673,17.956c1.766,0,2.838.9,3.047,2.144a2.84,2.84,0,0,1,3.078-2.144h4.085a4.109,4.109,0,0,1,4.189,4.187V36.026a.966.966,0,0,1-.969.969h-2.251a.967.967,0,0,1-.969-.969V22.143a.443.443,0,0,0-.415-.413h-4.222a.442.442,0,0,0-.416.413V36.026a.966.966,0,0,1-.97.969h-2.249a.965.965,0,0,1-.968-.969V22.143a.446.446,0,0,0-.417-.413h-4.153a.418.418,0,0,0-.417.413V36.026a.965.965,0,0,1-.969.969H248.4a.989.989,0,0,1-.969-.969V22.143a4.117,4.117,0,0,1,4.222-4.187Z" transform="translate(-219.199 -17.891)"/>
      <path id="Path_5" data-name="Path 5" class="cls-3" d="M117.512,33.259a.447.447,0,0,0,.417-.417V18.925a.966.966,0,0,1,.969-.969h2.285a.966.966,0,0,1,.969.969V32.808a4.108,4.108,0,0,1-4.188,4.187h-5.781a4.109,4.109,0,0,1-4.188-4.187V18.925a.965.965,0,0,1,.969-.969h2.251a.966.966,0,0,1,.968.969V32.842a.449.449,0,0,0,.415.417Z" transform="translate(-96.78 -17.891)"/>
      <path id="Path_6" data-name="Path 6" class="cls-3" d="M519.263,31.909h2.249a.965.965,0,0,0,.969-.969v-9.4a.421.421,0,0,1,.415-.414h8.252a.967.967,0,0,0,.873-1.386c0-.005,0-.011,0-.016a4.028,4.028,0,0,0-3.753-2.3h-5.781a4.108,4.108,0,0,0-4.188,4.187v9.331a.965.965,0,0,0,.969.969" transform="translate(-456.994 -17.423)"/>
    </g>
  </g>
</svg>
