<svg xmlns="http://www.w3.org/2000/svg" xmlns:xlink="http://www.w3.org/1999/xlink" viewBox="0 0 178 102">
  <defs>
    <style>
      .cls-1 {
        fill: #fff;
      }

      .cls-2 {
        fill: #272727;
        fill-rule: evenodd;
      }

      .cls-3 {
        filter: url(#Rectangle_28);
      }
    </style>
    <filter id="Rectangle_28" x="0" y="0" width="178" height="102" filterUnits="userSpaceOnUse">
      <feOffset dy="3" input="SourceAlpha"/>
      <feGaussianBlur stdDeviation="5" result="blur"/>
      <feFlood flood-color="#47494d" flood-opacity="0.161"/>
      <feComposite operator="in" in2="blur"/>
      <feComposite in="SourceGraphic"/>
    </filter>
  </defs>
  <g id="Group_128" data-name="Group 128" transform="translate(-107 -1502)">
    <g class="cls-3" transform="matrix(1, 0, 0, 1, 107, 1502)">
      <rect id="Rectangle_28-2" data-name="Rectangle 28" class="cls-1" width="148" height="72" rx="10" transform="translate(15 12)"/>
    </g>
    <path id="saltedge-logo-05f6599a16a351f2c87ad7bb1b768fb50386b5195efc50903798cee7a1b59e1a" class="cls-2" d="M81.941,14.266H75.755V3.827h6.475V5.463h-4.85V8h4.607V9.633H77.379v2.989h4.85v1.643h-.288Zm-11.3-5.94h3.493v5.347l-.208.07q-.384.128-.775.226t-.788.162q-.407.067-.865.1c-.307.022-.63.034-.967.034a5.347,5.347,0,0,1-2.006-.355,4.057,4.057,0,0,1-1.536-1.08h0a4.689,4.689,0,0,1-.957-1.717,7.4,7.4,0,0,1-.314-2.238,7.036,7.036,0,0,1,.157-1.514,5.557,5.557,0,0,1,.468-1.332,4.557,4.557,0,0,1,.77-1.1,4.363,4.363,0,0,1,1.049-.8,5,5,0,0,1,1.275-.487,6.339,6.339,0,0,1,1.455-.161,7.4,7.4,0,0,1,1.51.152,6.808,6.808,0,0,1,1.408.456l.277.124-.12.289-.423,1.015-.118.283-.269-.12a6.652,6.652,0,0,0-1.2-.408,5.025,5.025,0,0,0-1.135-.133,3.815,3.815,0,0,0-1.424.247,2.757,2.757,0,0,0-1.041.726A3.2,3.2,0,0,0,67.7,7.277a5.217,5.217,0,0,0-.224,1.6,5.691,5.691,0,0,0,.217,1.664,3.035,3.035,0,0,0,.629,1.157,2.6,2.6,0,0,0,1.03.7,4.186,4.186,0,0,0,1.483.239,7.538,7.538,0,0,0,1.611-.172V9.979h-2.1V8.326h.3Zm-7.514.636a5.951,5.951,0,0,0-.209-1.67,2.983,2.983,0,0,0-.6-1.145,2.494,2.494,0,0,0-1-.689,4.066,4.066,0,0,0-1.459-.239H58.6v7.594h1a4.545,4.545,0,0,0,1.577-.247,2.746,2.746,0,0,0,1.728-1.9,5.87,5.87,0,0,0,.222-1.709Zm1.619-.01a7.241,7.241,0,0,1-.321,2.247,4.421,4.421,0,0,1-.978,1.691,4.092,4.092,0,0,1-1.586,1.036,6.044,6.044,0,0,1-2.1.339H56.978V3.828h3.047a5.4,5.4,0,0,1,1.965.336A3.96,3.96,0,0,1,63.5,5.19a4.442,4.442,0,0,1,.941,1.636,6.778,6.778,0,0,1,.31,2.126h0Zm-10,5.314H48.561V3.827h6.475V5.463h-4.85V8h4.608V9.633H50.185v2.989h4.85v1.643h-.286Zm-10.347,0h.292v-8.8h3.218V3.827H39.82V5.463h3.216v8.8H44.4Zm-10.086-.311V3.827h1.616V12.61h4.535v1.656H34.316v-.312h0ZM30.108,9.743,29.13,6.75c-.051-.151-.1-.314-.154-.487-.045.158-.093.317-.142.479l0,.005-.99,3h2.266Zm1.744,4.326-1.078-2.911H27.462L26.4,14.067l-.073.2H24.6l.158-.423,3.658-9.817.074-.2h1.3l.073.2,3.641,9.817.157.423H31.924l-.073-.2h0ZM10.683,8.34V5.915L1.3,9.753v2.426L10.683,8.34Zm1.295-5.2L0,8V4.862L11.978,0V3.14h0Zm0,10.09L0,18.093v-3.14l11.978-4.863v3.14h0Zm12.3-2.044a3.329,3.329,0,0,1-.239,1.292,2.616,2.616,0,0,1-.721.99,3.107,3.107,0,0,1-1.1.6,4.589,4.589,0,0,1-1.383.195,7.869,7.869,0,0,1-1.442-.119,3.843,3.843,0,0,1-1.108-.368l-.161-.086V11.919l.391.184a5.288,5.288,0,0,0,.545.219,5.942,5.942,0,0,0,.594.169,5.573,5.573,0,0,0,.61.106,5.315,5.315,0,0,0,.608.034,3.13,3.13,0,0,0,.837-.1,1.457,1.457,0,0,0,.549-.273,1.082,1.082,0,0,0,.307-.406,1.4,1.4,0,0,0,.1-.558,1.808,1.808,0,0,0-.039-.392,1.006,1.006,0,0,0-.1-.284h0a1.17,1.17,0,0,0-.2-.244,2.12,2.12,0,0,0-.325-.253h0a4.966,4.966,0,0,0-.522-.281q-.318-.151-.753-.322h0a6.153,6.153,0,0,1-1.113-.565,3.2,3.2,0,0,1-.775-.693,2.644,2.644,0,0,1-.454-.886,3.733,3.733,0,0,1-.149-1.085,2.927,2.927,0,0,1,.22-1.158,2.485,2.485,0,0,1,.659-.9h0a2.833,2.833,0,0,1,.989-.56,3.884,3.884,0,0,1,1.227-.184,6.091,6.091,0,0,1,1.326.142,5.473,5.473,0,0,1,1.221.427l.241.118-.089.274-.322,1-.1.311-.274-.127a5.459,5.459,0,0,0-1.034-.367,4.245,4.245,0,0,0-1-.12,2.253,2.253,0,0,0-.656.085,1.265,1.265,0,0,0-.454.24.948.948,0,0,0-.263.354,1.245,1.245,0,0,0-.087.486,2.059,2.059,0,0,0,.035.4h0a1.051,1.051,0,0,0,.1.285,1.093,1.093,0,0,0,.178.244,1.8,1.8,0,0,0,.3.248,4.089,4.089,0,0,0,.478.268q.305.149.706.309h0a7.72,7.72,0,0,1,1.223.6,3.253,3.253,0,0,1,.813.675,2.508,2.508,0,0,1,.454.838,3.351,3.351,0,0,1,.148,1.023h0Z" transform="translate(154 1541.004)"/>
  </g>
</svg>
