<svg xmlns="http://www.w3.org/2000/svg" viewBox="0 0 155 80">
  <defs>
    <style>
      .cls-1 {
        fill: #fff;
      }

      .cls-2 {
        fill: #e21836;
      }

      .cls-3 {
        fill: #00447c;
      }

      .cls-4 {
        fill: #007b84;
      }

      .cls-5 {
        fill: #fefefe;
      }
    </style>
  </defs>
  <g id="Group_409" data-name="Group 409" transform="translate(-1516 -4927)">
    <g id="Group_19" data-name="Group 19" transform="translate(592 -455)">
      <rect id="Rectangle_15" data-name="Rectangle 15" class="cls-1" width="155" height="80" rx="10" transform="translate(924 5382)"/>
    </g>
    <g id="UnionPay_logo" transform="translate(1559.242 4944.5)">
      <path id="Path_23" data-name="Path 23" class="cls-2" d="M13.569,0H30.862a3.37,3.37,0,0,1,3.352,4.39L26.163,38.957a5.877,5.877,0,0,1-5.4,4.383H3.471A3.368,3.368,0,0,1,.118,38.957L8.173,4.39A5.861,5.861,0,0,1,13.569,0" transform="translate(0 0)"/>
      <path id="Path_24" data-name="Path 24" class="cls-3" d="M72.043,0H91.93c2.414,0,1.325,1.968.757,4.39l-8.05,34.567c-.565,2.414-.389,4.383-2.807,4.383H61.943A3.36,3.36,0,0,1,58.6,38.957L66.646,4.39A5.873,5.873,0,0,1,72.043,0" transform="translate(-42.62 0)"/>
      <path id="Path_25" data-name="Path 25" class="cls-4" d="M142.48,0h17.293a3.366,3.366,0,0,1,3.351,4.39l-8.05,34.567a5.879,5.879,0,0,1-5.4,4.383H132.385a3.364,3.364,0,0,1-3.352-4.383L137.084,4.39A5.86,5.86,0,0,1,142.48,0" transform="translate(-93.959 0)"/>
      <path id="Path_26" data-name="Path 26" class="cls-5" d="M39.01,40.692a18.583,18.583,0,0,1-2.471-.04c-.064.306-1.265,5.842-1.268,5.847a4.053,4.053,0,0,1-1.085,2.434,1.933,1.933,0,0,1-1.276.444,1.18,1.18,0,0,1-1.325-1.134l-.015-.255s.24-1.5.24-1.509,1.259-5.045,1.485-5.711a.486.486,0,0,0,.018-.076,18.51,18.51,0,0,1-2.916-.04c-.016.054-.077.367-.077.367l-1.286,5.686-.11.482-.214,1.577a2.321,2.321,0,0,0,.275,1.173c.586,1.024,2.257,1.177,3.2,1.177a6.216,6.216,0,0,0,3.133-.731,4.642,4.642,0,0,0,2-3.13l.145-.564s1.3-5.239,1.518-5.921A.238.238,0,0,1,39.01,40.692Zm4.414,4.227a3.427,3.427,0,0,0-1.4.328c-.186.1-.362.206-.548.316l.168-.606-.092-.1c-1.089.22-1.332.25-2.338.392l-.084.056a29.749,29.749,0,0,1-.653,3.6c-.165.7-.336,1.41-.507,2.109l.046.089c1.031-.054,1.343-.054,2.239-.04l.072-.079c.114-.583.129-.72.381-1.9.118-.56.365-1.79.487-2.228a1.67,1.67,0,0,1,.655-.206c.5,0,.441.438.422.612-.021.293-.2,1.25-.392,2.071l-.125.53c-.087.392-.183.772-.27,1.16l.038.078c1.016-.054,1.326-.054,2.193-.04l.1-.079c.157-.91.2-1.154.481-2.48l.14-.609c.272-1.192.408-1.8.2-2.289A1.183,1.183,0,0,0,43.425,44.919Zm4.931,1.248c-.54.1-.884.173-1.227.217s-.67.1-1.192.176L45.9,46.6l-.038.03c-.054.389-.092.725-.164,1.12s-.155.873-.308,1.539a6.048,6.048,0,0,1-.247.868,7.5,7.5,0,0,0-.271.856l.031.046.026.043c.488-.023.807-.04,1.135-.043s.667,0,1.192,0l.046-.038.049-.041c.076-.453.087-.575.134-.8.046-.237.125-.565.32-1.441.092-.411.194-.822.29-1.241s.2-.83.3-1.241l-.015-.05Zm.012-1.683a1.979,1.979,0,0,0-1.931.2c-.578.392-.644.948-.155,1.242a1.973,1.973,0,0,0,1.921-.206C48.779,45.322,48.851,44.771,48.367,44.484Zm2.967,6.706a3.687,3.687,0,0,0,2.776-1.085,4.917,4.917,0,0,0,.953-2.041,2.6,2.6,0,0,0-.231-2.341,2.555,2.555,0,0,0-2.083-.765,3.824,3.824,0,0,0-2.616.905,4.288,4.288,0,0,0-1.161,2.259c-.188.819-.4,2.292.952,2.841A3.969,3.969,0,0,0,51.335,51.19Zm-.078-3.008c.229-1.012.5-1.862,1.189-1.862.54,0,.58.632.339,1.648a4.541,4.541,0,0,1-.507,1.421.837.837,0,0,1-.65.423c-.073,0-.5,0-.51-.64A4.36,4.36,0,0,1,51.257,48.182Zm6.288,2.878.078-.079c.11-.583.128-.72.372-1.9.122-.56.374-1.79.492-2.228a1.647,1.647,0,0,1,.659-.206c.5,0,.438.438.418.612a19.908,19.908,0,0,1-.392,2.071l-.118.53c-.091.392-.189.772-.277,1.161l.038.078c1.019-.054,1.317-.054,2.19-.04l.105-.079c.153-.911.194-1.155.481-2.48l.137-.609c.273-1.192.411-1.8.209-2.288a1.2,1.2,0,0,0-1.222-.685,3.41,3.41,0,0,0-1.4.328c-.183.1-.365.206-.545.316l.156-.606-.084-.1c-1.088.221-1.337.25-2.341.392l-.077.056a30.853,30.853,0,0,1-.654,3.6c-.165.7-.336,1.41-.507,2.109l.046.089C56.343,51.045,56.651,51.045,57.545,51.06Zm7.488.039c.064-.313.445-2.167.448-2.167s.324-1.36.344-1.41a.805.805,0,0,1,.2-.2h.15a6.968,6.968,0,0,0,4.268-.922,4.549,4.549,0,0,0,1.7-2.7,4.081,4.081,0,0,0,.117-.94,1.976,1.976,0,0,0-.339-1.2c-.639-.894-1.912-.91-3.38-.917l-.724.007c-1.88.023-2.634.016-2.944-.021-.026.137-.075.381-.075.381s-.674,3.122-.674,3.127l-1.688,6.95C64.077,51.068,64.75,51.068,65.033,51.1Zm1.248-5.545s.716-3.115.713-3.1l.023-.16.01-.122.286.03,1.512.13a1.231,1.231,0,0,1,.655,1.565A2.277,2.277,0,0,1,68.3,45.452a3.731,3.731,0,0,1-1.659.258h-.389ZM70.74,48.24c-.189.807-.407,2.28.942,2.806a2.632,2.632,0,0,0,1.207.217,1.992,1.992,0,0,0,1.152-.528l-.1.368.061.079c.97-.041,1.271-.041,2.322-.033l.1-.072c.153-.9.3-1.778.7-3.5.194-.827.388-1.645.588-2.468l-.031-.091c-1.085.2-1.375.244-2.419.392l-.079.064c-.011.084-.022.164-.032.245a1.491,1.491,0,0,0-.76-.626A2.906,2.906,0,0,0,71.894,46,4.23,4.23,0,0,0,70.74,48.24Zm2.279.049c.232-.994.5-1.836,1.19-1.836.437,0,.667.4.62,1.091-.037.172-.077.352-.125.557-.069.3-.144.588-.217.882a2.138,2.138,0,0,1-.255.516,1.2,1.2,0,0,1-.845.408c-.069,0-.5,0-.51-.629A4.321,4.321,0,0,1,73.019,48.289Zm11.9-3.283-.084-.1c-1.074.217-1.268.252-2.254.385l-.072.073c0,.012-.006.03-.011.046l0-.016c-.734,1.694-.713,1.329-1.31,2.662,0-.061,0-.1-.007-.163l-.15-2.891-.094-.1c-1.125.217-1.151.252-2.19.385l-.081.073a.784.784,0,0,0-.018.114l.007.015a14.591,14.591,0,0,1,.229,1.563c.061.514.142,1.031.2,1.538.1.849.16,1.267.285,2.564-.7,1.157-.867,1.6-1.543,2.611l0,.01-.475.752a.36.36,0,0,1-.173.157.718.718,0,0,1-.311.044H76.6l-.392,1.3,1.343.023a1.656,1.656,0,0,0,1.551-.868l.845-1.447h-.013l.089-.1C80.6,52.42,84.918,45.006,84.918,45.006ZM70.74,62.112h-.57l2.109-6.976h.7l.222-.719.021.8c-.026.494.362.932,1.383.859h1.181l.406-1.343h-.444c-.255,0-.374-.064-.359-.2l-.021-.813H73.182v0a30.648,30.648,0,0,0-3.245.182,3.821,3.821,0,0,0-1.062.525l.214-.72H67.044l-.426,1.428L64.48,62.218h-.415l-.407,1.334h4.073L67.6,64H69.6l.133-.445H70.3Zm-1.671-5.559a9.14,9.14,0,0,0-.937.365l.542-1.783H70.3l-.392,1.3A5.281,5.281,0,0,0,69.069,56.553ZM69.1,59.1s-.51.064-.846.14a8.28,8.28,0,0,0-.951.416l.56-1.855H69.5Zm-.91,3.028H66.56l.473-1.566h1.625ZM72.115,57.8h2.349l-.338,1.093H71.746l-.357,1.2h2.083l-1.577,2.221a.65.65,0,0,1-.32.267.936.936,0,0,1-.423.122h-.578l-.4,1.309h1.512a1.837,1.837,0,0,0,1.592-.827l1.082-1.48.232,1.5a.707.707,0,0,0,.389.51,1.4,1.4,0,0,0,.529.226c.237.01.408.018.522.018h.743l.446-1.465H76.93a1.225,1.225,0,0,1-.507-.081.8.8,0,0,1-.076-.313l-.236-1.506h-.965l.423-.5h2.376l.365-1.2h-2.2l.343-1.093h2.193l.407-1.348H72.515ZM52.271,62.433l.548-1.824h2.254l.412-1.357H53.229l.344-1.123h2.2l.408-1.314H50.671l-.4,1.314h1.253l-.334,1.123H49.933l-.416,1.38h1.253l-.731,2.414a.576.576,0,0,0,.138.59.6.6,0,0,0,.4.295,2.429,2.429,0,0,0,.578.079H53.7l.453-1.5-1.126.155C52.808,62.66,52.205,62.634,52.271,62.433ZM52.53,53.7l-.571,1.032a1.2,1.2,0,0,1-.331.43,1.1,1.1,0,0,1-.51.077h-.3l-.4,1.321h.99a2.244,2.244,0,0,0,1.016-.262c.188-.1.237-.043.382-.183l.334-.29h3.091l.41-1.375H54.381l.395-.751Zm4.563,8.76c-.053-.076-.015-.209.066-.488l.845-2.8h3c.438-.006.754-.011.96-.026a1.964,1.964,0,0,0,.723-.244,1.352,1.352,0,0,0,.525-.484,4.126,4.126,0,0,0,.519-1.176L64.8,53.708l-3.118.018a9.883,9.883,0,0,0-1.383.3,5.654,5.654,0,0,0-1.036.662l.282-.97H57.614l-2.7,8.944a5.517,5.517,0,0,0-.175.751c-.005.163.206.325.342.446a1.229,1.229,0,0,0,.629.122c.241.018.583.03,1.055.03h1.48l.454-1.534-1.325.125A.348.348,0,0,1,57.092,62.459Zm1.455-5.172H61.7l-.2.629a2.274,2.274,0,0,0-.417.007H58.353Zm.632-2.109h3.183l-.229.757s-1.5-.015-1.74.03a3.55,3.55,0,0,0-1.675.748Zm2.394,4.844a.337.337,0,0,1-.125.194.624.624,0,0,1-.322.056h-.45l.027-.766H58.833l-.076,3.744c0,.27.023.427.221.552a3.754,3.754,0,0,0,1.627.176h1.172l.423-1.4-1.02.056-.339.02a.388.388,0,0,1-.14-.087c-.043-.043-.115-.016-.1-.287l.008-.96,1.07-.044a1.387,1.387,0,0,0,1.036-.367,1.147,1.147,0,0,0,.343-.636l.18-.85H61.762Z" transform="translate(-20.925 -29.614)"/>
    </g>
  </g>
</svg>
