<svg xmlns="http://www.w3.org/2000/svg" xmlns:xlink="http://www.w3.org/1999/xlink" viewBox="0 0 218 95">
  <defs>
    <style>
      .cls-1 {
        fill: #fff;
      }

      .cls-2 {
        fill: rgba(0,0,0,0);
      }

      .cls-3, .cls-4 {
        fill: #191919;
      }

      .cls-3 {
        fill-rule: evenodd;
      }

      .cls-5 {
        fill: #00c9ff;
      }

      .cls-6 {
        fill: #03e572;
      }

      .cls-7 {
        fill: #f83548;
      }

      .cls-8 {
        fill: #ffc900;
      }

      .cls-9 {
        filter: url(#Path_56);
      }
    </style>
    <filter id="Path_56" x="0" y="0" width="218" height="95" filterUnits="userSpaceOnUse">
      <feOffset dy="3" input="SourceAlpha"/>
      <feGaussianBlur stdDeviation="3" result="blur"/>
      <feFlood flood-opacity="0.161"/>
      <feComposite operator="in" in2="blur"/>
      <feComposite in="SourceGraphic"/>
    </filter>
  </defs>
  <g id="google" transform="translate(-1554 -592)">
    <g class="cls-9" transform="matrix(1, 0, 0, 1, 1554, 592)">
      <path id="Path_56-2" data-name="Path 56" class="cls-1" d="M9.259,0H190.741C195.854,0,200,4.477,200,10V67c0,5.523-4.146,10-9.259,10H9.259C4.146,77,0,72.523,0,67V10C0,4.477,4.146,0,9.259,0Z" transform="translate(9 6)"/>
    </g>
    <g id="get-it-on-google" transform="translate(1571 609.79)">
      <path id="Path_50" data-name="Path 50" class="cls-2" d="M14,8H46.637V43.09H14Z" transform="translate(0 0.291)"/>
      <g id="Group_35" data-name="Group 35" transform="translate(56.151 8.418)">
        <path id="Path_51" data-name="Path 51" class="cls-3" d="M140.247,22.2h1.269V38.5h-1.274Zm12.529,14.364V30.017s-.091-3.557-4.422-3.557-4.455,3.347-4.455,3.347l1.373-.005s-.067-2.284,3.048-2.284,3.082,2.64,3.082,2.64V31.74h-2.546c-3.634,0-5.427,1.46-5.427,3.519s1.088,3.521,3.752,3.521a5.507,5.507,0,0,0,4.154-1.972,4.791,4.791,0,0,0,.4,1.691h1.474a5.711,5.711,0,0,1-.435-1.937ZM151.4,34.223c0,2.376-2.73,3.415-4.1,3.415a2.216,2.216,0,0,1-2.512-2.272c0-1.586,1.792-2.623,3.969-2.623H151.4Zm2.692-7.482h1.34l4.154,10.023,4.042-10.023h1.517s-5.293,13.085-5.784,14.317a3.565,3.565,0,0,1-3.1,2.371,2.878,2.878,0,0,1-1.3-.4l.356-1.056a2.052,2.052,0,0,0,.961.188c.635,0,1.742-1.549,1.742-1.549l.8-2.019L154.092,26.74m-20.531-.283a5.615,5.615,0,0,0-4.016,2.109V26.742h-1.269V43.007h1.269V36.57a4.76,4.76,0,0,0,4.049,2.21c2.81,0,4.992-1.9,4.992-6.255s-2.613-6.068-5.025-6.068Zm-.2,11.233c-2.309,0-3.77-2.488-3.815-2.563V30.045c.044-.063,1.734-2.459,3.982-2.459,2.043,0,3.752,2.183,3.752,5.033s-1.574,5.071-3.919,5.071ZM68.5,23.35s-1.859-1.988-6.508-1.988a8.825,8.825,0,0,0-8.95,8.9,8.3,8.3,0,0,0,8.67,8.556A24.61,24.61,0,0,0,68.5,37.577V34.641a2.139,2.139,0,0,1,.929-1.939h-4.95L62.733,33.72A19.9,19.9,0,0,1,66.15,33.5v3.636a5.837,5.837,0,0,1-2.766.655c-4.824,0-7.95-4.449-7.95-8.508,0-4.955,3.37-7.053,6.3-7.053a6.02,6.02,0,0,1,4.579,2.278l-.535.921.86-.242L68.5,23.346M76.366,26.5a5.973,5.973,0,0,0-6.021,6.225A5.8,5.8,0,0,0,76,38.589a5.872,5.872,0,0,0,6.145-6.1,5.659,5.659,0,0,0-5.777-5.988Zm.247,11.314c-2.738,0-4.031-4.442-4.031-6.69s1.451-3.849,3.12-3.849c2.385,0,4.032,2.957,4.032,6.407C79.734,34.869,79.35,37.815,76.613,37.815ZM89.277,26.506a5.971,5.971,0,0,0-6.019,6.231,5.792,5.792,0,0,0,5.65,5.86,5.869,5.869,0,0,0,6.141-6.092,5.656,5.656,0,0,0-5.773-5.99Zm.245,11.309c-2.736,0-4.028-4.442-4.028-6.686s1.451-3.847,3.12-3.847c2.382,0,4.028,2.955,4.028,6.4,0,1.191-.384,4.135-3.12,4.135Zm15.054-.082c-1.184-.859-1.417-1.269-1.417-1.642s.013-.673.855-1.514a4.351,4.351,0,0,0,1.612-3.31,4.2,4.2,0,0,0-1.514-3.411l1.44-.052,1.441-.9h-5.614a5,5,0,0,0-5.053,4.85,4.012,4.012,0,0,0,4.247,3.886,1.7,1.7,0,0,0,.488-.064,2.515,2.515,0,0,0-.17.912,2.766,2.766,0,0,0,.7,1.6s-6.506.006-6.506,4.388c0,2.648,2.844,3.643,5.176,3.643s6.322-1.321,6.322-4.7a4.47,4.47,0,0,0-2-3.694Zm-3.088-2.861c-1.7,0-3.058-2.674-3.058-4.291s.769-2.771,2.124-2.771,2.966,1.632,2.966,4.619c0,1.043-.33,2.448-2.033,2.448Zm-.129,10.161c-.788,0-4.138-.327-4.138-3.117s3.863-3.05,4.313-3.05a5.422,5.422,0,0,1,.832.067c1.191,1.107,2.509,1.655,2.509,3.387,0,2.483-2.729,2.713-3.516,2.713ZM106.709,21.4l1.606-.921h3.525c-.82.461-1.129.825-1.15,2.974l-.128,13.092c0,.816.677,1.041,1.288,1.041a2.188,2.188,0,0,1,.81.113l-.748.544h-4.273a2.014,2.014,0,0,0,.621-1.151l.219-15.69-1.771-.005m15.582,8.238a4.091,4.091,0,0,0-4.195-3.189c-3.6,0-5.478,2.982-5.478,5.913s1.653,6.224,5.774,6.224a4.993,4.993,0,0,0,4.195-2.256,6.279,6.279,0,0,1-2.912.858c-2.295,0-4.959-2.538-4.959-6.275,0-2.516,1.668-3.527,2.714-3.527a2.136,2.136,0,0,1,2.295,2.334c-.181.351-4.934,2.386-4.934,2.386l1.9-.1,5.6-2.357" transform="translate(-53.04 -7.131)"/>
        <path id="Path_298" data-name="Path 298" class="cls-4" d="M6.147-1.639,6.4-.752h.6V-4.5H3.874v.8H6.147a2.421,2.421,0,0,1-.13.912,2.077,2.077,0,0,1-.444.738,2.071,2.071,0,0,1-.725.493,2.538,2.538,0,0,1-.987.181,2.261,2.261,0,0,1-1.052-.234,2.3,2.3,0,0,1-.763-.628,2.8,2.8,0,0,1-.469-.907,3.593,3.593,0,0,1-.16-1.072,4.451,4.451,0,0,1,.14-1.112A2.98,2.98,0,0,1,1.992-6.3a2.237,2.237,0,0,1,.758-.683,2.245,2.245,0,0,1,1.112-.259,2.9,2.9,0,0,1,.753.091,2.072,2.072,0,0,1,.635.285,1.669,1.669,0,0,1,.469.483,1.863,1.863,0,0,1,.259.7h.947a2.878,2.878,0,0,0-.374-1.072,2.516,2.516,0,0,0-.678-.733,2.763,2.763,0,0,0-.917-.423,4.292,4.292,0,0,0-1.088-.135,3.294,3.294,0,0,0-1.48.314,3.1,3.1,0,0,0-1.057.843A3.645,3.645,0,0,0,.7-5.654,5.049,5.049,0,0,0,.473-4.172,4.006,4.006,0,0,0,.7-2.826a3.469,3.469,0,0,0,.668,1.147,3.223,3.223,0,0,0,1.067.792,3.324,3.324,0,0,0,1.426.295A3.368,3.368,0,0,0,5.11-.837a2.367,2.367,0,0,0,1.037-.8ZM11.83-3.823H8.87A1.766,1.766,0,0,1,9-4.387a1.5,1.5,0,0,1,.3-.463,1.37,1.37,0,0,1,.453-.314,1.476,1.476,0,0,1,.594-.115,1.451,1.451,0,0,1,.584.115,1.468,1.468,0,0,1,.459.309,1.45,1.45,0,0,1,.309.463A1.734,1.734,0,0,1,11.83-3.823Zm.816,1.44h-.834a1.206,1.206,0,0,1-.453.758,1.467,1.467,0,0,1-.882.249,1.756,1.756,0,0,1-.725-.14,1.427,1.427,0,0,1-.509-.374,1.457,1.457,0,0,1-.289-.539,2.046,2.046,0,0,1-.08-.643h3.859a4.1,4.1,0,0,0-.087-.991,2.857,2.857,0,0,0-.379-.957,2.258,2.258,0,0,0-.725-.725A2.115,2.115,0,0,0,10.4-6.029a2.344,2.344,0,0,0-.973.2,2.285,2.285,0,0,0-.768.558,2.574,2.574,0,0,0-.5.848,3.1,3.1,0,0,0-.181,1.077,4.133,4.133,0,0,0,.175,1.088,2.372,2.372,0,0,0,.464.858,2.113,2.113,0,0,0,.76.558,2.648,2.648,0,0,0,1.072.2A2.34,2.34,0,0,0,11.9-1.082a2.061,2.061,0,0,0,.745-1.3ZM14.78-5.9V-7.445h-.848V-5.9h-.878v.748h.878v3.281A1.959,1.959,0,0,0,14-1.3a.7.7,0,0,0,.214.339.828.828,0,0,0,.379.164,3.043,3.043,0,0,0,.568.042h.648V-1.5h-.389a2.827,2.827,0,0,1-.328-.015.419.419,0,0,1-.195-.065.247.247,0,0,1-.091-.14.925.925,0,0,1-.025-.239v-3.2h1.027v-.748Zm5.638-.931V-7.872H19.57v1.037Zm-.848.927V-.752h.848V-5.907Zm3.341,0V-7.448h-.848v1.541h-.878v.748h.878v3.281a1.959,1.959,0,0,0,.07.578.7.7,0,0,0,.214.339.828.828,0,0,0,.379.164,3.043,3.043,0,0,0,.564.045h.648V-1.5h-.389a2.827,2.827,0,0,1-.325-.015.419.419,0,0,1-.194-.065.247.247,0,0,1-.091-.14.925.925,0,0,1-.025-.239v-3.2h1.027v-.748Zm5.355,2.583a2.565,2.565,0,0,1,.125-.833,1.8,1.8,0,0,1,.344-.613,1.465,1.465,0,0,1,.514-.379,1.528,1.528,0,0,1,.624-.13,1.528,1.528,0,0,1,.624.13,1.465,1.465,0,0,1,.513.379,1.8,1.8,0,0,1,.344.613,2.565,2.565,0,0,1,.125.833,2.565,2.565,0,0,1-.125.832,1.742,1.742,0,0,1-.345.608,1.493,1.493,0,0,1-.513.374,1.528,1.528,0,0,1-.623.13,1.528,1.528,0,0,1-.623-.13,1.493,1.493,0,0,1-.514-.374,1.742,1.742,0,0,1-.344-.608A2.565,2.565,0,0,1,28.266-3.324Zm-.9,0a3.387,3.387,0,0,0,.16,1.057,2.413,2.413,0,0,0,.479.852,2.2,2.2,0,0,0,.788.568,2.672,2.672,0,0,0,1.076.2,2.663,2.663,0,0,0,1.082-.2,2.212,2.212,0,0,0,.783-.568,2.413,2.413,0,0,0,.479-.852,3.387,3.387,0,0,0,.16-1.057,3.434,3.434,0,0,0-.16-1.063,2.406,2.406,0,0,0-.479-.858,2.266,2.266,0,0,0-.783-.574,2.607,2.607,0,0,0-1.082-.213,2.616,2.616,0,0,0-1.077.209,2.255,2.255,0,0,0-.788.574,2.406,2.406,0,0,0-.479.858,3.434,3.434,0,0,0-.159,1.062Zm6-2.583V-.752h.85V-3.663a2.085,2.085,0,0,1,.091-.644A1.46,1.46,0,0,1,34.6-4.82a1.262,1.262,0,0,1,.473-.339,1.728,1.728,0,0,1,.674-.12A1.038,1.038,0,0,1,36.511-5a1.024,1.024,0,0,1,.279.758v3.49h.848V-4.142a3.19,3.19,0,0,0-.084-.763,1.445,1.445,0,0,0-.295-.594,1.393,1.393,0,0,0-.544-.389,2.237,2.237,0,0,0-.848-.14,1.785,1.785,0,0,0-1.675.937h-.02v-.816Z" transform="translate(-0.087 8.044)"/>
      </g>
      <path id="Path_52" data-name="Path 52" class="cls-5" d="M14,8V43.09L33.417,25.237Z" transform="translate(0 0.291)"/>
      <path id="Path_53" data-name="Path 53" class="cls-6" d="M38.466,20.373,30.76,16.187,14,8,33.417,25.237Z" transform="translate(0 0.291)"/>
      <path id="Path_54" data-name="Path 54" class="cls-7" d="M14,41.852l16.763-8.8,7.706-4.187L33.417,24Z" transform="translate(0 1.566)"/>
      <path id="Path_55" data-name="Path 55" class="cls-8" d="M37.049,20,32,24.863l5.049,4.864,7.832-4.31a.572.572,0,0,0,0-1.046Z" transform="translate(1.434 0.34)"/>
    </g>
  </g>
</svg>
