<svg xmlns="http://www.w3.org/2000/svg" xmlns:xlink="http://www.w3.org/1999/xlink" viewBox="0 0 178 102">
  <defs>
    <style>
      .cls-1 {
        fill: #fff;
      }

      .cls-2 {
        fill: #00579f;
      }

      .cls-3 {
        fill: #faa61a;
      }

      .cls-4 {
        filter: url(#Rectangle_15);
      }
    </style>
    <filter id="Rectangle_15" x="0" y="0" width="178" height="102" filterUnits="userSpaceOnUse">
      <feOffset dy="3" input="SourceAlpha"/>
      <feGaussianBlur stdDeviation="5" result="blur"/>
      <feFlood flood-color="#47494d" flood-opacity="0.161"/>
      <feComposite operator="in" in2="blur"/>
      <feComposite in="SourceGraphic"/>
    </filter>
  </defs>
  <g id="Group_407" data-name="Group 407" transform="translate(-1504 -4688)">
    <g class="cls-4" transform="matrix(1, 0, 0, 1, 1504, 4688)">
      <rect id="Rectangle_15-2" data-name="Rectangle 15" class="cls-1" width="148" height="72" rx="10" transform="translate(15 12)"/>
    </g>
    <g id="Visa_Inc._logo" transform="translate(1555.426 4724.254)">
      <path id="polygon9" class="cls-2" d="M439.7,134.69h-6.2l3.875-23.963h6.2Z" transform="translate(-406.559 -110.292)"/>
      <path id="path11" class="cls-2" d="M583.765,106.068a15.27,15.27,0,0,0-5.557-1.02c-6.119,0-10.428,3.263-10.454,7.928-.051,3.442,3.085,5.353,5.43,6.5,2.4,1.173,3.212,1.938,3.212,2.983-.024,1.605-1.937,2.345-3.721,2.345a12.332,12.332,0,0,1-5.814-1.275l-.816-.383-.867,5.379a18.857,18.857,0,0,0,6.91,1.275c6.5,0,10.734-3.212,10.784-8.184.025-2.728-1.631-4.818-5.2-6.526-2.167-1.1-3.494-1.836-3.494-2.958.025-1.02,1.123-2.064,3.569-2.064a10.527,10.527,0,0,1,4.615.918l.56.254.843-5.174Z" transform="translate(-528.16 -105.048)"/>
      <path id="path13" class="cls-2" d="M800.108,126.2c.51-1.377,2.474-6.7,2.474-6.7-.026.051.509-1.4.815-2.294l.433,2.065S805,125,805.258,126.2Zm7.648-15.474h-4.793a3.057,3.057,0,0,0-3.238,1.988l-9.2,21.974h6.5s1.07-2.958,1.3-3.595h7.955c.178.841.739,3.595.739,3.595h5.737l-5-23.962Z" transform="translate(-736.268 -110.292)"/>
      <path id="path15" class="cls-2" d="M181.133,110.727l-6.068,16.34-.663-3.314a18.341,18.341,0,0,0-8.566-10.044l5.558,20.955h6.552l9.739-23.937h-6.552Z" transform="translate(-159.36 -110.292)"/>
      <path id="path17" class="cls-3" d="M91.236,110.727H81.268l-.1.484c7.776,1.989,12.926,6.782,15.042,12.543l-2.167-11.013c-.357-1.53-1.453-1.964-2.8-2.014Z" transform="translate(-81.166 -110.292)"/>
    </g>
  </g>
</svg>
