<svg xmlns="http://www.w3.org/2000/svg" viewBox="0 0 155 80">
  <defs>
    <style>
      .cls-1 {
        fill: #fff;
      }

      .cls-2 {
        fill: #95c11f;
      }

      .cls-3 {
        fill: #010000;
      }
    </style>
  </defs>
  <g id="Group_406" data-name="Group 406" transform="translate(-122 -1635)">
    <rect id="Rectangle_29" data-name="Rectangle 29" class="cls-1" width="155" height="80" rx="10" transform="translate(122 1635)"/>
    <g id="Group_28" data-name="Group 28" transform="translate(142.196 1644.989)">
      <path id="Path_1" data-name="Path 1" class="cls-2" d="M534.6,55.247h-2.459a1.055,1.055,0,0,0-1.059,1.059V66.583a.46.46,0,0,1-.454.452H521.6a1.057,1.057,0,0,0-.954,1.516c0,.006,0,.013,0,.018a4.4,4.4,0,0,0,4.1,2.518h6.321a4.492,4.492,0,0,0,4.58-4.578v-10.2a1.055,1.055,0,0,0-1.059-1.059" transform="translate(-437.085 -32.775)"/>
      <path id="Path_2" data-name="Path 2" class="cls-3" d="M459.883,19.71a1.055,1.055,0,0,1,1.06-1.059H463.4a1.055,1.055,0,0,1,1.06,1.059v18.7a1.056,1.056,0,0,1-1.06,1.06h-2.459a1.056,1.056,0,0,1-1.06-1.06Z" transform="translate(-384.521 -1.064)"/>
      <path id="Path_3" data-name="Path 3" class="cls-3" d="M25.29,39.1a4.174,4.174,0,0,1-4.5,4.5h-3.6a1.056,1.056,0,0,1-1.059-1.059V40.769a1.056,1.056,0,0,1,1.059-1.059h2.992a.459.459,0,0,0,.491-.493v-20.2a1.084,1.084,0,0,1,1.059-1.06h2.5a1.084,1.084,0,0,1,1.059,1.06Z" transform="translate(0 -0.46)"/>
      <path id="Path_4" data-name="Path 4" class="cls-3" d="M256.443,17.956c1.931,0,3.1.985,3.332,2.344a3.105,3.105,0,0,1,3.366-2.344h4.467a4.493,4.493,0,0,1,4.58,4.578v15.18a1.056,1.056,0,0,1-1.06,1.059h-2.461a1.057,1.057,0,0,1-1.059-1.059V22.534a.485.485,0,0,0-.453-.452h-4.617a.484.484,0,0,0-.455.452v15.18a1.056,1.056,0,0,1-1.06,1.059h-2.459a1.055,1.055,0,0,1-1.059-1.059V22.534a.487.487,0,0,0-.456-.452h-4.541a.457.457,0,0,0-.456.452v15.18a1.056,1.056,0,0,1-1.06,1.059h-2.5a1.082,1.082,0,0,1-1.059-1.059V22.534a4.5,4.5,0,0,1,4.617-4.578Z" transform="translate(-200.431 -0.462)"/>
      <path id="Path_5" data-name="Path 5" class="cls-3" d="M118.4,34.689a.489.489,0,0,0,.455-.456V19.015a1.056,1.056,0,0,1,1.059-1.059h2.5a1.057,1.057,0,0,1,1.059,1.059V34.2a4.492,4.492,0,0,1-4.58,4.578h-6.321a4.493,4.493,0,0,1-4.579-4.578V19.015a1.055,1.055,0,0,1,1.059-1.059h2.462a1.057,1.057,0,0,1,1.058,1.059V34.233a.491.491,0,0,0,.454.456Z" transform="translate(-79.602 -0.462)"/>
      <path id="Path_6" data-name="Path 6" class="cls-3" d="M519.354,33.263h2.459a1.055,1.055,0,0,0,1.059-1.059V21.927a.461.461,0,0,1,.454-.452h9.023a1.057,1.057,0,0,0,.954-1.516c0-.006,0-.013,0-.018a4.4,4.4,0,0,0-4.1-2.518h-6.321A4.492,4.492,0,0,0,518.295,22V32.2a1.055,1.055,0,0,0,1.059,1.059" transform="translate(-435.136)"/>
    </g>
  </g>
</svg>
