<svg xmlns="http://www.w3.org/2000/svg" xmlns:xlink="http://www.w3.org/1999/xlink" viewBox="0 0 178 102">
  <defs>
    <style>
      .cls-1 {
        fill: #fff;
      }

      .cls-2 {
        fill: #4b4d53;
      }

      .cls-3 {
        filter: url(#Rectangle_14);
      }
    </style>
    <filter id="Rectangle_14" x="0" y="0" width="178" height="102" filterUnits="userSpaceOnUse">
      <feOffset dy="3" input="SourceAlpha"/>
      <feGaussianBlur stdDeviation="5" result="blur"/>
      <feFlood flood-color="#47494d" flood-opacity="0.161"/>
      <feComposite operator="in" in2="blur"/>
      <feComposite in="SourceGraphic"/>
    </filter>
  </defs>
  <g id="apple_pay" data-name="apple pay" transform="translate(-729 -2167)">
    <g class="cls-3" transform="matrix(1, 0, 0, 1, 729, 2167)">
      <rect id="Rectangle_14-2" data-name="Rectangle 14" class="cls-1" width="148" height="72" rx="10" transform="translate(15 12)"/>
    </g>
    <path id="Apple_Pay_logo" class="cls-2" d="M12.887,3.717A4.313,4.313,0,0,1,9.431,5.349a4.89,4.89,0,0,1,1.234-3.579A5.155,5.155,0,0,1,14.094,0a5.207,5.207,0,0,1-1.207,3.717M14.08,5.609c-1.906-.11-3.538,1.083-4.443,1.083s-2.3-1.029-3.813-1A5.633,5.633,0,0,0,1.038,8.6C-1.019,12.137.5,17.376,2.492,20.256c.974,1.426,2.139,2.99,3.675,2.935,1.454-.055,2.03-.946,3.785-.946s2.277.946,3.813.919c1.591-.027,2.592-1.426,3.566-2.853a12.509,12.509,0,0,0,1.591-3.278,5.167,5.167,0,0,1-3.1-4.7,5.277,5.277,0,0,1,2.51-4.416,5.435,5.435,0,0,0-4.251-2.3M25.093,1.632V23.013h3.319V15.7h4.594a6.786,6.786,0,0,0,7.145-7.049,6.706,6.706,0,0,0-7.035-7.022H25.093Zm3.319,2.8h3.826c2.88,0,4.526,1.536,4.526,4.238s-1.646,4.251-4.539,4.251H28.412Zm17.8,18.747a5.491,5.491,0,0,0,4.9-2.729h.069v2.565h3.072V12.37c0-3.086-2.469-5.074-6.267-5.074-3.525,0-6.13,2.016-6.226,4.786h2.99A2.914,2.914,0,0,1,47.886,9.9c2.03,0,3.168.946,3.168,2.688v1.179l-4.142.247c-3.854.233-5.938,1.81-5.938,4.553C40.974,21.339,43.127,23.177,46.213,23.177ZM47.1,20.64c-1.769,0-2.894-.85-2.894-2.153,0-1.344,1.083-2.126,3.154-2.249L51.054,16v1.207C51.054,19.214,49.353,20.64,47.1,20.64ZM58.35,28.827c3.237,0,4.759-1.234,6.089-4.978L70.268,7.5H66.894L62.985,20.133h-.069L59.008,7.5h-3.47l5.623,15.566-.3.946c-.507,1.6-1.33,2.222-2.8,2.222-.261,0-.768-.027-.974-.055v2.565A9.141,9.141,0,0,0,58.35,28.827Z" transform="translate(782.566 2200.339)"/>
  </g>
</svg>
