<svg xmlns="http://www.w3.org/2000/svg" viewBox="0 0 155 80">
  <defs>
    <style>
      .cls-1 {
        fill: #fff;
      }

      .cls-2 {
        fill: #00579f;
      }

      .cls-3 {
        fill: #faa61a;
      }
    </style>
  </defs>
  <g id="Group_407" data-name="Group 407" transform="translate(-1516 -4697)">
    <g id="Group_17" data-name="Group 17" transform="translate(592 -685)">
      <rect id="Rectangle_15" data-name="Rectangle 15" class="cls-1" width="155" height="80" rx="10" transform="translate(924 5382)"/>
    </g>
    <g id="Visa_Inc._logo" transform="translate(1468.568 4619.67)">
      <path id="polygon9" class="cls-2" d="M440.5,137.768h-6.992l4.373-27.041h6.992Z" transform="translate(-321.931 -5.189)"/>
      <path id="path11" class="cls-2" d="M586.153,106.2a17.231,17.231,0,0,0-6.271-1.151c-6.9,0-11.767,3.682-11.8,8.946-.057,3.884,3.481,6.041,6.128,7.336,2.705,1.323,3.625,2.187,3.625,3.367-.028,1.812-2.186,2.647-4.2,2.647a13.916,13.916,0,0,1-6.56-1.438l-.921-.432-.978,6.07a21.28,21.28,0,0,0,7.8,1.439c7.336,0,12.113-3.625,12.169-9.235.028-3.078-1.841-5.437-5.869-7.364-2.445-1.237-3.943-2.072-3.943-3.337.029-1.151,1.267-2.33,4.027-2.33a11.879,11.879,0,0,1,5.208,1.035l.632.287.951-5.839Z" transform="translate(-442.239)"/>
      <path id="path13" class="cls-2" d="M801.34,128.188c.576-1.553,2.791-7.566,2.791-7.566-.029.058.575-1.582.92-2.589l.489,2.33s1.324,6.473,1.612,7.825Zm8.63-17.461h-5.408a3.45,3.45,0,0,0-3.654,2.244l-10.386,24.8h7.336s1.208-3.337,1.467-4.056H808.3c.2.949.834,4.056.834,4.056h6.474l-5.641-27.04Z" transform="translate(-648.133 -5.189)"/>
      <path id="path15" class="cls-2" d="M183.1,110.727l-6.847,18.439-.748-3.74c-1.266-4.315-5.236-9-9.667-11.335l6.272,23.647H179.5l10.99-27.012H183.1Z" transform="translate(-77.362 -5.189)"/>
      <path id="path17" class="cls-3" d="M92.53,110.727H81.281l-.115.546c8.775,2.244,14.587,7.653,16.974,14.154L95.695,113c-.4-1.727-1.64-2.216-3.165-2.273Z" transform="translate(0 -5.189)"/>
    </g>
  </g>
</svg>
