<svg xmlns="http://www.w3.org/2000/svg" xmlns:xlink="http://www.w3.org/1999/xlink" viewBox="0 0 177.698 433.057">
  <defs>
    <style>
      .cls-1, .cls-2 {
        fill: none;
      }

      .cls-2 {
        clip-rule: evenodd;
      }

      .cls-3 {
        fill: #6ecf66;
      }

      .cls-4 {
        fill: #fff;
      }

      .cls-5 {
        fill: #f5a523;
      }

      .cls-6 {
        clip-path: url(#clip-path);
      }

      .cls-7 {
        fill: url(#linear-gradient);
      }

      .cls-8 {
        clip-path: url(#clip-path-2);
      }

      .cls-9 {
        clip-path: url(#clip-path-3);
      }

      .cls-10 {
        clip-path: url(#clip-path-4);
      }

      .cls-11 {
        clip-path: url(#clip-path-5);
      }

      .cls-12 {
        clip-path: url(#clip-path-6);
      }

      .cls-13 {
        clip-path: url(#clip-path-8);
      }

      .cls-14 {
        clip-path: url(#clip-path-9);
      }

      .cls-15 {
        fill: #505888;
      }

      .cls-16 {
        clip-path: url(#clip-path-10);
      }

      .cls-17 {
        clip-path: url(#clip-path-11);
      }

      .cls-18 {
        fill: #56c0fd;
      }

      .cls-19 {
        fill: #5e4aa2;
      }

      .cls-20 {
        filter: url(#Ellipse_3-6);
      }

      .cls-21 {
        filter: url(#Ellipse_3-5);
      }

      .cls-22 {
        filter: url(#Ellipse_3-4);
      }

      .cls-23 {
        filter: url(#Ellipse_3-3);
      }

      .cls-24 {
        filter: url(#Ellipse_3-2);
      }

      .cls-25 {
        filter: url(#Ellipse_3);
      }
    </style>
    <filter id="Ellipse_3" x="49" y="0" width="97" height="97" filterUnits="userSpaceOnUse">
      <feOffset dy="3" input="SourceAlpha"/>
      <feGaussianBlur stdDeviation="7.5" result="blur"/>
      <feFlood flood-opacity="0.161"/>
      <feComposite operator="in" in2="blur"/>
      <feComposite in="SourceGraphic"/>
    </filter>
    <filter id="Ellipse_3-2" x="0" y="80.698" width="97" height="97" filterUnits="userSpaceOnUse">
      <feOffset dy="3" input="SourceAlpha"/>
      <feGaussianBlur stdDeviation="7.5" result="blur-2"/>
      <feFlood flood-opacity="0.161"/>
      <feComposite operator="in" in2="blur-2"/>
      <feComposite in="SourceGraphic"/>
    </filter>
    <clipPath id="clip-path">
      <path id="Path_87" data-name="Path 87" class="cls-1" d="M33-14.962c.521-3.408-2.133-5.24-5.762-6.462l1.177-4.616-2.874-.7-1.146,4.495c-.756-.184-1.532-.358-2.3-.53L23.243-27.3,20.37-28l-1.178,4.615c-.625-.139-1.239-.277-1.835-.422l0-.014L13.4-24.789l-.765,3s2.133.478,2.088.507a1.5,1.5,0,0,1,1.339,1.634l-1.341,5.259a2.423,2.423,0,0,1,.3.094l-.3-.074L12.833-7a1.049,1.049,0,0,1-1.317.667c.029.041-2.089-.51-2.089-.51L8-3.625l3.74.912c.7.17,1.378.349,2.049.517L12.6,2.472l2.871.7,1.178-4.62c.784.208,1.546.4,2.291.581l-1.174,4.6,2.874.7,1.189-4.66c4.9.907,8.587.541,10.138-3.793,1.25-3.49-.062-5.5-2.641-6.815A4.519,4.519,0,0,0,33-14.962ZM27.072-5.075c-.879,3.613-6.825,1.66-8.753,1.17l1.562-6.4C21.809-9.817,27.991-8.843,27.072-5.075Zm0-9.966c-.794,2.938-5.692,1.445-7.281,1.079l1.4-5.193C22.784-18.789,27.9-18.106,27.075-15.041Z" transform="translate(-8 28)"/>
    </clipPath>
    <linearGradient id="linear-gradient" x1="0.756" y1="0.044" x2="0.317" y2="0.903" gradientUnits="objectBoundingBox">
      <stop offset="0" stop-color="#25de89"/>
      <stop offset="1" stop-color="#08cbe6"/>
    </linearGradient>
    <filter id="Ellipse_3-3" x="0" y="200" width="97" height="97" filterUnits="userSpaceOnUse">
      <feOffset dy="3" input="SourceAlpha"/>
      <feGaussianBlur stdDeviation="7.5" result="blur-3"/>
      <feFlood flood-opacity="0.161"/>
      <feComposite operator="in" in2="blur-3"/>
      <feComposite in="SourceGraphic"/>
    </filter>
    <clipPath id="clip-path-2">
      <path id="Path_91" data-name="Path 91" class="cls-2" d="M6-27.838H40.49v26.9H6Z" transform="translate(-6 27.838)"/>
    </clipPath>
    <clipPath id="clip-path-3">
      <rect id="Rectangle_39" data-name="Rectangle 39" class="cls-1" width="36.478" height="27.359"/>
    </clipPath>
    <clipPath id="clip-path-4">
      <path id="Path_90" data-name="Path 90" class="cls-2" d="M36.5-22.344c-.191-.185-.387-.363-.583-.54a19.658,19.658,0,0,0-5.837-3.634,18.482,18.482,0,0,0-6.855-1.321,19.026,19.026,0,0,0-13.2,5.421,21.246,21.246,0,0,0-2.254,2.535A22.123,22.123,0,0,0,6-17.144l4.971,4.475a15.254,15.254,0,0,1,1.667-2.824,14.422,14.422,0,0,1,2.341-2.457,12.918,12.918,0,0,1,8.281-3.044c.217,0,.431.019.646.03a12.876,12.876,0,0,1,7.037,2.555c.215.16.431.318.638.49L15.548-3.489A12.878,12.878,0,0,0,22.585-.934L35.57-12.623l4.92-4.429a22.05,22.05,0,0,0-1.813-2.831A21.267,21.267,0,0,0,36.5-22.344Z" transform="translate(-6 27.838)"/>
    </clipPath>
    <clipPath id="clip-path-5">
      <path id="Path_89" data-name="Path 89" class="cls-1" d="M6-.641H40.958V-28H6Z" transform="translate(-6 28)"/>
    </clipPath>
    <clipPath id="clip-path-6">
      <path id="Path_95" data-name="Path 95" class="cls-2" d="M6-23.98H40.49v26.9H6Z" transform="translate(-6 23.98)"/>
    </clipPath>
    <clipPath id="clip-path-8">
      <path id="Path_94" data-name="Path 94" class="cls-2" d="M31.511-6.964A12.918,12.918,0,0,1,23.23-3.92a12.7,12.7,0,0,1-6.045-1.546c-.33-.18-.575-.324-.817-.477l-.1-.064c-.245-.158-.486-.322-.721-.5-.216-.16-.432-.318-.638-.49L30.942-21.424a12.876,12.876,0,0,0-7.037-2.555L10.92-12.291,6-7.862A22.1,22.1,0,0,0,7.813-5.031,21.316,21.316,0,0,0,10-2.569,19.036,19.036,0,0,0,23.27,2.924,19.025,19.025,0,0,0,36.473-2.5a21.247,21.247,0,0,0,2.254-2.535A22.015,22.015,0,0,0,40.49-7.77l-4.971-4.475A15.229,15.229,0,0,1,33.852-9.42,14.4,14.4,0,0,1,31.511-6.964Z" transform="translate(-6 23.98)"/>
    </clipPath>
    <clipPath id="clip-path-9">
      <path id="Path_93" data-name="Path 93" class="cls-1" d="M6,3.359H40.958V-24H6Z" transform="translate(-6 24)"/>
    </clipPath>
    <filter id="Ellipse_3-4" x="29.057" y="336.057" width="97" height="97" filterUnits="userSpaceOnUse">
      <feOffset dy="3" input="SourceAlpha"/>
      <feGaussianBlur stdDeviation="7.5" result="blur-4"/>
      <feFlood flood-opacity="0.161"/>
      <feComposite operator="in" in2="blur-4"/>
      <feComposite in="SourceGraphic"/>
    </filter>
    <clipPath id="clip-path-10">
      <path id="Path_97" data-name="Path 97" class="cls-1" d="M21.056-9.038,33.12-15.964,21.056.556,9-15.964,21.056-9.038Z" transform="translate(-9 15.964)"/>
    </clipPath>
    <clipPath id="clip-path-11">
      <path id="Path_99" data-name="Path 99" class="cls-2" d="M9-10.479,20.842-29v13.49Zm.277.343,11.552-4.95v11.3Zm23.552,0L21.278-3.781v-11.3Zm.29-.343L21.278-15.51V-29Z" transform="translate(-9 29)"/>
    </clipPath>
    <filter id="Ellipse_3-5" x="80.698" y="132.698" width="97" height="97" filterUnits="userSpaceOnUse">
      <feOffset dy="3" input="SourceAlpha"/>
      <feGaussianBlur stdDeviation="7.5" result="blur-5"/>
      <feFlood flood-opacity="0.161"/>
      <feComposite operator="in" in2="blur-5"/>
      <feComposite in="SourceGraphic"/>
    </filter>
    <filter id="Ellipse_3-6" x="74.698" y="253.698" width="97" height="97" filterUnits="userSpaceOnUse">
      <feOffset dy="3" input="SourceAlpha"/>
      <feGaussianBlur stdDeviation="7.5" result="blur-6"/>
      <feFlood flood-opacity="0.161"/>
      <feComposite operator="in" in2="blur-6"/>
      <feComposite in="SourceGraphic"/>
    </filter>
  </defs>
  <g id="Group_404" data-name="Group 404" transform="translate(-1498.5 -6790.5)">
    <g id="Group_38" data-name="Group 38" transform="translate(54 -164)">
      <g class="cls-25" transform="matrix(1, 0, 0, 1, 1444.5, 6954.5)">
        <circle id="Ellipse_3-7" data-name="Ellipse 3" class="cls-3" cx="26" cy="26" r="26" transform="translate(71.5 19.5)"/>
      </g>
      <g id="dollar-symbol_1_" data-name="dollar-symbol (1)" transform="translate(1536.184 6988.35)">
        <path id="Path_64" data-name="Path 64" class="cls-4" d="M134.753,14.4a4.77,4.77,0,0,0-.416-1.009,3.415,3.415,0,0,0-.7-.838,8.355,8.355,0,0,0-.818-.66,7.979,7.979,0,0,0-1-.561q-.633-.31-1-.462t-1.069-.416q-.62-.237-.924-.363t-.8-.356a4.654,4.654,0,0,1-.739-.409,5.81,5.81,0,0,1-.521-.435,1.486,1.486,0,0,1-.389-.548,1.775,1.775,0,0,1,.68-2.1,3.432,3.432,0,0,1,2.046-.567,4.4,4.4,0,0,1,1.128.152,5.9,5.9,0,0,1,.983.343,6.827,6.827,0,0,1,.772.422q.363.231.515.35c.1.079.165.132.191.158a.421.421,0,0,0,.356.092.36.36,0,0,0,.3-.211l1.069-1.927a.382.382,0,0,0-.066-.5c-.053-.053-.119-.114-.2-.185s-.251-.2-.515-.383a6.37,6.37,0,0,0-.838-.495,8.476,8.476,0,0,0-1.149-.442,7.321,7.321,0,0,0-1.458-.3V.422A.406.406,0,0,0,129.777,0H128a.406.406,0,0,0-.3.125.406.406,0,0,0-.125.3V2.8a6.039,6.039,0,0,0-3.366,1.769,4.513,4.513,0,0,0-1.293,3.194,4.583,4.583,0,0,0,.112,1.029,5.268,5.268,0,0,0,.277.878,3.231,3.231,0,0,0,.469.766,8.2,8.2,0,0,0,.574.647,4.661,4.661,0,0,0,.706.561q.436.291.746.469t.825.409q.515.231.812.35t.812.33q.713.277,1.056.429t.871.422a3.616,3.616,0,0,1,.772.495,2.48,2.48,0,0,1,.442.554,1.337,1.337,0,0,1,.2.7,1.848,1.848,0,0,1-.812,1.61,3.2,3.2,0,0,1-1.881.568,4.611,4.611,0,0,1-.977-.105,6.9,6.9,0,0,1-3.207-1.65l-.026-.026a.327.327,0,0,0-.317-.118.41.41,0,0,0-.3.159L122.7,18.015a.4.4,0,0,0,.026.541q.066.079.231.238a7.635,7.635,0,0,0,.614.5,8.1,8.1,0,0,0,2.316,1.221,8.333,8.333,0,0,0,1.683.409v2.31a.428.428,0,0,0,.422.422h1.782a.406.406,0,0,0,.422-.422v-2.31a5.667,5.667,0,0,0,3.412-1.8,5.021,5.021,0,0,0,1.313-3.478A4.339,4.339,0,0,0,134.753,14.4Z" transform="translate(-122.611)"/>
      </g>
    </g>
    <g id="Group_74" data-name="Group 74" transform="translate(10 -75.302)">
      <g id="Group_59" data-name="Group 59" transform="translate(1511 6966)">
        <g class="cls-24" transform="matrix(1, 0, 0, 1, -22.5, -100.2)">
          <circle id="Ellipse_3-8" data-name="Ellipse 3" class="cls-5" cx="26" cy="26" r="26" transform="translate(22.5 100.2)"/>
        </g>
      </g>
      <g id="Group_60" data-name="Group 60" class="cls-6" transform="translate(1523.677 6975.784)">
        <path id="Path_86" data-name="Path 86" class="cls-4" d="M3-33H42.8V14.175H3Z" transform="translate(-10.371 25.629)"/>
      </g>
    </g>
    <g id="Group_77" data-name="Group 77" transform="translate(10 -73)">
      <g id="Group_61" data-name="Group 61" transform="translate(1511 7083)">
        <g class="cls-23" transform="matrix(1, 0, 0, 1, -22.5, -219.5)">
          <circle id="Ellipse_3-9" data-name="Ellipse 3" class="cls-7" cx="26" cy="26" r="26" transform="translate(22.5 219.5)"/>
        </g>
      </g>
      <g id="Group_65" data-name="Group 65" class="cls-8" transform="translate(1519.539 7092.52)">
        <g id="Group_64" data-name="Group 64" class="cls-9" transform="translate(-1.52 -0.246)">
          <g id="Group_63" data-name="Group 63" class="cls-10" transform="translate(1.52 0.246)">
            <g id="Group_62" data-name="Group 62" class="cls-11" transform="translate(0 -0.246)">
              <path id="Path_88" data-name="Path 88" class="cls-4" d="M1-32.838H50.689v42.1H1Z" transform="translate(-8.6 25.484)"/>
            </g>
          </g>
        </g>
      </g>
      <g id="Group_69" data-name="Group 69" class="cls-12" transform="translate(1519.539 7098.461)">
        <g id="Group_68" data-name="Group 68" class="cls-9" transform="translate(-1.52 -0.031)">
          <g id="Group_67" data-name="Group 67" class="cls-13" transform="translate(1.52 0.031)">
            <g id="Group_66" data-name="Group 66" class="cls-14" transform="translate(0 -0.031)">
              <path id="Path_92" data-name="Path 92" class="cls-4" d="M1-28.98H50.689v42.1H1Z" transform="translate(-8.6 21.411)"/>
            </g>
          </g>
        </g>
      </g>
    </g>
    <g id="Group_76" data-name="Group 76" transform="translate(40.057 -47.943)">
      <g id="Group_70" data-name="Group 70" transform="translate(1510 7194)">
        <g class="cls-22" transform="matrix(1, 0, 0, 1, -51.56, -355.56)">
          <circle id="Ellipse_3-10" data-name="Ellipse 3" class="cls-15" cx="26" cy="26" r="26" transform="translate(51.56 355.56)"/>
        </g>
      </g>
      <g id="Group_71" data-name="Group 71" class="cls-16" transform="translate(1523.217 7221.901)">
        <path id="Path_96" data-name="Path 96" class="cls-4" d="M4-20.964H43.195v31.6H4Z" transform="translate(-11.537 13.427)"/>
      </g>
      <g id="Group_72" data-name="Group 72" class="cls-17" transform="translate(1523.217 7201.504)">
        <path id="Path_98" data-name="Path 98" class="cls-4" d="M4-34H43.195V6.294H4Z" transform="translate(-11.537 26.463)"/>
      </g>
    </g>
    <g id="Group_75" data-name="Group 75" transform="translate(-53.302 -29.302)">
      <g id="Group_73" data-name="Group 73" transform="translate(1655 6972)">
        <g class="cls-21" transform="matrix(1, 0, 0, 1, -103.2, -152.2)">
          <circle id="Ellipse_3-11" data-name="Ellipse 3" class="cls-18" cx="26" cy="26" r="26" transform="translate(103.2 152.2)"/>
        </g>
      </g>
      <g id="yen-symbol_1_" data-name="yen-symbol (1)" transform="translate(1674.253 6988.081)">
        <path id="Path_100" data-name="Path 100" class="cls-4" d="M68.472.22A.42.42,0,0,0,68.1,0H65.475a.4.4,0,0,0-.4.261L62.451,6.035q-.1.234-.378.839t-.419.935q-.509-1.2-.77-1.719L57.928.247a.434.434,0,0,0-.4-.247H54.862a.431.431,0,0,0-.385.22.468.468,0,0,0,0,.44L58.89,8.606H55.948a.446.446,0,0,0-.44.44v1.43a.416.416,0,0,0,.131.316.435.435,0,0,0,.309.124h3.959v1.169H55.948a.446.446,0,0,0-.44.44V13.94a.417.417,0,0,0,.131.316.435.435,0,0,0,.309.124h3.959v4.537a.416.416,0,0,0,.131.316.435.435,0,0,0,.309.124h2.365a.445.445,0,0,0,.44-.44V14.38h3.987a.434.434,0,0,0,.309-.124.416.416,0,0,0,.13-.316V12.524a.446.446,0,0,0-.44-.44H63.152V10.915h3.987a.435.435,0,0,0,.309-.124.416.416,0,0,0,.13-.316V9.046a.445.445,0,0,0-.44-.44H64.183l4.3-7.96A.416.416,0,0,0,68.472.22Z" transform="translate(-54.422 0)"/>
      </g>
    </g>
    <g id="Group_79" data-name="Group 79" transform="translate(-44.302 -27.302)">
      <g id="Group_78" data-name="Group 78" transform="translate(1640 7091)">
        <g class="cls-20" transform="matrix(1, 0, 0, 1, -97.2, -273.2)">
          <circle id="Ellipse_3-12" data-name="Ellipse 3" class="cls-19" cx="26" cy="26" r="26" transform="translate(97.2 273.2)"/>
        </g>
      </g>
      <g id="euro-symbol" transform="translate(1655.021 7105.054)">
        <path id="Path_101" data-name="Path 101" class="cls-4" d="M19.833,19.1a10.139,10.139,0,0,1-4.162.949,6.1,6.1,0,0,1-4.711-1.864,5.714,5.714,0,0,1-1.206-2.556h9.168V13.035H9.245V12.45c0-.4,0-.764.034-1.132h9.644V8.726H9.829A5.564,5.564,0,0,1,11,6.353a5.643,5.643,0,0,1,4.456-1.974,11.007,11.007,0,0,1,4.088.877l1.02-4.162A14,14,0,0,0,15.085,0,10.842,10.842,0,0,0,6.652,3.762a11.1,11.1,0,0,0-2.52,4.965H1.684v2.591H3.731c0,.368-.038.732-.038,1.1v.62H1.684v2.594H4.06A10.242,10.242,0,0,0,6.1,20.374a10.938,10.938,0,0,0,8.907,4.163,12.335,12.335,0,0,0,5.7-1.384Z" transform="translate(-1.684)"/>
      </g>
    </g>
  </g>
</svg>
