<svg xmlns="http://www.w3.org/2000/svg" xmlns:xlink="http://www.w3.org/1999/xlink" viewBox="0 0 276 137">
  <defs>
    <style>
      .cls-1 {
        fill: #fff;
      }

      .cls-2 {
        fill: rgba(0,0,0,0);
      }

      .cls-3, .cls-4 {
        fill: #191919;
      }

      .cls-3 {
        fill-rule: evenodd;
      }

      .cls-5 {
        fill: #00c9ff;
      }

      .cls-6 {
        fill: #03e572;
      }

      .cls-7 {
        fill: #f83548;
      }

      .cls-8 {
        fill: #ffc900;
      }

      .cls-9 {
        filter: url(#Path_56);
      }
    </style>
    <filter id="Path_56" x="0" y="0" width="276" height="137" filterUnits="userSpaceOnUse">
      <feOffset dy="3" input="SourceAlpha"/>
      <feGaussianBlur stdDeviation="10" result="blur"/>
      <feFlood flood-color="#47494d" flood-opacity="0.161"/>
      <feComposite operator="in" in2="blur"/>
      <feComposite in="SourceGraphic"/>
    </filter>
  </defs>
  <g id="Group_131" data-name="Group 131" transform="translate(-1533 -571)">
    <g class="cls-9" transform="matrix(1, 0, 0, 1, 1533, 571)">
      <path id="Path_56-2" data-name="Path 56" class="cls-1" d="M10,0H206a10,10,0,0,1,10,10V67a10,10,0,0,1-10,10H10A10,10,0,0,1,0,67V10A10,10,0,0,1,10,0Z" transform="translate(30 27)"/>
    </g>
    <g id="get-it-on-google" transform="translate(1576 608.79)">
      <path id="Path_50" data-name="Path 50" class="cls-2" d="M14,8H50V46.706H14Z" transform="translate(0 0.291)"/>
      <g id="Group_35" data-name="Group 35" transform="translate(60.447 6.475)">
        <path id="Path_51" data-name="Path 51" class="cls-3" d="M149.235,22.377h1.4V40.357h-1.405Zm13.82,15.844V31s-.1-3.924-4.878-3.924-4.914,3.692-4.914,3.692l1.515-.006s-.074-2.519,3.362-2.519,3.4,2.912,3.4,2.912V32.9l-2.808,0c-4.009,0-5.986,1.611-5.986,3.882s1.2,3.884,4.139,3.884a6.075,6.075,0,0,0,4.582-2.175,5.285,5.285,0,0,0,.444,1.865h1.626a6.3,6.3,0,0,1-.48-2.137Zm-1.516-2.582c0,2.621-3.011,3.767-4.526,3.767s-2.771-.757-2.771-2.506,1.977-2.893,4.378-2.893h2.919Zm2.969-8.253h1.478l4.582,11.056,4.459-11.056H176.7s-5.838,14.434-6.38,15.793a3.932,3.932,0,0,1-3.424,2.615,3.175,3.175,0,0,1-1.429-.441l.393-1.165a2.263,2.263,0,0,0,1.06.207c.7,0,1.921-1.709,1.921-1.709l.887-2.227-5.222-13.074m-22.647-.312a6.194,6.194,0,0,0-4.43,2.326V27.387h-1.4V45.328h1.4v-7.1a5.25,5.25,0,0,0,4.466,2.438c3.1,0,5.506-2.1,5.506-6.9s-2.882-6.693-5.543-6.693Zm-.223,12.391c-2.547,0-4.159-2.744-4.208-2.827V31.03c.049-.07,1.913-2.712,4.392-2.712,2.254,0,4.139,2.408,4.139,5.552s-1.736,5.594-4.323,5.594ZM70.091,23.646s-2.051-2.193-7.179-2.193a9.734,9.734,0,0,0-9.872,9.812c0,4.171,2.744,9.438,9.563,9.438a27.147,27.147,0,0,0,7.487-1.364V36.1a2.359,2.359,0,0,1,1.025-2.139h-5.46l-1.923,1.123a21.951,21.951,0,0,1,3.769-.241v4.011a6.438,6.438,0,0,1-3.051.722c-5.321,0-8.769-4.907-8.769-9.385,0-5.466,3.717-7.78,6.948-7.78a6.64,6.64,0,0,1,5.051,2.513l-.59,1.016.949-.267,2.051-2.032m8.68,3.48a6.589,6.589,0,0,0-6.642,6.867,6.392,6.392,0,0,0,6.236,6.467,6.477,6.477,0,0,0,6.778-6.724A6.242,6.242,0,0,0,78.77,27.126Zm.272,12.48c-3.02,0-4.446-4.9-4.446-7.38s1.6-4.246,3.442-4.246c2.631,0,4.447,3.262,4.447,7.067,0,1.31-.423,4.559-3.443,4.559Zm13.97-12.474A6.586,6.586,0,0,0,86.373,34a6.389,6.389,0,0,0,6.232,6.464,6.474,6.474,0,0,0,6.774-6.72,6.239,6.239,0,0,0-6.368-6.607Zm.27,12.474c-3.018,0-4.443-4.9-4.443-7.375s1.6-4.243,3.442-4.243c2.628,0,4.443,3.26,4.443,7.062C96.724,36.359,96.3,39.606,93.282,39.606Zm16.606-.091c-1.306-.948-1.563-1.4-1.563-1.811s.014-.742.943-1.67a4.8,4.8,0,0,0,1.778-3.651,4.631,4.631,0,0,0-1.67-3.763l1.588-.057,1.589-.991h-6.193a5.519,5.519,0,0,0-5.574,5.35,4.425,4.425,0,0,0,4.685,4.287,1.874,1.874,0,0,0,.538-.071,2.774,2.774,0,0,0-.188,1.006,3.051,3.051,0,0,0,.767,1.769s-7.177.007-7.177,4.84c0,2.921,3.137,4.018,5.709,4.018s6.974-1.457,6.974-5.179a4.931,4.931,0,0,0-2.208-4.075Zm-3.406-3.156c-1.878,0-3.373-2.95-3.373-4.733s.848-3.057,2.343-3.057,3.272,1.8,3.272,5.095C108.724,34.81,108.36,36.359,106.482,36.359Zm-.142,11.208c-.869,0-4.565-.361-4.565-3.438s4.261-3.364,4.757-3.364a5.981,5.981,0,0,1,.918.074c1.314,1.221,2.768,1.826,2.768,3.736,0,2.739-3.01,2.993-3.878,2.993Zm5.9-26.063,1.772-1.016H117.9c-.905.509-1.245.91-1.268,3.281l-.141,14.441c0,.9.747,1.148,1.421,1.148a2.413,2.413,0,0,1,.894.125l-.825.6h-4.713a2.222,2.222,0,0,0,.685-1.27l.242-17.307-1.953-.006m17.188,9.087a4.513,4.513,0,0,0-4.627-3.518c-3.973,0-6.043,3.289-6.043,6.522s1.823,6.865,6.369,6.865a5.508,5.508,0,0,0,4.627-2.489,6.926,6.926,0,0,1-3.212.946c-2.531,0-5.47-2.8-5.47-6.922,0-2.775,1.84-3.891,2.994-3.891a2.356,2.356,0,0,1,2.531,2.574c-.2.387-5.443,2.632-5.443,2.632l2.1-.114,6.177-2.6" transform="translate(-52.992 -3.799)"/>
        <path id="Path_298" data-name="Path 298" class="cls-4" d="M6.732-.979,7.007,0h.66V-4.136H4.224v.88H6.732A2.67,2.67,0,0,1,6.589-2.25a2.291,2.291,0,0,1-.49.814,2.284,2.284,0,0,1-.8.544,2.8,2.8,0,0,1-1.089.2,2.494,2.494,0,0,1-1.16-.258,2.534,2.534,0,0,1-.842-.693,3.088,3.088,0,0,1-.517-1,3.963,3.963,0,0,1-.176-1.182,4.91,4.91,0,0,1,.154-1.227,3.287,3.287,0,0,1,.479-1.067,2.468,2.468,0,0,1,.836-.753,2.476,2.476,0,0,1,1.227-.286,3.2,3.2,0,0,1,.831.1,2.285,2.285,0,0,1,.7.314,1.841,1.841,0,0,1,.517.533,2.055,2.055,0,0,1,.286.775H7.59a3.175,3.175,0,0,0-.413-1.182,2.775,2.775,0,0,0-.748-.809,3.048,3.048,0,0,0-1.012-.467,4.734,4.734,0,0,0-1.2-.149,3.634,3.634,0,0,0-1.633.346,3.421,3.421,0,0,0-1.166.93,4.021,4.021,0,0,0-.7,1.359A5.569,5.569,0,0,0,.473-3.773,4.419,4.419,0,0,0,.726-2.288a3.827,3.827,0,0,0,.737,1.265A3.555,3.555,0,0,0,2.64-.149,3.667,3.667,0,0,0,4.213.176a3.715,3.715,0,0,0,1.375-.27A2.611,2.611,0,0,0,6.732-.979ZM13-3.388H9.735a1.948,1.948,0,0,1,.143-.622,1.658,1.658,0,0,1,.33-.511,1.511,1.511,0,0,1,.5-.346,1.628,1.628,0,0,1,.655-.127,1.6,1.6,0,0,1,.644.127,1.619,1.619,0,0,1,.506.341,1.6,1.6,0,0,1,.341.511A1.913,1.913,0,0,1,13-3.388ZM13.9-1.8H12.98a1.33,1.33,0,0,1-.5.836,1.618,1.618,0,0,1-.973.275,1.937,1.937,0,0,1-.8-.154,1.574,1.574,0,0,1-.561-.413,1.607,1.607,0,0,1-.319-.594,2.257,2.257,0,0,1-.088-.709h4.257A4.528,4.528,0,0,0,13.9-3.652a3.152,3.152,0,0,0-.418-1.056,2.491,2.491,0,0,0-.8-.8,2.333,2.333,0,0,0-1.259-.313,2.586,2.586,0,0,0-1.073.22,2.521,2.521,0,0,0-.847.616,2.839,2.839,0,0,0-.556.935,3.422,3.422,0,0,0-.2,1.188,4.559,4.559,0,0,0,.193,1.2,2.617,2.617,0,0,0,.512.946A2.331,2.331,0,0,0,10.29-.1a2.921,2.921,0,0,0,1.182.22,2.581,2.581,0,0,0,1.606-.484A2.273,2.273,0,0,0,13.9-1.8Zm2.354-3.883v-1.7h-.935v1.7h-.968v.825h.968v3.619a2.161,2.161,0,0,0,.077.638.776.776,0,0,0,.236.374.913.913,0,0,0,.418.181A3.357,3.357,0,0,0,16.676,0h.715V-.825h-.429A3.118,3.118,0,0,1,16.6-.841a.462.462,0,0,1-.215-.072.272.272,0,0,1-.1-.154,1.02,1.02,0,0,1-.028-.264V-4.862h1.133v-.825ZM22.473-6.71V-7.854h-.935V-6.71Zm-.935,1.023V0h.935V-5.687Zm3.685,0v-1.7h-.935v1.7H23.32v.825h.968v3.619a2.161,2.161,0,0,0,.077.638.776.776,0,0,0,.236.374.913.913,0,0,0,.418.181A3.357,3.357,0,0,0,25.641,0h.715V-.825h-.429a3.118,3.118,0,0,1-.358-.016.462.462,0,0,1-.214-.072.272.272,0,0,1-.1-.154,1.02,1.02,0,0,1-.028-.264V-4.862h1.133v-.825ZM31.13-2.838a2.829,2.829,0,0,1,.138-.919,1.982,1.982,0,0,1,.379-.676,1.616,1.616,0,0,1,.567-.418,1.686,1.686,0,0,1,.688-.143,1.686,1.686,0,0,1,.688.143,1.616,1.616,0,0,1,.566.418,1.982,1.982,0,0,1,.38.676,2.829,2.829,0,0,1,.138.919,2.829,2.829,0,0,1-.138.918,1.922,1.922,0,0,1-.38.671,1.647,1.647,0,0,1-.566.413,1.686,1.686,0,0,1-.687.143,1.686,1.686,0,0,1-.687-.143,1.647,1.647,0,0,1-.567-.413,1.922,1.922,0,0,1-.379-.671A2.829,2.829,0,0,1,31.13-2.838Zm-.99,0a3.736,3.736,0,0,0,.176,1.166,2.662,2.662,0,0,0,.528.94,2.429,2.429,0,0,0,.869.627A2.947,2.947,0,0,0,32.9.121,2.937,2.937,0,0,0,34.094-.1a2.44,2.44,0,0,0,.864-.627,2.662,2.662,0,0,0,.528-.94,3.736,3.736,0,0,0,.176-1.166,3.788,3.788,0,0,0-.176-1.172,2.654,2.654,0,0,0-.528-.946,2.5,2.5,0,0,0-.864-.633A2.876,2.876,0,0,0,32.9-5.819a2.886,2.886,0,0,0-1.188.231,2.487,2.487,0,0,0-.869.633,2.654,2.654,0,0,0-.528.946A3.788,3.788,0,0,0,30.14-2.838Zm6.622-2.849V0H37.7V-3.212a2.3,2.3,0,0,1,.1-.71,1.611,1.611,0,0,1,.313-.566,1.392,1.392,0,0,1,.522-.374,1.906,1.906,0,0,1,.743-.132,1.145,1.145,0,0,1,.847.308,1.13,1.13,0,0,1,.308.836V0h.935V-3.74a3.519,3.519,0,0,0-.093-.842,1.594,1.594,0,0,0-.325-.655,1.537,1.537,0,0,0-.6-.429,2.468,2.468,0,0,0-.935-.154,1.969,1.969,0,0,0-1.848,1.034h-.022v-.9Z" transform="translate(0 10)"/>
      </g>
      <path id="Path_52" data-name="Path 52" class="cls-5" d="M14,8V46.706L35.418,27.013Z" transform="translate(0 0.291)"/>
      <path id="Path_53" data-name="Path 53" class="cls-6" d="M40.987,21.648l-8.5-4.617L14,8,35.418,27.013Z" transform="translate(0 0.291)"/>
      <path id="Path_54" data-name="Path 54" class="cls-7" d="M14,43.692l18.491-9.71,8.5-4.618L35.418,24Z" transform="translate(0 3.346)"/>
      <path id="Path_55" data-name="Path 55" class="cls-8" d="M37.569,20,32,25.364l5.569,5.365,8.639-4.754a.631.631,0,0,0,0-1.154Z" transform="translate(3.437 1.582)"/>
    </g>
  </g>
</svg>
