<svg xmlns="http://www.w3.org/2000/svg" xmlns:xlink="http://www.w3.org/1999/xlink" viewBox="0 0 97 97">
  <defs>
    <style>
      .cls-1, .cls-2 {
        fill: none;
      }

      .cls-1 {
        clip-rule: evenodd;
      }

      .cls-3 {
        fill: url(#linear-gradient);
      }

      .cls-4 {
        clip-path: url(#clip-path);
      }

      .cls-5 {
        clip-path: url(#clip-path-2);
      }

      .cls-6 {
        clip-path: url(#clip-path-3);
      }

      .cls-7 {
        clip-path: url(#clip-path-4);
      }

      .cls-8 {
        fill: #fff;
      }

      .cls-9 {
        clip-path: url(#clip-path-5);
      }

      .cls-10 {
        clip-path: url(#clip-path-7);
      }

      .cls-11 {
        clip-path: url(#clip-path-8);
      }

      .cls-12 {
        filter: url(#Ellipse_3);
      }
    </style>
    <linearGradient id="linear-gradient" x1="0.756" y1="0.044" x2="0.317" y2="0.903" gradientUnits="objectBoundingBox">
      <stop offset="0" stop-color="#25de89"/>
      <stop offset="1" stop-color="#08cbe6"/>
    </linearGradient>
    <filter id="Ellipse_3" x="0" y="0" width="97" height="97" filterUnits="userSpaceOnUse">
      <feOffset dy="3" input="SourceAlpha"/>
      <feGaussianBlur stdDeviation="7.5" result="blur"/>
      <feFlood flood-opacity="0.161"/>
      <feComposite operator="in" in2="blur"/>
      <feComposite in="SourceGraphic"/>
    </filter>
    <clipPath id="clip-path">
      <path id="Path_91" data-name="Path 91" class="cls-1" d="M6-27.838H40.49v26.9H6Z" transform="translate(-6 27.838)"/>
    </clipPath>
    <clipPath id="clip-path-2">
      <rect id="Rectangle_39" data-name="Rectangle 39" class="cls-2" width="36.478" height="27.359"/>
    </clipPath>
    <clipPath id="clip-path-3">
      <path id="Path_90" data-name="Path 90" class="cls-1" d="M36.5-22.344c-.191-.185-.387-.363-.583-.54a19.658,19.658,0,0,0-5.837-3.634,18.482,18.482,0,0,0-6.855-1.321,19.026,19.026,0,0,0-13.2,5.421,21.246,21.246,0,0,0-2.254,2.535A22.123,22.123,0,0,0,6-17.144l4.971,4.475a15.254,15.254,0,0,1,1.667-2.824,14.422,14.422,0,0,1,2.341-2.457,12.918,12.918,0,0,1,8.281-3.044c.217,0,.431.019.646.03a12.876,12.876,0,0,1,7.037,2.555c.215.16.431.318.638.49L15.548-3.489A12.878,12.878,0,0,0,22.585-.934L35.57-12.623l4.92-4.429a22.05,22.05,0,0,0-1.813-2.831A21.267,21.267,0,0,0,36.5-22.344Z" transform="translate(-6 27.838)"/>
    </clipPath>
    <clipPath id="clip-path-4">
      <path id="Path_89" data-name="Path 89" class="cls-2" d="M6-.641H40.958V-28H6Z" transform="translate(-6 28)"/>
    </clipPath>
    <clipPath id="clip-path-5">
      <path id="Path_95" data-name="Path 95" class="cls-1" d="M6-23.98H40.49v26.9H6Z" transform="translate(-6 23.98)"/>
    </clipPath>
    <clipPath id="clip-path-7">
      <path id="Path_94" data-name="Path 94" class="cls-1" d="M31.511-6.964A12.918,12.918,0,0,1,23.23-3.92a12.7,12.7,0,0,1-6.045-1.546c-.33-.18-.575-.324-.817-.477l-.1-.064c-.245-.158-.486-.322-.721-.5-.216-.16-.432-.318-.638-.49L30.942-21.424a12.876,12.876,0,0,0-7.037-2.555L10.92-12.291,6-7.862A22.1,22.1,0,0,0,7.813-5.031,21.316,21.316,0,0,0,10-2.569,19.036,19.036,0,0,0,23.27,2.924,19.025,19.025,0,0,0,36.473-2.5a21.247,21.247,0,0,0,2.254-2.535A22.015,22.015,0,0,0,40.49-7.77l-4.971-4.475A15.229,15.229,0,0,1,33.852-9.42,14.4,14.4,0,0,1,31.511-6.964Z" transform="translate(-6 23.98)"/>
    </clipPath>
    <clipPath id="clip-path-8">
      <path id="Path_93" data-name="Path 93" class="cls-2" d="M6,3.359H40.958V-24H6Z" transform="translate(-6 24)"/>
    </clipPath>
  </defs>
  <g id="Group_77" data-name="Group 77" transform="translate(-1488.5 -7063.5)">
    <g id="Group_61" data-name="Group 61" transform="translate(1511 7083)">
      <g class="cls-12" transform="matrix(1, 0, 0, 1, -22.5, -19.5)">
        <circle id="Ellipse_3-2" data-name="Ellipse 3" class="cls-3" cx="26" cy="26" r="26" transform="translate(22.5 19.5)"/>
      </g>
    </g>
    <g id="Group_65" data-name="Group 65" class="cls-4" transform="translate(1519.539 7092.52)">
      <g id="Group_64" data-name="Group 64" class="cls-5" transform="translate(-1.52 -0.246)">
        <g id="Group_63" data-name="Group 63" class="cls-6" transform="translate(1.52 0.246)">
          <g id="Group_62" data-name="Group 62" class="cls-7" transform="translate(0 -0.246)">
            <path id="Path_88" data-name="Path 88" class="cls-8" d="M1-32.838H50.689v42.1H1Z" transform="translate(-8.6 25.484)"/>
          </g>
        </g>
      </g>
    </g>
    <g id="Group_69" data-name="Group 69" class="cls-9" transform="translate(1519.539 7098.461)">
      <g id="Group_68" data-name="Group 68" class="cls-5" transform="translate(-1.52 -0.031)">
        <g id="Group_67" data-name="Group 67" class="cls-10" transform="translate(1.52 0.031)">
          <g id="Group_66" data-name="Group 66" class="cls-11" transform="translate(0 -0.031)">
            <path id="Path_92" data-name="Path 92" class="cls-8" d="M1-28.98H50.689v42.1H1Z" transform="translate(-8.6 21.411)"/>
          </g>
        </g>
      </g>
    </g>
  </g>
</svg>
