<svg xmlns="http://www.w3.org/2000/svg" xmlns:xlink="http://www.w3.org/1999/xlink" viewBox="0 0 97 97">
  <defs>
    <style>
      .cls-1 {
        fill: none;
      }

      .cls-2 {
        fill: #f5a523;
      }

      .cls-3 {
        clip-path: url(#clip-path);
      }

      .cls-4 {
        fill: #fff;
      }

      .cls-5 {
        filter: url(#Ellipse_3);
      }
    </style>
    <filter id="Ellipse_3" x="0" y="0" width="97" height="97" filterUnits="userSpaceOnUse">
      <feOffset dy="3" input="SourceAlpha"/>
      <feGaussianBlur stdDeviation="7.5" result="blur"/>
      <feFlood flood-opacity="0.161"/>
      <feComposite operator="in" in2="blur"/>
      <feComposite in="SourceGraphic"/>
    </filter>
    <clipPath id="clip-path">
      <path id="Path_87" data-name="Path 87" class="cls-1" d="M33-14.962c.521-3.408-2.133-5.24-5.762-6.462l1.177-4.616-2.874-.7-1.146,4.495c-.756-.184-1.532-.358-2.3-.53L23.243-27.3,20.37-28l-1.178,4.615c-.625-.139-1.239-.277-1.835-.422l0-.014L13.4-24.789l-.765,3s2.133.478,2.088.507a1.5,1.5,0,0,1,1.339,1.634l-1.341,5.259a2.423,2.423,0,0,1,.3.094l-.3-.074L12.833-7a1.049,1.049,0,0,1-1.317.667c.029.041-2.089-.51-2.089-.51L8-3.625l3.74.912c.7.17,1.378.349,2.049.517L12.6,2.472l2.871.7,1.178-4.62c.784.208,1.546.4,2.291.581l-1.174,4.6,2.874.7,1.189-4.66c4.9.907,8.587.541,10.138-3.793,1.25-3.49-.062-5.5-2.641-6.815A4.519,4.519,0,0,0,33-14.962ZM27.072-5.075c-.879,3.613-6.825,1.66-8.753,1.17l1.562-6.4C21.809-9.817,27.991-8.843,27.072-5.075Zm0-9.966c-.794,2.938-5.692,1.445-7.281,1.079l1.4-5.193C22.784-18.789,27.9-18.106,27.075-15.041Z" transform="translate(-8 28)"/>
    </clipPath>
  </defs>
  <g id="Group_74" data-name="Group 74" transform="translate(-1488.5 -6946.5)">
    <g id="Group_59" data-name="Group 59" transform="translate(1511 6966)">
      <g class="cls-5" transform="matrix(1, 0, 0, 1, -22.5, -19.5)">
        <circle id="Ellipse_3-2" data-name="Ellipse 3" class="cls-2" cx="26" cy="26" r="26" transform="translate(22.5 19.5)"/>
      </g>
    </g>
    <g id="Group_60" data-name="Group 60" class="cls-3" transform="translate(1523.677 6975.784)">
      <path id="Path_86" data-name="Path 86" class="cls-4" d="M3-33H42.8V14.175H3Z" transform="translate(-10.371 25.629)"/>
    </g>
  </g>
</svg>
