<svg xmlns="http://www.w3.org/2000/svg" xmlns:xlink="http://www.w3.org/1999/xlink" viewBox="0 0 97 97">
  <defs>
    <style>
      .cls-1 {
        fill: #56c0fd;
      }

      .cls-2 {
        fill: #fff;
      }

      .cls-3 {
        filter: url(#Ellipse_3);
      }
    </style>
    <filter id="Ellipse_3" x="0" y="0" width="97" height="97" filterUnits="userSpaceOnUse">
      <feOffset dy="3" input="SourceAlpha"/>
      <feGaussianBlur stdDeviation="7.5" result="blur"/>
      <feFlood flood-opacity="0.161"/>
      <feComposite operator="in" in2="blur"/>
      <feComposite in="SourceGraphic"/>
    </filter>
  </defs>
  <g id="Group_75" data-name="Group 75" transform="translate(-1632.5 -6952.5)">
    <g id="Group_73" data-name="Group 73" transform="translate(1655 6972)">
      <g class="cls-3" transform="matrix(1, 0, 0, 1, -22.5, -19.5)">
        <circle id="Ellipse_3-2" data-name="Ellipse 3" class="cls-1" cx="26" cy="26" r="26" transform="translate(22.5 19.5)"/>
      </g>
    </g>
    <g id="yen-symbol_1_" data-name="yen-symbol (1)" transform="translate(1674.253 6988.081)">
      <path id="Path_100" data-name="Path 100" class="cls-2" d="M68.472.22A.42.42,0,0,0,68.1,0H65.475a.4.4,0,0,0-.4.261L62.451,6.035q-.1.234-.378.839t-.419.935q-.509-1.2-.77-1.719L57.928.247a.434.434,0,0,0-.4-.247H54.862a.431.431,0,0,0-.385.22.468.468,0,0,0,0,.44L58.89,8.606H55.948a.446.446,0,0,0-.44.44v1.43a.416.416,0,0,0,.131.316.435.435,0,0,0,.309.124h3.959v1.169H55.948a.446.446,0,0,0-.44.44V13.94a.417.417,0,0,0,.131.316.435.435,0,0,0,.309.124h3.959v4.537a.416.416,0,0,0,.131.316.435.435,0,0,0,.309.124h2.365a.445.445,0,0,0,.44-.44V14.38h3.987a.434.434,0,0,0,.309-.124.416.416,0,0,0,.13-.316V12.524a.446.446,0,0,0-.44-.44H63.152V10.915h3.987a.435.435,0,0,0,.309-.124.416.416,0,0,0,.13-.316V9.046a.445.445,0,0,0-.44-.44H64.183l4.3-7.96A.416.416,0,0,0,68.472.22Z" transform="translate(-54.422 0)"/>
    </g>
  </g>
</svg>
