<svg xmlns="http://www.w3.org/2000/svg" xmlns:xlink="http://www.w3.org/1999/xlink" viewBox="0 0 97 97">
  <defs>
    <style>
      .cls-1 {
        fill: #5e4aa2;
      }

      .cls-2 {
        fill: #fff;
      }

      .cls-3 {
        filter: url(#Ellipse_3);
      }
    </style>
    <filter id="Ellipse_3" x="0" y="0" width="97" height="97" filterUnits="userSpaceOnUse">
      <feOffset dy="3" input="SourceAlpha"/>
      <feGaussianBlur stdDeviation="7.5" result="blur"/>
      <feFlood flood-opacity="0.161"/>
      <feComposite operator="in" in2="blur"/>
      <feComposite in="SourceGraphic"/>
    </filter>
  </defs>
  <g id="Group_79" data-name="Group 79" transform="translate(-1617.5 -7071.5)">
    <g id="Group_78" data-name="Group 78" transform="translate(1640 7091)">
      <g class="cls-3" transform="matrix(1, 0, 0, 1, -22.5, -19.5)">
        <circle id="Ellipse_3-2" data-name="Ellipse 3" class="cls-1" cx="26" cy="26" r="26" transform="translate(22.5 19.5)"/>
      </g>
    </g>
    <g id="euro-symbol" transform="translate(1655.021 7105.054)">
      <path id="Path_101" data-name="Path 101" class="cls-2" d="M19.833,19.1a10.139,10.139,0,0,1-4.162.949,6.1,6.1,0,0,1-4.711-1.864,5.714,5.714,0,0,1-1.206-2.556h9.168V13.035H9.245V12.45c0-.4,0-.764.034-1.132h9.644V8.726H9.829A5.564,5.564,0,0,1,11,6.353a5.643,5.643,0,0,1,4.456-1.974,11.007,11.007,0,0,1,4.088.877l1.02-4.162A14,14,0,0,0,15.085,0,10.842,10.842,0,0,0,6.652,3.762a11.1,11.1,0,0,0-2.52,4.965H1.684v2.591H3.731c0,.368-.038.732-.038,1.1v.62H1.684v2.594H4.06A10.242,10.242,0,0,0,6.1,20.374a10.938,10.938,0,0,0,8.907,4.163,12.335,12.335,0,0,0,5.7-1.384Z" transform="translate(-1.684)"/>
    </g>
  </g>
</svg>
