<svg xmlns="http://www.w3.org/2000/svg" xmlns:xlink="http://www.w3.org/1999/xlink" viewBox="0 0 97 97">
  <defs>
    <style>
      .cls-1 {
        fill: #6ecf66;
      }

      .cls-2 {
        fill: #fff;
      }

      .cls-3 {
        filter: url(#Ellipse_3);
      }
    </style>
    <filter id="Ellipse_3" x="0" y="0" width="97" height="97" filterUnits="userSpaceOnUse">
      <feOffset dy="3" input="SourceAlpha"/>
      <feGaussianBlur stdDeviation="7.5" result="blur"/>
      <feFlood flood-opacity="0.161"/>
      <feComposite operator="in" in2="blur"/>
      <feComposite in="SourceGraphic"/>
    </filter>
  </defs>
  <g id="Group_38" data-name="Group 38" transform="translate(-1493.5 -6954.5)">
    <g class="cls-3" transform="matrix(1, 0, 0, 1, 1493.5, 6954.5)">
      <circle id="Ellipse_3-2" data-name="Ellipse 3" class="cls-1" cx="26" cy="26" r="26" transform="translate(22.5 19.5)"/>
    </g>
    <g id="dollar-symbol_1_" data-name="dollar-symbol (1)" transform="translate(1536.184 6988.35)">
      <path id="Path_64" data-name="Path 64" class="cls-2" d="M134.753,14.4a4.77,4.77,0,0,0-.416-1.009,3.415,3.415,0,0,0-.7-.838,8.355,8.355,0,0,0-.818-.66,7.979,7.979,0,0,0-1-.561q-.633-.31-1-.462t-1.069-.416q-.62-.237-.924-.363t-.8-.356a4.654,4.654,0,0,1-.739-.409,5.81,5.81,0,0,1-.521-.435,1.486,1.486,0,0,1-.389-.548,1.775,1.775,0,0,1,.68-2.1,3.432,3.432,0,0,1,2.046-.567,4.4,4.4,0,0,1,1.128.152,5.9,5.9,0,0,1,.983.343,6.827,6.827,0,0,1,.772.422q.363.231.515.35c.1.079.165.132.191.158a.421.421,0,0,0,.356.092.36.36,0,0,0,.3-.211l1.069-1.927a.382.382,0,0,0-.066-.5c-.053-.053-.119-.114-.2-.185s-.251-.2-.515-.383a6.37,6.37,0,0,0-.838-.495,8.476,8.476,0,0,0-1.149-.442,7.321,7.321,0,0,0-1.458-.3V.422A.406.406,0,0,0,129.777,0H128a.406.406,0,0,0-.3.125.406.406,0,0,0-.125.3V2.8a6.039,6.039,0,0,0-3.366,1.769,4.513,4.513,0,0,0-1.293,3.194,4.583,4.583,0,0,0,.112,1.029,5.268,5.268,0,0,0,.277.878,3.231,3.231,0,0,0,.469.766,8.2,8.2,0,0,0,.574.647,4.661,4.661,0,0,0,.706.561q.436.291.746.469t.825.409q.515.231.812.35t.812.33q.713.277,1.056.429t.871.422a3.616,3.616,0,0,1,.772.495,2.48,2.48,0,0,1,.442.554,1.337,1.337,0,0,1,.2.7,1.848,1.848,0,0,1-.812,1.61,3.2,3.2,0,0,1-1.881.568,4.611,4.611,0,0,1-.977-.105,6.9,6.9,0,0,1-3.207-1.65l-.026-.026a.327.327,0,0,0-.317-.118.41.41,0,0,0-.3.159L122.7,18.015a.4.4,0,0,0,.026.541q.066.079.231.238a7.635,7.635,0,0,0,.614.5,8.1,8.1,0,0,0,2.316,1.221,8.333,8.333,0,0,0,1.683.409v2.31a.428.428,0,0,0,.422.422h1.782a.406.406,0,0,0,.422-.422v-2.31a5.667,5.667,0,0,0,3.412-1.8,5.021,5.021,0,0,0,1.313-3.478A4.339,4.339,0,0,0,134.753,14.4Z" transform="translate(-122.611)"/>
    </g>
  </g>
</svg>
