<svg xmlns="http://www.w3.org/2000/svg" xmlns:xlink="http://www.w3.org/1999/xlink" viewBox="0 0 97 97">
  <defs>
    <style>
      .cls-1, .cls-2 {
        fill: none;
      }

      .cls-2 {
        clip-rule: evenodd;
      }

      .cls-3 {
        fill: #505888;
      }

      .cls-4 {
        clip-path: url(#clip-path);
      }

      .cls-5 {
        fill: #fff;
      }

      .cls-6 {
        clip-path: url(#clip-path-2);
      }

      .cls-7 {
        filter: url(#Ellipse_3);
      }
    </style>
    <filter id="Ellipse_3" x="0" y="0" width="97" height="97" filterUnits="userSpaceOnUse">
      <feOffset dy="3" input="SourceAlpha"/>
      <feGaussianBlur stdDeviation="7.5" result="blur"/>
      <feFlood flood-opacity="0.161"/>
      <feComposite operator="in" in2="blur"/>
      <feComposite in="SourceGraphic"/>
    </filter>
    <clipPath id="clip-path">
      <path id="Path_97" data-name="Path 97" class="cls-1" d="M21.056-9.038,33.12-15.964,21.056.556,9-15.964,21.056-9.038Z" transform="translate(-9 15.964)"/>
    </clipPath>
    <clipPath id="clip-path-2">
      <path id="Path_99" data-name="Path 99" class="cls-2" d="M9-10.479,20.842-29v13.49Zm.277.343,11.552-4.95v11.3Zm23.552,0L21.278-3.781v-11.3Zm.29-.343L21.278-15.51V-29Z" transform="translate(-9 29)"/>
    </clipPath>
  </defs>
  <g id="Group_76" data-name="Group 76" transform="translate(-1487.5 -7174.5)">
    <g id="Group_70" data-name="Group 70" transform="translate(1510 7194)">
      <g class="cls-7" transform="matrix(1, 0, 0, 1, -22.5, -19.5)">
        <circle id="Ellipse_3-2" data-name="Ellipse 3" class="cls-3" cx="26" cy="26" r="26" transform="translate(22.5 19.5)"/>
      </g>
    </g>
    <g id="Group_71" data-name="Group 71" class="cls-4" transform="translate(1523.217 7221.901)">
      <path id="Path_96" data-name="Path 96" class="cls-5" d="M4-20.964H43.195v31.6H4Z" transform="translate(-11.537 13.427)"/>
    </g>
    <g id="Group_72" data-name="Group 72" class="cls-6" transform="translate(1523.217 7201.504)">
      <path id="Path_98" data-name="Path 98" class="cls-5" d="M4-34H43.195V6.294H4Z" transform="translate(-11.537 26.463)"/>
    </g>
  </g>
</svg>
