<?xml version="1.0" encoding="UTF-8"?>
<svg width="184px" height="50px" viewBox="0 0 184 50" version="1.1" xmlns="http://www.w3.org/2000/svg" xmlns:xlink="http://www.w3.org/1999/xlink">
    <!-- Generator: Sketch 52.2 (67145) - http://www.bohemiancoding.com/sketch -->
    <title>@1xapp store</title>
    <desc>Created with Sketch.</desc>
    <g id="Zam" stroke="none" stroke-width="1" fill="none" fill-rule="evenodd">
        <g id="Thank-you-page" transform="translate(-628.000000, -1314.000000)">
            <g id="app-store" transform="translate(628.000000, 1314.000000)">
                <rect id="Rectangle-path" fill="#282E66" fill-rule="nonzero" x="0" y="0" width="184" height="50" rx="5"></rect>
                <g id="apple-download" transform="translate(14.000000, 6.000000)" fill="#FFFFFF">
                    <g id="icon" transform="translate(0.000000, 3.000000)">
                        <path d="M18.1524144,4.83762807 C19.3290411,3.55203289 20.1863655,1.78337917 19.9650851,0 C18.2072773,0.0566609428 16.1140743,1.01477508 14.8672231,2.30869333 C13.7439963,3.42334532 12.7688995,5.26178484 13.0483346,6.99138413 C14.959027,7.10214507 16.9231194,6.13186644 18.1524144,4.83762807" id="Fill-1"></path>
                        <path d="M23.2438919,18.5245135 L23.2167885,18.476772 C22.6898562,17.5107268 22.4497976,16.0006204 22.6514891,14.7772836 L22.6514891,14.731785 L22.6528971,14.731785 C22.8640924,13.12972 23.997507,11.4904871 24.9035348,10.8958006 C24.9144466,10.8887515 24.9267663,10.8804208 24.939086,10.8714492 L24.939086,10.8679247 L24.94155,10.8679247 C25.1425375,10.6660645 25.7152287,10.2476051 26.1020681,9.99383805 C24.673332,8.08033166 22.3339922,7.04828142 19.9517094,7.01495846 C17.549363,6.83136182 15.0562027,8.39914259 13.7119447,8.36325633 C12.4113338,8.39914259 10.4465136,6.98419882 8.37327994,7.07359404 L8.3528644,7.07071033 C8.30640144,7.07071033 7.93293777,7.08961469 7.93293777,7.08961469 C5.18493514,7.15113399 2.74879754,8.62535416 1.36546843,10.8605552 L1.36546843,10.8679247 L1.35702062,10.8679247 L1.35702062,10.8605552 C0.80967284,11.6660735 0.153207499,13.5436936 0.055353684,14.731785 L0.055353684,14.7949063 C-0.0769953606,15.5488381 0.0507777862,17.558148 0.199670461,18.5245135 C0.20600632,18.5414954 0.207414288,18.5587977 0.208822257,18.5725755 L0.211990186,18.570653 C0.328147592,19.5338145 0.865287598,21.3950935 1.2683186,22.3050664 L1.2683186,22.3130767 L1.26620665,22.3130767 C1.65269401,23.3188531 2.73330988,25.2051244 3.43060631,26.1692471 L3.43060631,26.1762962 L3.43799815,26.1762962 C4.84667069,28.0173892 6.50490566,30.0862959 8.69112884,29.9972211 C10.8030817,29.9241669 11.5806323,28.7200549 14.1244795,28.7389593 C16.6669187,28.7200549 17.370551,29.9398672 19.5986613,29.9485183 C21.8700666,29.8597639 23.2776831,28.0199525 24.6870596,26.1762962 C25.3769642,25.2262717 26.4593401,23.3983155 26.8419555,22.3130767 L26.8472354,22.3130767 C26.8901785,22.1986893 26.954593,22.0221418 27,21.8939766 C25.5061454,21.5081993 23.8303108,19.7174111 23.2438919,18.5245135" id="Fill-3"></path>
                    </g>
                    <path d="M45.8671875,9.39941406 C46.228843,9.39941406 46.5260405,9.36181678 46.7587891,9.28662109 C47.1741557,9.14697196 47.5143216,8.87841996 47.7792969,8.48095703 C47.990561,8.16227054 48.1427404,7.7540715 48.2358398,7.25634766 C48.289551,6.95914565 48.3164062,6.68343226 48.3164062,6.42919922 C48.3164062,5.45165527 48.1221536,4.69254828 47.7336426,4.15185547 C47.3451315,3.61116266 46.7194054,3.34082031 45.8564453,3.34082031 L43.9604492,3.34082031 L43.9604492,9.39941406 L45.8671875,9.39941406 Z M42.8862305,2.42236328 L46.0820312,2.42236328 C47.1669976,2.42236328 48.0084606,2.80728782 48.6064453,3.57714844 C49.1399766,4.27181337 49.4067383,5.16161567 49.4067383,6.24658203 C49.4067383,7.08447685 49.2491878,7.84179349 48.934082,8.51855469 C48.3790662,9.71452421 47.4248115,10.3125 46.0712891,10.3125 L42.8862305,10.3125 L42.8862305,2.42236328 Z M52.9355469,9.68945312 C53.5765006,9.68945312 54.0160307,9.44686115 54.2541504,8.96166992 C54.4922701,8.47647869 54.6113281,7.93668917 54.6113281,7.34228516 C54.6113281,6.8051731 54.5253915,6.36832851 54.3535156,6.03173828 C54.0813788,5.50178771 53.612308,5.23681641 52.9462891,5.23681641 C52.3554658,5.23681641 51.9257826,5.46240009 51.6572266,5.91357422 C51.3886705,6.36474835 51.2543945,6.90901374 51.2543945,7.54638672 C51.2543945,8.15869447 51.3886705,8.66894327 51.6572266,9.07714844 C51.9257826,9.4853536 52.3518851,9.68945312 52.9355469,9.68945312 Z M52.9731445,4.39355469 C53.7143592,4.39355469 54.3409805,4.64062253 54.8530273,5.13476562 C55.3650742,5.62890872 55.6210938,6.35578947 55.6210938,7.31542969 C55.6210938,8.24284318 55.3955101,9.00911156 54.9443359,9.61425781 C54.4931618,10.2194041 53.7931363,10.5219727 52.8442383,10.5219727 C52.0528932,10.5219727 51.4244815,10.2543158 50.9589844,9.71899414 C50.4934873,9.18367245 50.2607422,8.46484826 50.2607422,7.5625 C50.2607422,6.59569829 50.5060197,5.82584922 50.996582,5.25292969 C51.4871444,4.68001016 52.145992,4.39355469 52.9731445,4.39355469 Z M57.2163086,4.56005859 L58.3227539,9.09326172 L59.4453125,4.56005859 L60.5302734,4.56005859 L61.6582031,9.06640625 L62.8344727,4.56005859 L63.8012695,4.56005859 L62.1308594,10.3125 L61.1264648,10.3125 L59.9555664,5.85986328 L58.8222656,10.3125 L57.8178711,10.3125 L56.1582031,4.56005859 L57.2163086,4.56005859 Z M64.7143555,4.56005859 L65.6328125,4.56005859 L65.6328125,5.37646484 C65.9049493,5.03987462 66.1931951,4.79817782 66.4975586,4.65136719 C66.8019221,4.50455656 67.1402976,4.43115234 67.5126953,4.43115234 C68.3291056,4.43115234 68.8805324,4.71581747 69.1669922,5.28515625 C69.3245451,5.59668125 69.4033203,6.04247757 69.4033203,6.62255859 L69.4033203,10.3125 L68.4204102,10.3125 L68.4204102,6.68701172 C68.4204102,6.33609851 68.3684901,6.05322373 68.2646484,5.83837891 C68.0927726,5.4803042 67.7812523,5.30126953 67.3300781,5.30126953 C67.1009103,5.30126953 66.9129239,5.32454404 66.7661133,5.37109375 C66.501138,5.44987019 66.2683929,5.60742069 66.0678711,5.84375 C65.9067375,6.03352959 65.8020022,6.22957256 65.7536621,6.43188477 C65.705322,6.63419698 65.6811523,6.92333796 65.6811523,7.29931641 L65.6811523,10.3125 L64.7143555,10.3125 L64.7143555,4.56005859 Z M70.8588867,2.42236328 L71.8256836,2.42236328 L71.8256836,10.3125 L70.8588867,10.3125 L70.8588867,2.42236328 Z M75.5585938,9.68945312 C76.1995475,9.68945312 76.6390776,9.44686115 76.8771973,8.96166992 C77.1153169,8.47647869 77.234375,7.93668917 77.234375,7.34228516 C77.234375,6.8051731 77.1484384,6.36832851 76.9765625,6.03173828 C76.7044257,5.50178771 76.2353549,5.23681641 75.5693359,5.23681641 C74.9785127,5.23681641 74.5488295,5.46240009 74.2802734,5.91357422 C74.0117174,6.36474835 73.8774414,6.90901374 73.8774414,7.54638672 C73.8774414,8.15869447 74.0117174,8.66894327 74.2802734,9.07714844 C74.5488295,9.4853536 74.974932,9.68945312 75.5585938,9.68945312 Z M75.5961914,4.39355469 C76.337406,4.39355469 76.9640274,4.64062253 77.4760742,5.13476562 C77.988121,5.62890872 78.2441406,6.35578947 78.2441406,7.31542969 C78.2441406,8.24284318 78.0185569,9.00911156 77.5673828,9.61425781 C77.1162087,10.2194041 76.4161831,10.5219727 75.4672852,10.5219727 C74.6759401,10.5219727 74.0475284,10.2543158 73.5820312,9.71899414 C73.1165341,9.18367245 72.8837891,8.46484826 72.8837891,7.5625 C72.8837891,6.59569829 73.1290666,5.82584922 73.6196289,5.25292969 C74.1101913,4.68001016 74.7690388,4.39355469 75.5961914,4.39355469 Z M80.1347656,8.78173828 C80.1347656,9.06103655 80.2368154,9.28124919 80.440918,9.44238281 C80.6450206,9.60351643 80.8867174,9.68408203 81.1660156,9.68408203 C81.5061866,9.68408203 81.8356104,9.60530678 82.1542969,9.44775391 C82.6914089,9.18635937 82.9599609,8.75846651 82.9599609,8.1640625 L82.9599609,7.38525391 C82.8417963,7.46044959 82.6896168,7.52311173 82.503418,7.57324219 C82.3172191,7.62337265 82.1346038,7.65917958 81.9555664,7.68066406 L81.3701172,7.75585938 C81.019204,7.80240909 80.756023,7.8758133 80.5805664,7.97607422 C80.2833644,8.14436933 80.1347656,8.41292133 80.1347656,8.78173828 Z M82.4765625,6.82666016 C82.6985688,6.79801418 82.8471676,6.70491615 82.9223633,6.54736328 C82.9653322,6.46142535 82.9868164,6.33789143 82.9868164,6.17675781 C82.9868164,5.84732908 82.8695487,5.6083178 82.6350098,5.4597168 C82.4004708,5.31111579 82.0647808,5.23681641 81.6279297,5.23681641 C81.1230444,5.23681641 80.764975,5.37288275 80.5537109,5.64501953 C80.4355463,5.79541091 80.3585614,6.01920424 80.3227539,6.31640625 L79.4204102,6.31640625 C79.4383139,5.60741833 79.6683734,5.11417782 80.1105957,4.83666992 C80.552818,4.55916202 81.0657523,4.42041016 81.6494141,4.42041016 C82.3261753,4.42041016 82.8758117,4.54931512 83.2983398,4.80712891 C83.7172873,5.0649427 83.9267578,5.46598035 83.9267578,6.01025391 L83.9267578,9.32421875 C83.9267578,9.42447967 83.9473468,9.50504527 83.9885254,9.56591797 C84.029704,9.62679067 84.1165358,9.65722656 84.2490234,9.65722656 C84.2919924,9.65722656 84.3403318,9.65454104 84.394043,9.64916992 C84.4477542,9.6437988 84.5050453,9.63574224 84.565918,9.625 L84.565918,10.3393555 C84.4155266,10.3823244 84.3009444,10.4091796 84.222168,10.4199219 C84.1433915,10.4306641 84.0359707,10.4360352 83.8999023,10.4360352 C83.5668929,10.4360352 83.3251961,10.3178723 83.1748047,10.081543 C83.0960283,9.95621682 83.0405275,9.7789725 83.0083008,9.54980469 C82.8113597,9.80761848 82.5284849,10.0314118 82.159668,10.2211914 C81.790851,10.410971 81.3844423,10.5058594 80.9404297,10.5058594 C80.4068984,10.5058594 79.970949,10.343833 79.6325684,10.0197754 C79.2941878,9.69571778 79.125,9.29020426 79.125,8.80322266 C79.125,8.26969134 79.2915022,7.85612126 79.6245117,7.5625 C79.9575212,7.26887874 80.3943658,7.08805373 80.9350586,7.02001953 L82.4765625,6.82666016 Z M86.1235352,7.50341797 C86.1235352,8.11930646 86.2542305,8.63492631 86.515625,9.05029297 C86.7770195,9.46565963 87.1959607,9.67333984 87.7724609,9.67333984 C88.2200543,9.67333984 88.5879706,9.48087758 88.8762207,9.09594727 C89.1644708,8.71101696 89.3085938,8.158695 89.3085938,7.43896484 C89.3085938,6.71207319 89.159995,6.17407401 88.862793,5.82495117 C88.565591,5.47582833 88.1985699,5.30126953 87.7617188,5.30126953 C87.2747371,5.30126953 86.8799657,5.48746559 86.5773926,5.85986328 C86.2748195,6.23226098 86.1235352,6.78010706 86.1235352,7.50341797 Z M87.5791016,4.45800781 C88.0195335,4.45800781 88.3883449,4.55110584 88.6855469,4.73730469 C88.8574227,4.8447271 89.0525705,5.0327135 89.2709961,5.30126953 L89.2709961,2.39550781 L90.2001953,2.39550781 L90.2001953,10.3125 L89.3300781,10.3125 L89.3300781,9.51220703 C89.1044911,9.86670099 88.8377294,10.1227206 88.5297852,10.2802734 C88.2218409,10.4378263 87.8691426,10.5166016 87.4716797,10.5166016 C86.830726,10.5166016 86.2757185,10.2471544 85.8066406,9.70825195 C85.3375628,9.16934952 85.1030273,8.45231567 85.1030273,7.55712891 C85.1030273,6.71923409 85.3169738,5.99324851 85.744873,5.37915039 C86.1727723,4.76505227 86.7841757,4.45800781 87.5791016,4.45800781 Z M96.9677734,9.68945312 C97.6087272,9.68945312 98.0482573,9.44686115 98.286377,8.96166992 C98.5244966,8.47647869 98.6435547,7.93668917 98.6435547,7.34228516 C98.6435547,6.8051731 98.557618,6.36832851 98.3857422,6.03173828 C98.1136054,5.50178771 97.6445346,5.23681641 96.9785156,5.23681641 C96.3876924,5.23681641 95.9580092,5.46240009 95.6894531,5.91357422 C95.4208971,6.36474835 95.2866211,6.90901374 95.2866211,7.54638672 C95.2866211,8.15869447 95.4208971,8.66894327 95.6894531,9.07714844 C95.9580092,9.4853536 96.3841117,9.68945312 96.9677734,9.68945312 Z M97.0053711,4.39355469 C97.7465857,4.39355469 98.3732071,4.64062253 98.8852539,5.13476562 C99.3973007,5.62890872 99.6533203,6.35578947 99.6533203,7.31542969 C99.6533203,8.24284318 99.4277366,9.00911156 98.9765625,9.61425781 C98.5253884,10.2194041 97.8253628,10.5219727 96.8764648,10.5219727 C96.0851197,10.5219727 95.4567081,10.2543158 94.9912109,9.71899414 C94.5257138,9.18367245 94.2929688,8.46484826 94.2929688,7.5625 C94.2929688,6.59569829 94.5382462,5.82584922 95.0288086,5.25292969 C95.5193709,4.68001016 96.1782185,4.39355469 97.0053711,4.39355469 Z M100.802734,4.56005859 L101.721191,4.56005859 L101.721191,5.37646484 C101.993328,5.03987462 102.281574,4.79817782 102.585938,4.65136719 C102.890301,4.50455656 103.228677,4.43115234 103.601074,4.43115234 C104.417485,4.43115234 104.968911,4.71581747 105.255371,5.28515625 C105.412924,5.59668125 105.491699,6.04247757 105.491699,6.62255859 L105.491699,10.3125 L104.508789,10.3125 L104.508789,6.68701172 C104.508789,6.33609851 104.456869,6.05322373 104.353027,5.83837891 C104.181151,5.4803042 103.869631,5.30126953 103.418457,5.30126953 C103.189289,5.30126953 103.001303,5.32454404 102.854492,5.37109375 C102.589517,5.44987019 102.356772,5.60742069 102.15625,5.84375 C101.995116,6.03352959 101.890381,6.22957256 101.842041,6.43188477 C101.793701,6.63419698 101.769531,6.92333796 101.769531,7.29931641 L101.769531,10.3125 L100.802734,10.3125 L100.802734,4.56005859 Z M110.169922,2.95410156 L111.147461,2.95410156 L111.147461,4.56005859 L112.065918,4.56005859 L112.065918,5.34960938 L111.147461,5.34960938 L111.147461,9.10400391 C111.147461,9.30452574 111.215494,9.43880174 111.351562,9.50683594 C111.426758,9.54622416 111.552082,9.56591797 111.727539,9.56591797 C111.774089,9.56591797 111.824218,9.5650228 111.87793,9.56323242 C111.931641,9.56144205 111.994303,9.55696618 112.065918,9.54980469 L112.065918,10.3125 C111.954915,10.3447267 111.839437,10.3680012 111.719482,10.3823242 C111.599527,10.3966472 111.469727,10.4038086 111.330078,10.4038086 C110.878904,10.4038086 110.572755,10.2883312 110.411621,10.057373 C110.250487,9.82641486 110.169922,9.52653179 110.169922,9.15771484 L110.169922,5.34960938 L109.391113,5.34960938 L109.391113,4.56005859 L110.169922,4.56005859 L110.169922,2.95410156 Z M113.032715,2.39550781 L113.999512,2.39550781 L113.999512,5.33886719 C114.22868,5.04882667 114.434569,4.84472715 114.617188,4.7265625 C114.928712,4.52245992 115.317218,4.42041016 115.782715,4.42041016 C116.617029,4.42041016 117.182778,4.71223667 117.47998,5.29589844 C117.641114,5.61458493 117.72168,6.05680056 117.72168,6.62255859 L117.72168,10.3125 L116.728027,10.3125 L116.728027,6.68701172 C116.728027,6.26448356 116.674317,5.95475359 116.566895,5.7578125 C116.391438,5.44270676 116.062014,5.28515625 115.578613,5.28515625 C115.17757,5.28515625 114.814129,5.42301294 114.488281,5.69873047 C114.162433,5.97444799 113.999512,6.49543888 113.999512,7.26171875 L113.999512,10.3125 L113.032715,10.3125 L113.032715,2.39550781 Z M121.545898,4.43115234 C121.954104,4.43115234 122.34977,4.52693589 122.73291,4.71850586 C123.11605,4.91007583 123.407877,5.15803884 123.608398,5.46240234 C123.801759,5.75244286 123.930664,6.09081838 123.995117,6.47753906 C124.052409,6.74251435 124.081055,7.16503616 124.081055,7.74511719 L119.864746,7.74511719 C119.88265,8.32877896 120.020507,8.79695462 120.27832,9.1496582 C120.536134,9.50236179 120.935381,9.67871094 121.476074,9.67871094 C121.98096,9.67871094 122.383788,9.5122087 122.68457,9.17919922 C122.856446,8.98583888 122.97819,8.76204554 123.049805,8.5078125 L124.000488,8.5078125 C123.975423,8.71907658 123.892172,8.95450717 123.750732,9.21411133 C123.609293,9.47371549 123.450847,9.68587157 123.275391,9.85058594 C122.981769,10.1370457 122.618329,10.3304031 122.185059,10.4306641 C121.95231,10.487956 121.689129,10.5166016 121.395508,10.5166016 C120.679358,10.5166016 120.072431,10.2561061 119.574707,9.73510742 C119.076983,9.21410872 118.828125,8.48454245 118.828125,7.54638672 C118.828125,6.62255397 119.078774,5.87239872 119.580078,5.29589844 C120.081383,4.71939816 120.73665,4.43115234 121.545898,4.43115234 Z M123.087402,6.97705078 C123.048014,6.55810337 122.956706,6.22330854 122.813477,5.97265625 C122.548501,5.50715913 122.106286,5.27441406 121.486816,5.27441406 C121.042804,5.27441406 120.670412,5.43465009 120.369629,5.75512695 C120.068846,6.07560382 119.909505,6.48290769 119.891602,6.97705078 L123.087402,6.97705078 Z M51.3310547,27.1396484 L49.0444336,20.4848633 L46.6142578,27.1396484 L51.3310547,27.1396484 Z M47.9780273,18.2495117 L50.2851562,18.2495117 L55.7504883,33.3125 L53.5151367,33.3125 L51.9873047,28.8007812 L46.0297852,28.8007812 L44.3994141,33.3125 L42.3076172,33.3125 L47.9780273,18.2495117 Z M61.9951172,32.0717773 C62.8564496,32.0717773 63.5725069,31.7111852 64.1433105,30.9899902 C64.7141142,30.2687952 64.9995117,29.1904369 64.9995117,27.7548828 C64.9995117,26.8798784 64.8730481,26.1279328 64.6201172,25.4990234 C64.1415992,24.2890565 63.2666079,23.684082 61.9951172,23.684082 C60.7167905,23.684082 59.8417992,24.3232358 59.3701172,25.6015625 C59.1171862,26.2851597 58.9907227,27.153315 58.9907227,28.2060547 C58.9907227,29.0537152 59.1171862,29.7748994 59.3701172,30.3696289 C59.8486352,31.5044002 60.7236265,32.0717773 61.9951172,32.0717773 Z M57.2167969,22.3818359 L59.0112305,22.3818359 L59.0112305,23.8378906 C59.3803729,23.3388647 59.7836892,22.9526381 60.2211914,22.6791992 C60.8432648,22.2690409 61.5747028,22.0639648 62.4155273,22.0639648 C63.6596742,22.0639648 64.715816,22.5407667 65.5839844,23.4943848 C66.4521528,24.4480028 66.8862305,25.8100497 66.8862305,27.5805664 C66.8862305,29.9731565 66.2607484,31.6821238 65.0097656,32.7075195 C64.2167929,33.3569368 63.2939506,33.6816406 62.2412109,33.6816406 C61.4140584,33.6816406 60.7202176,33.5004901 60.159668,33.1381836 C59.8315413,32.9331044 59.4658223,32.5810572 59.0625,32.0820312 L59.0625,37.690918 L57.2167969,37.690918 L57.2167969,22.3818359 Z M73.6743164,32.0717773 C74.5356488,32.0717773 75.2517061,31.7111852 75.8225098,30.9899902 C76.3933134,30.2687952 76.6787109,29.1904369 76.6787109,27.7548828 C76.6787109,26.8798784 76.5522474,26.1279328 76.2993164,25.4990234 C75.8207984,24.2890565 74.9458071,23.684082 73.6743164,23.684082 C72.3959897,23.684082 71.5209985,24.3232358 71.0493164,25.6015625 C70.7963855,26.2851597 70.6699219,27.153315 70.6699219,28.2060547 C70.6699219,29.0537152 70.7963855,29.7748994 71.0493164,30.3696289 C71.5278344,31.5044002 72.4028257,32.0717773 73.6743164,32.0717773 Z M68.8959961,22.3818359 L70.6904297,22.3818359 L70.6904297,23.8378906 C71.0595722,23.3388647 71.4628884,22.9526381 71.9003906,22.6791992 C72.522464,22.2690409 73.253902,22.0639648 74.0947266,22.0639648 C75.3388734,22.0639648 76.3950152,22.5407667 77.2631836,23.4943848 C78.131352,24.4480028 78.5654297,25.8100497 78.5654297,27.5805664 C78.5654297,29.9731565 77.9399477,31.6821238 76.6889648,32.7075195 C75.8959921,33.3569368 74.9731498,33.6816406 73.9204102,33.6816406 C73.0932576,33.6816406 72.3994169,33.5004901 71.8388672,33.1381836 C71.5107405,32.9331044 71.1450215,32.5810572 70.7416992,32.0820312 L70.7416992,37.690918 L68.8959961,37.690918 L68.8959961,22.3818359 Z M88.1323242,28.4521484 C88.180176,29.3066449 88.3818342,30.0004856 88.7373047,30.5336914 C89.4140659,31.5317433 90.606925,32.0307617 92.315918,32.0307617 C93.0815468,32.0307617 93.7788054,31.9213878 94.4077148,31.7026367 C95.6245178,31.2788065 96.2329102,30.520025 96.2329102,29.4262695 C96.2329102,28.6059529 95.9765651,28.0214861 95.4638672,27.6728516 C94.9443333,27.331053 94.1308649,27.0336927 93.0234375,26.7807617 L90.9829102,26.3193359 C89.6498957,26.0185532 88.7065457,25.6870135 88.152832,25.324707 C87.195796,24.6957976 86.7172852,23.7558656 86.7172852,22.5048828 C86.7172852,21.1513604 87.1855422,20.0405317 88.1220703,19.1723633 C89.0585984,18.3041949 90.384757,17.8701172 92.1005859,17.8701172 C93.6796954,17.8701172 95.0212347,18.2512169 96.1252441,19.0134277 C97.2292536,19.7756386 97.78125,20.9941323 97.78125,22.6689453 L95.8637695,22.6689453 C95.76123,21.8623007 95.5424821,21.2436545 95.2075195,20.8129883 C94.5854461,20.0268515 93.5293043,19.6337891 92.0390625,19.6337891 C90.8359315,19.6337891 89.971194,19.8867162 89.4448242,20.3925781 C88.9184544,20.89844 88.6552734,21.4863248 88.6552734,22.15625 C88.6552734,22.8945349 88.9628875,23.4345686 89.578125,23.7763672 C89.9814473,23.9951183 90.8940359,24.268553 92.315918,24.5966797 L94.4282227,25.0786133 C95.4467824,25.3110363 96.2329074,25.6289042 96.7866211,26.0322266 C97.7436571,26.7363316 98.222168,27.7582941 98.222168,29.0981445 C98.222168,30.7661216 97.6154846,31.9589808 96.4020996,32.6767578 C95.1887146,33.3945348 93.7788166,33.753418 92.1723633,33.753418 C90.299307,33.753418 88.8330131,33.2749071 87.7734375,32.3178711 C86.7138619,31.367671 86.1943358,30.0791097 86.2148438,28.4521484 L88.1323242,28.4521484 Z M100.929199,19.2646484 L102.79541,19.2646484 L102.79541,22.3305664 L104.548828,22.3305664 L104.548828,23.8378906 L102.79541,23.8378906 L102.79541,31.0053711 C102.79541,31.3881855 102.925292,31.6445306 103.185059,31.7744141 C103.328614,31.8496098 103.567869,31.887207 103.902832,31.887207 C103.9917,31.887207 104.087402,31.8854981 104.189941,31.8820801 C104.292481,31.8786621 104.412109,31.8701173 104.548828,31.8564453 L104.548828,33.3125 C104.336913,33.3740237 104.116456,33.4184569 103.887451,33.4458008 C103.658446,33.4731447 103.410646,33.4868164 103.144043,33.4868164 C102.282711,33.4868164 101.698244,33.2663596 101.390625,32.8254395 C101.083006,32.3845193 100.929199,31.8120152 100.929199,31.1079102 L100.929199,23.8378906 L99.4423828,23.8378906 L99.4423828,22.3305664 L100.929199,22.3305664 L100.929199,19.2646484 Z M110.752441,32.1230469 C111.97608,32.1230469 112.815183,31.6599167 113.269775,30.7336426 C113.724368,29.8073684 113.95166,28.7768611 113.95166,27.6420898 C113.95166,26.6166941 113.787599,25.7827181 113.459473,25.1401367 C112.939939,24.1284129 112.04444,23.6225586 110.772949,23.6225586 C109.645014,23.6225586 108.82471,24.0532183 108.312012,24.9145508 C107.799314,25.7758832 107.542969,26.8149353 107.542969,28.0317383 C107.542969,29.2006894 107.799314,30.1748008 108.312012,30.9541016 C108.82471,31.7334023 109.638178,32.1230469 110.752441,32.1230469 Z M110.824219,22.0126953 C112.239265,22.0126953 113.435542,22.4843703 114.413086,23.4277344 C115.39063,24.3710985 115.879395,25.7587799 115.879395,27.5908203 C115.879395,29.361337 115.448735,30.824213 114.587402,31.9794922 C113.72607,33.1347714 112.389657,33.7124023 110.578125,33.7124023 C109.067375,33.7124023 107.86768,33.2014211 106.979004,32.1794434 C106.090328,31.1574656 105.645996,29.7851649 105.645996,28.0625 C105.645996,26.2167876 106.114253,24.7470758 107.050781,23.6533203 C107.987309,22.5595648 109.245109,22.0126953 110.824219,22.0126953 Z M118.125,22.3305664 L119.878418,22.3305664 L119.878418,24.2275391 C120.021973,23.8583966 120.374021,23.4089382 120.93457,22.8791504 C121.49512,22.3493626 122.14111,22.0844727 122.872559,22.0844727 C122.906738,22.0844727 122.964843,22.0878906 123.046875,22.0947266 C123.128907,22.1015625 123.269042,22.1152343 123.467285,22.1357422 L123.467285,24.0839844 C123.35791,24.0634765 123.257081,24.0498047 123.164795,24.0429688 C123.072509,24.0361328 122.97168,24.0327148 122.862305,24.0327148 C121.932613,24.0327148 121.218264,24.3317841 120.719238,24.9299316 C120.220212,25.5280792 119.970703,26.216793 119.970703,26.9960938 L119.970703,33.3125 L118.125,33.3125 L118.125,22.3305664 Z M129.640137,22.0844727 C130.419437,22.0844727 131.174801,22.2673322 131.90625,22.6330566 C132.637699,22.9987811 133.194822,23.4721651 133.577637,24.0532227 C133.946779,24.6069364 134.19287,25.252926 134.315918,25.9912109 C134.425294,26.4970728 134.47998,27.3037054 134.47998,28.4111328 L126.430664,28.4111328 C126.464844,29.5253962 126.728025,30.4191861 127.220215,31.0925293 C127.712405,31.7658725 128.474604,32.1025391 129.506836,32.1025391 C130.470708,32.1025391 131.239743,31.7846711 131.813965,31.1489258 C132.142091,30.7797833 132.374511,30.3525415 132.51123,29.8671875 L134.326172,29.8671875 C134.27832,30.2705098 134.119386,30.7199682 133.849365,31.2155762 C133.579344,31.7111841 133.276857,32.1162094 132.941895,32.4306641 C132.381345,32.9775418 131.687504,33.3466787 130.860352,33.5380859 C130.416013,33.6474615 129.913577,33.7021484 129.353027,33.7021484 C127.985833,33.7021484 126.827153,33.204839 125.876953,32.2102051 C124.926753,31.2155712 124.45166,29.8227629 124.45166,28.0317383 C124.45166,26.2680576 124.930171,24.835943 125.887207,23.7353516 C126.844243,22.6347601 128.095207,22.0844727 129.640137,22.0844727 Z M132.583008,26.9448242 C132.507812,26.1450155 132.333497,25.5058618 132.060059,25.0273438 C131.554197,24.1386674 130.709967,23.6943359 129.527344,23.6943359 C128.679683,23.6943359 127.968753,24.0002411 127.394531,24.6120605 C126.82031,25.22388 126.516113,26.0014601 126.481934,26.9448242 L132.583008,26.9448242 Z" id="Download-on-the-App"></path>
                </g>
            </g>
        </g>
    </g>
</svg>