<svg width="184px" height="50px" viewBox="0 0 184 50" version="1.1" xmlns="http://www.w3.org/2000/svg" xmlns:xlink="http://www.w3.org/1999/xlink">
    <g id="Zam" stroke="none" stroke-width="1" fill="none" fill-rule="evenodd">
        <g id="zam_website_homepage-" transform="translate(-628.000000, -9263.000000)" fill-rule="nonzero">
            <g id="Group" transform="translate(628.000000, 9263.000000)">
                <rect id="Rectangle-path" fill-opacity="0" fill="#000000" x="0" y="0" width="184" height="50"></rect>
                <rect id="Rectangle-path" fill="#282E66" x="0" y="0" width="184" height="50" rx="5"></rect>
                <path d="M61.2169314,13.54975 C61.2169314,13.17225 61.07144,12.87275 60.7805886,12.651375 C60.4930229,12.4267625 60.0875657,12.31445 59.5638229,12.31445 C59.1257714,12.31445 58.7577714,12.4300125 58.4600857,12.661125 C58.1656857,12.889 58.0184857,13.17225 58.0184857,13.51075 L57.0327714,13.51075 C57.0327714,13.133125 57.1406743,12.794625 57.3562171,12.4951125 C57.5753086,12.1956375 57.87996,11.9628875 58.27004,11.796875 C58.6602514,11.6276 59.0914686,11.542975 59.5638229,11.542975 C60.39892,11.542975 61.04752,11.722 61.5096229,12.080075 C61.9715943,12.4349 62.2026457,12.92975 62.2026457,13.5645 C62.2026457,13.89325 62.0965829,14.19275 61.8843257,14.462875 C61.6722,14.733125 61.3760914,14.94625 60.9962629,15.1025 C61.8757829,15.3825 62.3156743,15.9375 62.3156743,16.767625 C62.3156743,17.405625 62.0658286,17.91175 61.5661371,18.286125 C61.0663143,18.6605 60.39892,18.847625 59.5638229,18.847625 C59.0675486,18.847625 58.6158286,18.764625 58.2085314,18.598625 C57.8046514,18.429375 57.4897486,18.190125 57.2638229,17.880875 C57.0378971,17.571625 56.925,17.20375 56.925,16.777375 L57.9107143,16.777375 C57.9107143,17.15175 58.0664571,17.46425 58.3779429,17.714875 C58.6892971,17.96225 59.0846343,18.086 59.5638229,18.086 C60.1012343,18.086 60.5290343,17.967125 60.8473543,17.7295 C61.1690914,17.491875 61.32996,17.17775 61.32996,16.787125 C61.32996,15.95375 60.7874229,15.529 59.70248,15.51275 L58.7784057,15.51275 L58.7784057,14.74125 L59.6973543,14.74125 C60.1970457,14.7315 60.5751657,14.624 60.8319771,14.419 C61.0886571,14.213875 61.2169314,13.924125 61.2169314,13.54975 Z M66.9052914,18.75 C66.8506171,18.645875 66.8060629,18.46025 66.7718914,18.193375 C66.3304229,18.6295 65.8032629,18.847625 65.1906743,18.847625 C64.6430114,18.847625 64.1928686,18.701125 63.8403771,18.40825 C63.4913029,18.112 63.3167657,17.737625 63.3167657,17.285125 C63.3167657,16.735 63.5357257,16.308625 63.9739086,16.005875 C64.4153771,15.699875 65.0349314,15.546875 65.8323086,15.546875 L66.7565143,15.546875 L66.7565143,15.131875 C66.7565143,14.816125 66.6571543,14.565375 66.4586971,14.379875 C66.26024,14.191125 65.9675486,14.096625 65.5807543,14.096625 C65.2419314,14.096625 64.9579143,14.178 64.7285714,14.340875 C64.4992286,14.503625 64.3846229,14.7005 64.3846229,14.931625 L63.4296629,14.931625 C63.4296629,14.668 63.5271829,14.414 63.7223543,14.169875 C63.9208114,13.9225 64.1877429,13.72725 64.52328,13.584 C64.8621029,13.44075 65.2333886,13.369125 65.6372686,13.369125 C66.2773257,13.369125 66.7787257,13.522125 67.1414686,13.828125 C67.5043429,14.130875 67.6925486,14.549125 67.7062171,15.083 L67.7062171,17.514625 C67.7062171,17.999625 67.7712743,18.385375 67.9013886,18.671875 L67.9013886,18.75 L66.9052914,18.75 Z M65.3292,18.0615 C65.6270171,18.0615 65.9093257,17.98825 66.1763886,17.84175 C66.44332,17.69525 66.6366514,17.504875 66.7565143,17.2705 L66.7565143,16.1865 L66.0121029,16.1865 C64.8483029,16.1865 64.2664686,16.510375 64.2664686,17.15825 C64.2664686,17.441375 64.3658286,17.66275 64.5642857,17.82225 C64.7627429,17.98175 65.0178457,18.0615 65.3292,18.0615 Z M72.7836971,14.213875 L70.2218914,14.213875 L70.2218914,18.75 L69.2669314,18.75 L69.2669314,13.46675 L72.7836971,13.46675 L72.7836971,14.213875 Z M78.3026457,16.167 C78.3026457,16.971 78.1093143,17.618875 77.72252,18.110375 C77.3357257,18.601875 76.8121143,18.847625 76.1515543,18.847625 C75.4773257,18.847625 74.9467486,18.64425 74.5600857,18.23725 L74.5600857,20.78125 L73.6102514,20.78125 L73.6102514,13.46675 L74.4779429,13.46675 L74.5240743,14.05275 C74.9108686,13.597 75.4481486,13.369125 76.1361771,13.369125 C76.8035714,13.369125 77.3306,13.608375 77.7173943,14.086875 C78.1076057,14.565375 78.3026457,15.231125 78.3026457,16.084 L78.3026457,16.167 Z M77.3529429,16.0645 C77.3529429,15.46875 77.2194114,14.998375 76.95248,14.653375 C76.6855486,14.30825 76.3192571,14.13575 75.8537371,14.13575 C75.2787371,14.13575 74.84752,14.37825 74.5600857,14.86325 L74.5600857,17.38775 C74.8441029,17.8695 75.2787371,18.110375 75.86412,18.110375 C76.3192571,18.110375 76.6804229,17.9395 76.9473543,17.597625 C77.2177029,17.252625 77.3529429,16.7415 77.3529429,16.0645 Z M81.27004,17.42675 L82.5638229,13.46675 L83.5804229,13.46675 L81.3470571,19.565375 C81.0014,20.444375 80.4520286,20.88375 79.6990743,20.88375 L79.5194114,20.869125 L79.1652114,20.805625 L79.1652114,20.07325 L79.4218914,20.09275 C79.7436286,20.09275 79.9934743,20.030875 80.1714286,19.90725 C80.3528,19.7835 80.5017086,19.55725 80.6180229,19.2285 L80.8285714,18.691375 L78.8468914,13.46675 L79.8838629,13.46675 L81.27004,17.42675 Z M87.4872686,14.912125 C87.4872686,14.66475 87.38804,14.469375 87.1894514,14.326125 C86.9909943,14.17975 86.7189371,14.1065 86.37328,14.1065 C86.0377429,14.1065 85.7571429,14.1895 85.5312171,14.3555 C85.30884,14.5215 85.19752,14.71675 85.19752,14.941375 L84.2529429,14.941375 C84.2529429,14.482375 84.4548171,14.1065 84.8586971,13.8135 C85.2625771,13.5205 85.7673943,13.374 86.37328,13.374 C87.0234571,13.374 87.5301143,13.5075 87.8928571,13.774375 C88.2556,14.038125 88.4371029,14.41575 88.4371029,14.90725 C88.4371029,15.144875 88.3617943,15.363 88.2111771,15.5615 C88.06056,15.760125 87.8465943,15.918 87.5694114,16.035125 C88.2163029,16.2435 88.5397486,16.653625 88.5397486,17.265625 C88.5397486,17.750625 88.3428686,18.13475 87.9493714,18.418 C87.5557429,18.701125 87.0304229,18.84275 86.37328,18.84275 C85.7332229,18.84275 85.2043543,18.694625 84.7868057,18.3985 C84.3726743,18.099 84.1656743,17.69525 84.1656743,17.1875 L85.1102514,17.1875 C85.1102514,17.444625 85.2301143,17.666 85.4695771,17.8515 C85.7125886,18.033875 86.0138229,18.125 86.37328,18.125 C86.7360229,18.125 87.0285829,18.04525 87.2510914,17.88575 C87.4736,17.72625 87.5847886,17.5195 87.5847886,17.265625 C87.5847886,16.969375 87.4906857,16.75775 87.30248,16.630875 C87.1176914,16.500625 86.8284171,16.4355 86.4347886,16.4355 L85.4850857,16.4355 L85.4850857,15.673875 L86.5169314,15.673875 C87.1638229,15.6575 87.4872686,15.403625 87.4872686,14.912125 Z M93.3656743,13.46675 L94.3153771,13.46675 L94.3153771,18.75 L93.3656743,18.75 L93.3656743,14.8975 L90.8037371,18.75 L89.8540343,18.75 L89.8540343,13.46675 L90.8037371,13.46675 L90.8037371,17.32425 L93.3656743,13.46675 Z M99.9678571,14.19925 L98.1042,14.19925 L98.1042,18.75 L97.1544971,18.75 L97.1544971,14.19925 L95.32672,14.19925 L95.32672,13.46675 L99.9678571,13.46675 L99.9678571,14.19925 Z M101.929034,15.288125 L103.371594,15.288125 C104.0014,15.294625 104.499383,15.450875 104.865674,15.756875 C105.231834,16.062875 105.414914,16.477875 105.414914,17.002 C105.414914,17.52925 105.226709,17.9525 104.850166,18.2715 C104.473754,18.5905 103.967229,18.75 103.330589,18.75 L100.9792,18.75 L100.9792,13.46675 L101.929034,13.46675 L101.929034,15.288125 Z M101.929034,16.025375 L101.929034,18.01275 L103.34084,18.01275 C103.696749,18.01275 103.972354,17.926375 104.167394,17.753875 C104.362434,17.578125 104.460086,17.338875 104.460086,17.036125 C104.460086,16.743125 104.364274,16.503875 104.17252,16.318375 C103.984314,16.1295 103.719091,16.031875 103.37672,16.025375 L101.929034,16.025375 Z M109.296263,18.75 L109.296263,13.46675 L111.462731,13.46675 C112.202017,13.46675 112.768474,13.5905 113.162103,13.837875 C113.559017,14.082 113.757606,14.44175 113.757606,14.917 C113.757606,15.161125 113.680589,15.3825 113.526554,15.581 C113.37252,15.776375 113.144886,15.926125 112.843783,16.03025 C113.179189,16.105125 113.447829,16.251625 113.649834,16.46975 C113.855126,16.687875 113.957771,16.94825 113.957771,17.251 C113.957771,17.736 113.769566,18.107125 113.393023,18.36425 C113.020029,18.621375 112.49116,18.75 111.80668,18.75 L109.296263,18.75 Z M110.245966,16.430625 L110.245966,18.0225 L111.816931,18.0225 C112.213977,18.0225 112.510086,17.9525 112.705126,17.8125 C112.903583,17.6725 113.002943,17.475625 113.002943,17.221625 C113.002943,16.694375 112.595646,16.430625 111.781051,16.430625 L110.245966,16.430625 Z M110.245966,15.708 L111.472983,15.708 C112.362886,15.708 112.807771,15.460625 112.807771,14.965875 C112.807771,14.471 112.386806,14.2155 111.544874,14.19925 L110.245966,14.19925 L110.245966,15.708 Z M66.4021829,35.4395 L60.6111771,35.4395 L59.3995371,38.75 L56.6990743,38.75 L62.3464286,24.53125 L64.6771829,24.53125 L70.3347886,38.75 L67.6240743,38.75 L66.4021829,35.4395 Z M61.3402114,33.44725 L65.67328,33.44725 L63.50668,27.548875 L61.3402114,33.44725 Z M81.0338629,33.57425 C81.0338629,35.208375 80.6437829,36.513625 79.86336,37.49025 C79.0830686,38.46025 78.0357143,38.94525 76.7214286,38.94525 C75.5029543,38.94525 74.5274914,38.5645 73.79504,37.80275 L73.79504,42.8125 L71.3,42.8125 L71.3,28.183625 L73.6,28.183625 L73.7026457,29.25775 C74.4350971,28.4115 75.4310629,27.98825 76.6906743,27.98825 C78.0459657,27.98825 79.1069886,28.47 79.8736114,29.433625 C80.6472,30.390625 81.0338629,31.722 81.0338629,33.42775 L81.0338629,33.57425 Z M78.5490743,33.369125 C78.5490743,32.3145 78.3266971,31.477875 77.88168,30.859375 C77.4436286,30.240875 76.8138229,29.931625 75.9923943,29.931625 C74.9725086,29.931625 74.2400571,30.332 73.79504,31.13275 L73.79504,35.82025 C74.2468914,36.640625 74.9861771,37.05075 76.0128971,37.05075 C76.8069886,37.05075 77.4265429,36.748 77.8714286,36.142625 C78.32328,35.530625 78.5490743,34.606125 78.5490743,33.369125 Z M92.8830686,33.57425 C92.8830686,35.208375 92.4928571,36.513625 91.7124343,37.49025 C90.9321429,38.46025 89.8847886,38.94525 88.5705029,38.94525 C87.3520286,38.94525 86.3766971,38.5645 85.6442457,37.80275 L85.6442457,42.8125 L83.1490743,42.8125 L83.1490743,28.183625 L85.4490743,28.183625 L85.5518514,29.25775 C86.2841714,28.4115 87.2802686,27.98825 88.5397486,27.98825 C89.89504,27.98825 90.9560629,28.47 91.7228171,29.433625 C92.4962743,30.390625 92.8830686,31.722 92.8830686,33.42775 L92.8830686,33.57425 Z M90.3981486,33.369125 C90.3981486,32.3145 90.1757714,31.477875 89.7307543,30.859375 C89.2927029,30.240875 88.6628971,29.931625 87.8414686,29.931625 C86.8215829,29.931625 86.0891314,30.332 85.6442457,31.13275 L85.6442457,35.82025 C86.0959657,36.640625 86.8352514,37.05075 87.8621029,37.05075 C88.6560629,37.05075 89.2756171,36.748 89.7205029,36.142625 C90.1723543,35.530625 90.3981486,34.606125 90.3981486,33.369125 Z M108.29504,35.087875 C108.29504,34.462875 108.062411,33.981125 107.596891,33.642625 C107.138206,33.304 106.306526,32.96225 105.101851,32.61725 C103.897046,32.272125 102.938669,31.888 102.22672,31.464875 C100.864594,30.651 100.183531,29.589875 100.183531,28.28125 C100.183531,27.135375 100.672971,26.191375 101.651851,25.44925 C102.637566,24.707 103.914131,24.336 105.48168,24.336 C106.5222,24.336 107.449691,24.51825 108.264286,24.88275 C109.07888,25.247375 109.718937,25.76825 110.184326,26.44525 C110.649846,27.115875 110.882606,27.861375 110.882606,28.681625 L108.29504,28.681625 C108.29504,27.9395 108.048611,27.36 107.555754,26.943375 C107.069731,26.520125 106.371583,26.308625 105.461177,26.308625 C104.612411,26.308625 103.951851,26.481125 103.479497,26.826125 C103.013977,27.17125 102.781217,27.653 102.781217,28.2715 C102.781217,28.792375 103.03448,29.2285 103.541006,29.580125 C104.047663,29.925125 104.88276,30.263625 106.046429,30.59575 C107.210097,30.92125 108.144554,31.295625 108.849537,31.71875 C109.554651,32.135375 110.071429,32.61725 110.4,33.164 C110.728571,33.704375 110.892857,34.33925 110.892857,35.068375 C110.892857,36.25325 110.413669,37.19725 109.455291,37.900375 C108.50388,38.597 107.210097,38.94525 105.574074,38.94525 C104.492549,38.94525 103.496583,38.7565 102.586177,38.378875 C101.682606,37.99475 100.977491,37.4675 100.470966,36.796875 C99.9712743,36.12625 99.7214286,35.345 99.7214286,34.453125 L102.319246,34.453125 C102.319246,35.260375 102.599846,35.885375 103.161177,36.328125 C103.722509,36.770875 104.52672,36.99225 105.574074,36.99225 C106.477646,36.99225 107.155291,36.819625 107.607143,36.474625 C108.065829,36.123 108.29504,35.66075 108.29504,35.087875 Z M116.057606,25.61525 L116.057606,28.183625 L118.018783,28.183625 L118.018783,29.941375 L116.057606,29.941375 L116.057606,35.839875 C116.057606,36.2435 116.139749,36.5365 116.304034,36.71875 C116.475154,36.8945 116.776389,36.982375 117.207606,36.982375 C117.49504,36.982375 117.786023,36.949875 118.080423,36.88475 L118.080423,38.72075 C117.512257,38.8705 116.964594,38.94525 116.437566,38.94525 C114.520811,38.94525 113.562434,37.9395 113.562434,35.92775 L113.562434,29.941375 L111.734789,29.941375 L111.734789,28.183625 L113.562434,28.183625 L113.562434,25.61525 L116.057606,25.61525 Z M119.158531,33.369125 C119.158531,32.334 119.374074,31.403 119.805291,30.576125 C120.23664,29.742875 120.842394,29.104875 121.622817,28.662125 C122.403109,28.212875 123.299846,27.98825 124.312897,27.98825 C125.812103,27.98825 127.027029,28.44725 127.958069,29.36525 C128.895811,30.28325 129.402337,31.500625 129.477646,33.017625 L129.487897,33.57425 C129.487897,34.615875 129.275771,35.546875 128.851389,36.36725 C128.43384,37.1875 127.831371,37.82225 127.044246,38.2715 C126.263823,38.72075 125.360251,38.94525 124.333531,38.94525 C122.765983,38.94525 121.509789,38.4505 120.565211,37.461 C119.627337,36.464875 119.158531,35.14 119.158531,33.486375 L119.158531,33.369125 Z M121.653571,33.57425 C121.653571,34.6615 121.889749,35.514375 122.362103,36.13275 C122.834326,36.74475 123.491469,37.05075 124.333531,37.05075 C125.175463,37.05075 125.829189,36.73825 126.294709,36.11325 C126.766931,35.48825 127.003109,34.573625 127.003109,33.369125 C127.003109,32.301375 126.760097,31.455125 126.274074,30.830125 C125.794886,30.205125 125.14116,29.892625 124.312897,29.892625 C123.498303,29.892625 122.851543,30.201875 122.372354,30.82025 C121.893166,31.43225 121.653571,32.35025 121.653571,33.57425 Z M137.415143,30.3515 C137.086571,30.2995 136.747486,30.2735 136.397886,30.2735 C135.254457,30.2735 134.4856,30.690125 134.087371,31.5235 L134.087371,38.75 L131.592857,38.75 L131.592857,28.183625 L133.975657,28.183625 L134.036114,29.36525 C134.639371,28.44725 135.473943,27.98825 136.542457,27.98825 C136.897314,27.98825 137.191714,28.033875 137.424343,28.125 L137.415143,30.3515 Z M143.677714,38.94525 C142.096629,38.94525 140.813886,38.47325 139.828171,37.52925 C138.849029,36.57875 138.3588,35.31575 138.3588,33.74025 L138.3588,33.44725 C138.3588,32.392625 138.571714,31.451875 138.996229,30.625 C139.427314,29.791625 140.029257,29.143875 140.803371,28.681625 C141.576171,28.219375 142.439657,27.98825 143.3912,27.98825 C144.903943,27.98825 146.071029,28.44725 146.892457,29.36525 C147.720457,30.28325 148.134457,31.582 148.134457,33.26175 L148.134457,34.21875 L140.875657,34.21875 C140.950571,35.091125 141.255486,35.78125 141.789086,36.289 C142.329257,36.796875 143.007429,37.05075 143.822286,37.05075 C144.9644,37.05075 145.896229,36.611375 146.615143,35.732375 L147.959657,36.953125 C147.515429,37.584625 146.918743,38.076125 146.173543,38.42775 C145.4336,38.77275 144.601657,38.94525 143.677714,38.94525 Z M143.380686,29.892625 C142.695943,29.892625 142.141314,30.1205 141.7168,30.576125 C141.298857,31.031875 141.032057,31.666625 140.9164,32.4805 L145.670171,32.4805 L145.670171,32.30475 C145.614971,31.510375 145.392857,30.9115 145.002514,30.50775 C144.612171,30.097625 144.072,29.892625 143.380686,29.892625 Z" id="Shape" fill="#FFFFFF"></path>
                <rect id="Rectangle-path" fill-opacity="0" fill="#000000" x="14.4571429" y="8.75" width="27.6" height="31.25"></rect>
                <rect id="Rectangle-path" fill-opacity="0" fill="#000000" x="14.4571429" y="8.75" width="27.6" height="31.25"></rect>
                <path d="M37.5086629,25.354375 C37.4659486,21.39675 41.0095257,19.49875 41.1677657,19.4045 C39.1767543,16.718375 36.0751714,16.350375 34.9699886,16.30775 C32.3303771,16.061375 29.8195657,17.7405 28.4799143,17.7405 C27.14368,17.7405 25.0765714,16.34425 22.8874971,16.380875 C20.0103943,16.420375 17.35764,17.92325 15.8763086,20.29875 C12.8871103,25.080875 15.1107371,32.16525 18.0242457,36.0435 C19.4477486,37.942 21.1454114,40.07425 23.3741771,39.998 C25.5205371,39.919 26.3321086,38.717625 28.9270343,38.717625 C31.52196,38.717625 32.2513886,39.998 34.5227371,39.95875 C36.8324629,39.919125 38.2956571,38.024 39.7094343,36.11975 C41.3442743,33.917375 42.0174514,31.785125 42.0571429,31.675625 C42.0058857,31.654 37.5533486,30.0815 37.5086629,25.354375 Z M33.2407829,13.74025 C34.4237714,12.4171125 35.2222,10.5813625 35.0044229,8.75 C33.3004514,8.8139625 31.2350514,9.79645 30.0125029,11.1166375 C28.9154686,12.287775 27.9552514,14.157 28.2125886,15.95175 C30.1147543,16.0885 32.0566114,15.0605 33.2407829,13.74025 Z" id="Shape" fill="#EEEAE7"></path>
            </g>
        </g>
    </g>
</svg>