<svg width="25px" height="25px" viewBox="0 0 25 25" version="1.1" xmlns="http://www.w3.org/2000/svg" xmlns:xlink="http://www.w3.org/1999/xlink">
    <g id="Page-1" stroke="none" stroke-width="1" fill="none" fill-rule="evenodd">
        <g id="zam_website_homepage-" transform="translate(-953.000000, -7940.000000)" fill="#FFFFFF">
            <g id="Group-57" transform="translate(0.000000, 7680.000000)">
                <g id="Group-54" transform="translate(150.000000, 245.000000)">
                    <g id="Group-6" transform="translate(803.000000, 7.000000)">
                        <path d="M25,31.6196611 C25,32.3816736 24.3823377,33 23.6203045,33 L17.2495982,33 L17.2495982,23.3185607 L20.4993054,23.3185607 L20.9862167,19.5459523 L17.2495982,19.5459523 L17.2495982,17.1366583 C17.2495982,16.0443724 17.5533219,15.3000654 19.1196099,15.3000654 L21.1176487,15.2993844 L21.1176487,11.9244661 C20.7717033,11.8788407 19.5860914,11.7760133 18.2063959,11.7760133 C15.3257879,11.7760133 13.353627,13.534294 13.353627,16.7634833 L13.353627,19.5459523 L10.0957479,19.5459523 L10.0957479,23.3185607 L13.353627,23.3185607 L13.353627,33 L1.37969546,33 C0.617662281,33 0,32.3816736 0,31.6196611 L0,9.38033885 C0,8.61764546 0.617662281,8 1.37969546,8 L23.6203045,8 C24.3823377,8 25,8.61764546 25,9.38033885 L25,31.6196611" id="Facebook"></path>
                    </g>
                </g>
            </g>
        </g>
    </g>
</svg>