<svg width="184px" height="50px" viewBox="0 0 184 50" version="1.1" xmlns="http://www.w3.org/2000/svg" xmlns:xlink="http://www.w3.org/1999/xlink">
    <g id="Zam" stroke="none" stroke-width="1" fill="none" fill-rule="evenodd">
        <g id="zam_website_homepage-" transform="translate(-628.000000, -9183.000000)" fill-rule="nonzero">
            <g id="Group-2" transform="translate(628.000000, 9183.000000)">
                <rect id="Rectangle-path" fill-opacity="0" fill="#000000" x="0" y="0" width="184" height="50"></rect>
                <rect id="Rectangle-path" fill="#282E66" x="0" y="0" width="184" height="50" rx="5"></rect>
                <path d="M62.7930229,20.493125 L61.8124343,20.493125 L61.8124343,18.75 L56.44752,18.75 L56.44752,20.498 L55.4618057,20.498 L55.45668,17.983375 L56.0676914,17.983375 C56.3892971,17.638375 56.6444,17.176125 56.8326057,16.596625 C57.0242286,16.014 57.1440914,15.376 57.1919314,14.682625 L57.3562171,11.640625 L61.8279429,11.640625 L61.8279429,17.983375 L62.8034057,17.983375 L62.7930229,20.493125 Z M57.1919314,17.983375 L60.8371029,17.983375 L60.8371029,12.4121125 L58.3060514,12.4121125 L58.1981486,14.502 C58.1537257,15.319 58.03912,16.015625 57.8542,16.59175 C57.6728286,17.168 57.4520286,17.631875 57.1919314,17.983375 Z M69.6006286,15.42475 C69.6006286,16.121375 69.47748,16.730125 69.2310514,17.251 C68.9846229,17.7685 68.6355486,18.164 68.1836971,18.4375 C67.7319771,18.711 67.2048171,18.847625 66.60248,18.847625 C66.0138114,18.847625 65.4917771,18.711 65.03664,18.4375 C64.5813714,18.16075 64.2271714,17.7685 63.9739086,17.26075 C63.7240629,16.749625 63.5956571,16.158875 63.5888229,15.48825 L63.5888229,14.975625 C63.5888229,14.292 63.7138114,13.688125 63.9636571,13.164 C64.2135029,12.64 64.5659943,12.2395875 65.0212629,11.9628875 C65.4798171,11.6829375 66.00356,11.542975 66.5922286,11.542975 C67.1911486,11.542975 67.7181771,11.6813125 68.1734457,11.9580125 C68.6321314,12.23145 68.9846229,12.63025 69.2310514,13.15425 C69.47748,13.675125 69.6006286,14.28225 69.6006286,14.975625 L69.6006286,15.42475 Z M68.62004,14.965875 C68.62004,14.12275 68.4420857,13.4765 68.0861771,13.027375 C67.7302686,12.574875 67.2321543,12.3486375 66.5922286,12.3486375 C65.9692571,12.3486375 65.4781086,12.574875 65.1187829,13.027375 C64.7627429,13.4765 64.5796629,14.1015 64.5694114,14.902375 L64.5694114,15.42475 C64.5694114,16.241875 64.7490743,16.88475 65.1085314,17.3535 C65.4712743,17.819 65.9692571,18.05175 66.60248,18.05175 C67.23912,18.05175 67.7319771,17.832 68.0810514,17.392625 C68.4301257,16.949875 68.6097886,16.31675 68.62004,15.493125 L68.62004,14.965875 Z M76.5776457,16.494125 C76.4852514,17.246125 76.1926914,17.827125 75.6998343,18.23725 C75.2103943,18.64425 74.5583771,18.847625 73.7437829,18.847625 C72.8607143,18.847625 72.1521829,18.5465 71.61832,17.944375 C71.0877429,17.342125 70.82252,16.5365 70.82252,15.527375 L70.82252,14.84375 C70.82252,14.183 70.9458,13.601875 71.1922286,13.100625 C71.4420743,12.59925 71.7945657,12.215175 72.2498343,11.9482375 C72.7049714,11.6780625 73.2321314,11.542975 73.8310514,11.542975 C74.6250114,11.542975 75.2616514,11.7545625 75.74084,12.1777375 C76.2200286,12.597625 76.49892,13.180375 76.5776457,13.92575 L75.5868057,13.92575 C75.5012457,13.359375 75.3147486,12.94925 75.0271829,12.69525 C74.7431657,12.4414 74.3444114,12.31445 73.8310514,12.31445 C73.2012457,12.31445 72.70668,12.53575 72.3473543,12.9785 C71.9913143,13.42125 71.81336,14.051125 71.81336,14.868125 L71.81336,15.556625 C71.81336,16.328125 71.9827714,16.94175 72.3215943,17.3975 C72.6605486,17.85325 73.13448,18.081 73.7437829,18.081 C74.2913143,18.081 74.7107029,17.963875 75.0015543,17.7295 C75.2959543,17.491875 75.4909943,17.080125 75.5868057,16.494125 L76.5776457,16.494125 Z M82.9386571,12.4121125 L80.53588,12.4121125 L80.53588,18.75 L79.5552914,18.75 L79.5552914,12.4121125 L77.1577714,12.4121125 L77.1577714,11.640625 L82.9386571,11.640625 L82.9386571,12.4121125 Z M86.6144514,15.766625 L88.3343257,11.640625 L89.4792,11.640625 L86.8352514,17.5635 C86.6572971,17.941125 86.4913029,18.209625 86.3372686,18.369125 C86.1832343,18.525375 86.0018629,18.645875 85.7930229,18.7305 C85.5877314,18.811875 85.3293429,18.8525 85.0178571,18.8525 C84.7475086,18.8525 84.57468,18.837875 84.4993714,18.808625 L84.5301257,18.066375 L84.9973543,18.086 C85.35668,18.086 85.6236114,17.9215 85.7981486,17.59275 L85.9265543,17.338875 L86.1215943,16.90425 L83.5751657,11.640625 L84.6790343,11.640625 L86.6144514,15.766625 Z M96.3689486,18.75 L95.3781086,18.75 L95.3781086,12.4121125 L91.6919314,12.4121125 L91.6919314,18.75 L90.7062171,18.75 L90.7062171,11.640625 L96.3689486,11.640625 L96.3689486,18.75 Z M103.910714,18.75 L102.919874,18.75 L102.919874,15.463875 L99.1515543,15.463875 L99.1515543,18.75 L98.16584,18.75 L98.16584,11.640625 L99.1515543,11.640625 L99.1515543,14.69725 L102.919874,14.69725 L102.919874,11.640625 L103.910714,11.640625 L103.910714,18.75 Z M111.411343,15.42475 C111.411343,16.121375 111.288194,16.730125 111.041766,17.251 C110.795337,17.7685 110.446263,18.164 109.994411,18.4375 C109.542691,18.711 109.015531,18.847625 108.413194,18.847625 C107.824526,18.847625 107.302491,18.711 106.847354,18.4375 C106.392086,18.16075 106.037886,17.7685 105.784623,17.26075 C105.534777,16.749625 105.406371,16.158875 105.399537,15.48825 L105.399537,14.975625 C105.399537,14.292 105.524526,13.688125 105.774371,13.164 C106.024217,12.64 106.376709,12.2395875 106.831977,11.9628875 C107.290531,11.6829375 107.814274,11.542975 108.402943,11.542975 C109.001863,11.542975 109.528891,11.6813125 109.98416,11.9580125 C110.442846,12.23145 110.795337,12.63025 111.041766,13.15425 C111.288194,13.675125 111.411343,14.28225 111.411343,14.975625 L111.411343,15.42475 Z M110.430754,14.965875 C110.430754,14.12275 110.2528,13.4765 109.896891,13.027375 C109.540983,12.574875 109.042869,12.3486375 108.402943,12.3486375 C107.779971,12.3486375 107.288823,12.574875 106.929497,13.027375 C106.573457,13.4765 106.390377,14.1015 106.380126,14.902375 L106.380126,15.42475 C106.380126,16.241875 106.559789,16.88475 106.919246,17.3535 C107.281989,17.819 107.779971,18.05175 108.413194,18.05175 C109.049834,18.05175 109.542691,17.832 109.891766,17.392625 C110.24084,16.949875 110.420503,16.31675 110.430754,15.493125 L110.430754,14.965875 Z M115.497983,18.75 L115.497983,11.640625 L117.941766,11.640625 C118.752943,11.640625 119.362114,11.800125 119.769411,12.1191375 C120.180126,12.43815 120.385549,12.910125 120.385549,13.535125 C120.385549,13.86725 120.286189,14.16175 120.087731,14.419 C119.889274,14.672875 119.618794,14.86975 119.276554,15.00975 C119.680434,15.11725 119.998754,15.32225 120.231514,15.625 C120.467691,15.9245 120.585714,16.2825 120.585714,16.69925 C120.585714,17.33725 120.368331,17.8385 119.933697,18.203125 C119.499063,18.56775 118.884634,18.75 118.090674,18.75 L115.497983,18.75 Z M116.483697,15.42475 L116.483697,17.983375 L118.111177,17.983375 C118.569731,17.983375 118.930897,17.871125 119.194411,17.6465 C119.461343,17.418625 119.594874,17.106125 119.594874,16.709 C119.594874,15.852875 119.105434,15.42475 118.126554,15.42475 L116.483697,15.42475 Z M116.483697,14.672875 L117.97252,14.672875 C118.403737,14.672875 118.747817,14.57025 119.004497,14.36525 C119.264594,14.160125 119.394709,13.881875 119.394709,13.53025 C119.394709,13.139625 119.274846,12.8565 119.035251,12.680625 C118.795657,12.501625 118.431206,12.4121125 117.941766,12.4121125 L116.483697,12.4121125 L116.483697,14.672875 Z M68.1785714,36.90425 C67.6377429,37.574875 66.8882057,38.082625 65.92996,38.42775 C64.9715829,38.77275 63.8832229,38.94525 62.6647486,38.94525 C61.4121029,38.94525 60.3031086,38.675125 59.3378971,38.13475 C58.3728171,37.594375 57.6266971,36.822875 57.0995371,35.82025 C56.5793429,34.81125 56.3089943,33.636125 56.28836,32.294875 L56.28836,31.181625 C56.28836,29.03325 56.8291886,27.35675 57.9107143,26.152375 C58.99224,24.941375 60.5016971,24.336 62.4388229,24.336 C64.1021829,24.336 65.4233029,24.7265 66.4021829,25.50775 C67.3810629,26.289 67.9697314,27.415375 68.16832,28.88675 L65.6218914,28.88675 C65.3343257,27.1745 64.29052,26.318375 62.4902114,26.318375 C61.3265429,26.318375 60.4400571,26.71875 59.8307543,27.5195 C59.2284171,28.31375 58.9169314,29.482375 58.8964286,31.025375 L58.8964286,32.119125 C58.8964286,33.655625 59.2352514,34.85025 59.9128971,35.703125 C60.5975086,36.5495 61.5455029,36.972625 62.7571429,36.972625 C64.0850971,36.972625 65.0298057,36.68625 65.5910057,36.11325 L65.5910057,33.330125 L62.5107143,33.330125 L62.5107143,31.455125 L68.1785714,31.455125 L68.1785714,36.90425 Z M70.3245371,33.369125 C70.3245371,32.334 70.5402114,31.403 70.9714286,30.576125 C71.4026457,29.742875 72.0085314,29.104875 72.7888229,28.662125 C73.5692457,28.212875 74.4659829,27.98825 75.4790343,27.98825 C76.9781086,27.98825 78.1931657,28.44725 79.1240743,29.36525 C80.0619486,30.28325 80.5684743,31.500625 80.6437829,33.017625 L80.6540343,33.57425 C80.6540343,34.615875 80.4417771,35.546875 80.0173943,36.36725 C79.5998457,37.1875 78.9975086,37.82225 78.2102514,38.2715 C77.42996,38.72075 76.5263886,38.94525 75.4995371,38.94525 C73.9319886,38.94525 72.6759257,38.4505 71.7312171,37.461 C70.7934743,36.464875 70.3245371,35.14 70.3245371,33.486375 L70.3245371,33.369125 Z M72.8195771,33.57425 C72.8195771,34.6615 73.0557543,35.514375 73.5281086,36.13275 C74.0004629,36.74475 74.6576057,37.05075 75.4995371,37.05075 C76.3414686,37.05075 76.9951943,36.73825 77.4607143,36.11325 C77.9330686,35.48825 78.1692457,34.573625 78.1692457,33.369125 C78.1692457,32.301375 77.9262343,31.455125 77.4402114,30.830125 C76.9610229,30.205125 76.3072971,29.892625 75.4790343,29.892625 C74.66444,29.892625 74.0175486,30.201875 73.53836,30.82025 C73.0591714,31.43225 72.8195771,32.35025 72.8195771,33.57425 Z M82.2968914,33.369125 C82.2968914,32.334 82.5124343,31.403 82.9437829,30.576125 C83.375,29.742875 83.9807543,29.104875 84.7611771,28.662125 C85.5414686,28.212875 86.4382057,27.98825 87.4513886,27.98825 C88.9504629,27.98825 90.16552,28.44725 91.0964286,29.36525 C92.0341714,30.28325 92.5408286,31.500625 92.6161371,33.017625 L92.6263886,33.57425 C92.6263886,34.615875 92.4141314,35.546875 91.9897486,36.36725 C91.5722,37.1875 90.9697314,37.82225 90.1826057,38.2715 C89.4021829,38.72075 88.4986114,38.94525 87.4718914,38.94525 C85.9043429,38.94525 84.6481486,38.4505 83.7035714,37.461 C82.7658286,36.464875 82.2968914,35.14 82.2968914,33.486375 L82.2968914,33.369125 Z M84.7919314,33.57425 C84.7919314,34.6615 85.0281086,35.514375 85.5004629,36.13275 C85.9728171,36.74475 86.62996,37.05075 87.4718914,37.05075 C88.3138229,37.05075 88.9675486,36.73825 89.4330686,36.11325 C89.9052914,35.48825 90.1414686,34.573625 90.1414686,33.369125 C90.1414686,32.301375 89.8984571,31.455125 89.4124343,30.830125 C88.9333771,30.205125 88.2796514,29.892625 87.4513886,29.892625 C86.6367943,29.892625 85.9899029,30.201875 85.5107143,30.82025 C85.0315257,31.43225 84.7919314,32.35025 84.7919314,33.57425 Z M94.3,33.388625 C94.3,31.748 94.70388,30.4395 95.51164,29.462875 C96.3262343,28.479875 97.4043429,27.98825 98.7459657,27.98825 C100.012411,27.98825 101.008377,28.40825 101.733863,29.248 L101.846891,28.183625 L104.095503,28.183625 L104.095503,38.42775 C104.095503,39.8145 103.640366,40.90825 102.72996,41.709 C101.826389,42.50975 100.604497,42.910125 99.0642857,42.910125 C98.2496914,42.910125 97.4521829,42.747375 96.6718914,42.421875 C95.8983029,42.102875 95.3096343,41.683 94.9057543,41.162125 L96.08664,39.736375 C96.8532629,40.60225 97.7979714,41.035125 98.9205029,41.035125 C99.7487657,41.035125 100.402491,40.82025 100.88168,40.390625 C101.360869,39.9675 101.600463,39.3425 101.600463,38.515625 L101.600463,37.80275 C100.88168,38.5645 99.9233029,38.94525 98.7254629,38.94525 C97.4248457,38.94525 96.3604057,38.45375 95.5321429,37.47075 C94.7107143,36.487625 94.3,35.127 94.3,33.388625 Z M96.7847886,33.59375 C96.7847886,34.655 97.0107143,35.4915 97.4624343,36.1035 C97.92112,36.709 98.5543429,37.01175 99.3621029,37.01175 C100.36832,37.01175 101.11444,36.6015 101.600463,35.78125 L101.600463,31.13275 C101.128109,30.332 100.388823,29.931625 99.3826057,29.931625 C98.5611771,29.931625 97.92112,30.240875 97.4624343,30.859375 C97.0107143,31.477875 96.7847886,32.389375 96.7847886,33.59375 Z M109.321891,38.75 L106.82672,38.75 L106.82672,23.75 L109.321891,23.75 L109.321891,38.75 Z M116.940674,38.94525 C115.359326,38.94525 114.075926,38.47325 113.090211,37.52925 C112.111331,36.57875 111.621891,35.31575 111.621891,33.74025 L111.621891,33.44725 C111.621891,32.392625 111.834017,31.451875 112.258531,30.625 C112.689749,29.791625 113.292086,29.143875 114.065674,28.681625 C114.839131,28.219375 115.701697,27.98825 116.653109,27.98825 C118.165983,27.98825 119.333069,28.44725 120.154497,29.36525 C120.98276,30.28325 121.396891,31.582 121.396891,33.26175 L121.396891,34.21875 L114.137566,34.21875 C114.212743,35.091125 114.517394,35.78125 115.051389,36.289 C115.592086,36.796875 116.269731,37.05075 117.084326,37.05075 C118.227491,37.05075 119.158531,36.611375 119.877183,35.732375 L121.222354,36.953125 C120.777337,37.584625 120.181834,38.076125 119.435714,38.42775 C118.696429,38.77275 117.864749,38.94525 116.940674,38.94525 Z M116.642857,29.892625 C115.958377,29.892625 115.40388,30.1205 114.979497,30.576125 C114.561949,31.031875 114.294886,31.666625 114.178571,32.4805 L118.932606,32.4805 L118.932606,32.30475 C118.8778,31.510375 118.655291,30.9115 118.265211,30.50775 C117.875,30.097625 117.334171,29.892625 116.642857,29.892625 Z M131.41832,33.46675 L131.41832,38.75 L128.820503,38.75 L128.820503,24.53125 L134.539486,24.53125 C136.209943,24.53125 137.534743,24.944625 138.513886,25.7715 C139.4996,26.59825 139.992457,27.692 139.992457,29.05275 C139.992457,30.446 139.5088,31.53 138.544114,32.30475 C137.586,33.079375 136.240171,33.46675 134.509257,33.46675 L131.41832,33.46675 Z M131.41832,31.484375 L134.539486,31.484375 C135.463429,31.484375 136.1692,31.27925 136.655486,30.869125 C137.140457,30.4525 137.3836,29.8535 137.3836,29.07225 C137.3836,28.304 137.137829,27.692 136.644971,27.236375 C136.152114,26.774125 135.473943,26.5365 134.611771,26.5235 L131.41832,26.5235 L131.41832,31.484375 Z M144.684457,38.75 L142.189943,38.75 L142.189943,23.75 L144.684457,23.75 L144.684457,38.75 Z M154.048743,38.75 C153.939657,38.548125 153.843714,38.219375 153.760914,37.763625 C152.967086,38.551375 151.994514,38.94525 150.844514,38.94525 C149.728686,38.94525 148.8192,38.642625 148.113429,38.037125 C147.408971,37.431625 147.056743,36.683 147.056743,35.791 C147.056743,34.66475 147.4944,33.802125 148.371029,33.203125 C149.252914,32.597625 150.513314,32.294875 152.1496,32.294875 L153.679429,32.294875 L153.679429,31.6015 C153.679429,31.05475 153.517771,30.6185 153.195771,30.293 C152.875086,29.961 152.384857,29.794875 151.727714,29.794875 C151.159943,29.794875 150.694686,29.931625 150.331943,30.205125 C149.9692,30.472 149.787829,30.81375 149.787829,31.2305 L147.292,31.2305 C147.292,30.651 147.4944,30.110625 147.897886,29.609375 C148.302686,29.1015 148.849429,28.704375 149.540743,28.418 C150.238629,28.1315 151.016686,27.98825 151.872286,27.98825 C153.172114,27.98825 154.209086,28.30075 154.9832,28.92575 C155.756,29.54425 156.152914,30.416625 156.173943,31.543 L156.173943,36.308625 C156.173943,37.259125 156.314571,38.017625 156.594514,38.584 L156.594514,38.75 L154.048743,38.75 Z M151.307143,37.041 C151.8,37.041 152.262629,36.927125 152.693714,36.69925 C153.131371,36.471375 153.459943,36.165375 153.679429,35.78125 L153.679429,33.789 L152.3336,33.789 C151.409657,33.789 150.7144,33.942 150.249143,34.248 C149.783886,34.554 149.551257,34.987 149.551257,35.546875 C149.551257,36.002625 149.708971,36.36725 150.023086,36.640625 C150.345086,36.9075 150.773543,37.041 151.307143,37.041 Z M162.5088,35.3515 L164.768057,28.183625 L167.428171,28.183625 L163.012171,40.3515 C162.335314,42.128875 161.185314,43.017625 159.562171,43.017625 C159.199429,43.017625 158.799886,42.959 158.360914,42.84175 L158.360914,41.005875 L158.834057,41.035125 C159.4636,41.035125 159.935429,40.9245 160.250857,40.703125 C160.571543,40.48825 160.8252,40.12375 161.010514,39.609375 L161.369314,38.701125 L157.4672,28.183625 L160.157543,28.183625 L162.5088,35.3515 Z" id="Shape" fill="#FFFFFF"></path>
                <rect id="Rectangle-path" fill-opacity="0" fill="#000000" x="14.4571429" y="8.75" width="30.2285714" height="32.5"></rect>
                <polygon id="Shape" fill="#00C9FF" points="14.4571429 8.75 14.4571429 24.714875 14.4571429 41.25 32.4414343 24.714875"></polygon>
                <polygon id="Shape" fill="#03E572" points="37.1172686 20.2105 29.9834571 16.333375 14.4571429 8.75 32.4414343 24.714875"></polygon>
                <polygon id="Shape" fill="#F83548" points="14.4571429 41.25 29.9834571 33.0965 37.1172686 29.21925 32.4414343 24.714875"></polygon>
                <path d="M37.1171371,20.2105 L32.4413029,24.714875 L37.1171371,29.21925 L44.3708114,25.228 C44.7904629,24.999875 44.7904629,24.48675 44.3708114,24.25875 L37.1171371,20.2105 Z" id="Shape" fill="#FFC900"></path>
            </g>
        </g>
    </g>
</svg>