<?xml version="1.0" encoding="UTF-8"?>
<svg width="184px" height="50px" viewBox="0 0 184 50" version="1.1" xmlns="http://www.w3.org/2000/svg" xmlns:xlink="http://www.w3.org/1999/xlink">
    <!-- Generator: sketchtool 52.2 (67145) - http://www.bohemiancoding.com/sketch -->
    <title>9B86CE61-51B4-4FFC-A678-96CBE81B5ED4</title>
    <desc>Created with sketchtool.</desc>
    <g id="Zam" stroke="none" stroke-width="1" fill="none" fill-rule="evenodd">
        <g id="Thank-you-page" transform="translate(-628.000000, -1234.000000)">
            <g id="get-it-on-google" transform="translate(628.000000, 1234.000000)">
                <rect id="Rectangle-path" fill="#282E66" fill-rule="nonzero" x="0" y="0" width="184" height="50" rx="5"></rect>
                <polygon id="Rectangle-path" fill-opacity="0" fill="#000000" fill-rule="nonzero" points="14 8 44.2285714 8 44.2285714 40.5 14 40.5"></polygon>
                <g id="get-it-on-google-play" transform="translate(53.000000, 6.474650)" fill="#FFFFFF">
                    <g id="google-play" transform="translate(0.000000, 14.000000)">
                        <polygon id="Fill-1" points="80.8117232 1.59913043 81.9907208 1.59913043 81.9907208 16.6969565 80.8117232 16.6969565"></polygon>
                        <path d="M92.4155418,14.9034783 L92.4155418,8.83826087 C92.4155418,8.83826087 92.3328878,5.54373913 88.3200764,5.54373913 C84.3072649,5.54373913 84.1935847,8.6426087 84.1935847,8.6426087 L85.4656611,8.63843478 C85.4656611,8.63843478 85.4036086,6.52304348 88.2890501,6.52304348 C91.1744916,6.52304348 91.1434654,8.96869565 91.1434654,8.96869565 L91.1434654,10.431913 L88.7854702,10.436087 C85.4192458,10.436087 83.7592172,11.7892174 83.7592172,13.6969565 C83.7592172,15.6044348 84.7676945,16.9578261 87.2341575,16.9578261 C89.7008687,16.9578261 91.0814129,15.1317391 91.0814129,15.1317391 C91.0814129,15.8817391 91.4537279,16.6969565 91.4537279,16.6969565 L92.8188831,16.6969565 C92.8188831,16.6969565 92.4155418,15.7674783 92.4155418,14.9034783 L92.4155418,14.9034783 Z M91.1434654,12.7348696 C91.1434654,14.9363478 88.6149499,15.897913 87.3428735,15.897913 C86.0707971,15.897913 85.0159045,15.2621739 85.0159045,13.7947826 C85.0159045,12.3273913 86.675685,11.3653043 88.6923914,11.3653043 L91.1434654,11.3653043 L91.1434654,12.7348696 L91.1434654,12.7348696 Z" id="Fill-2"></path>
                        <path d="M93.6359905,5.80565217 L94.8770406,5.80565217 L98.7242959,15.0884348 L102.468296,5.80565217 L103.874654,5.80565217 C103.874654,5.80565217 98.9727542,17.9251304 98.517537,19.0664348 C98.0623198,20.2077391 96.976401,21.2621739 95.6425203,21.2621739 C95.0423484,21.2621739 94.442673,20.8925217 94.442673,20.8925217 L94.7737852,19.9142609 C94.7737852,19.9142609 95.0738711,20.0882609 95.6631217,20.0882609 C96.2523723,20.0882609 97.2764869,18.6534783 97.2764869,18.6534783 L98.0211169,16.7838261 L93.6359905,5.80565217" id="Fill-3"></path>
                        <path d="M74.6191313,5.54373913 C72.4165155,5.54373913 70.9409069,7.44286957 70.8997041,7.49608696 L70.8997041,5.80565217 L69.7209547,5.80565217 L69.7209547,20.8708696 L70.8997041,20.8708696 L70.8997041,14.91 C70.9404105,14.9812174 72.0906158,16.9578261 74.6501575,16.9578261 C77.2563628,16.9578261 79.2730692,15.1969565 79.2730692,11.1636522 C79.2730692,7.13034783 76.8530215,5.54373913 74.6191313,5.54373913 L74.6191313,5.54373913 Z M74.4329737,15.9469565 C72.2943962,15.9469565 70.9409069,13.6437391 70.8997041,13.5730435 L70.8997041,8.86513043 C70.9411551,8.80669565 72.5061193,6.58826087 74.588105,6.58826087 C76.4807064,6.58826087 78.0630453,8.61 78.0630453,11.2507826 C78.0630453,13.8915652 76.6048115,15.9469565 74.4329737,15.9469565 L74.4329737,15.9469565 Z" id="Fill-4"></path>
                        <path d="M14.3569642,2.66504348 C14.3569642,2.66504348 12.6346348,0.824086957 8.32893556,0.824086957 C3.08649165,0.824086957 0.0402100239,5.05565217 0.0402100239,9.06286957 C0.0402100239,12.5653043 2.34359905,16.988087 8.07054893,16.988087 C11.0309499,16.988087 14.3569642,15.8433913 14.3569642,15.8433913 L14.3569642,13.1264348 C14.3569642,11.7910435 15.218253,11.3306087 15.218253,11.3306087 L10.6325728,11.3306087 L9.01771838,12.2736522 C9.88446778,12.0435652 12.1826444,12.0714783 12.1826444,12.0714783 L12.1826444,15.4390435 C12.1826444,15.4390435 11.1652315,16.0450435 9.62086874,16.0450435 C5.15308831,16.0450435 2.25771838,11.9256522 2.25771838,8.16521739 C2.25771838,3.57443478 5.37920764,1.63226087 8.09189499,1.63226087 C10.8048305,1.63226087 12.3330597,3.74269565 12.3330597,3.74269565 L11.8378807,4.59573913 L12.6346348,4.3713913 L14.3569642,2.66504348" id="Fill-5"></path>
                        <path d="M21.6451551,5.58704348 C18.5720668,5.58704348 16.0683723,7.93147826 16.0683723,11.3530435 C16.0683723,13.8172174 17.957747,16.7838261 21.3036181,16.7838261 C24.6499857,16.7838261 26.995074,14.4396522 26.995074,11.1378261 C26.995074,7.836 24.7184916,5.58704348 21.6451551,5.58704348 L21.6451551,5.58704348 Z M21.8727637,16.065913 C19.3368019,16.065913 18.139685,11.9509565 18.139685,9.86947826 C18.139685,7.788 19.4827494,6.30469565 21.0305871,6.30469565 C23.2386635,6.30469565 24.7636659,9.04304348 24.7636659,12.2381739 C24.7636659,13.3385217 24.4089737,16.065913 21.8727637,16.065913 L21.8727637,16.065913 Z" id="Fill-6"></path>
                        <path d="M33.6029212,5.59278261 C30.5313222,5.59278261 28.0286205,7.93617391 28.0286205,11.3556522 C28.0286205,13.8187826 29.9170024,16.7838261 33.2616325,16.7838261 C36.6062625,16.7838261 38.9498616,14.4406957 38.9498616,11.1406957 C38.9498616,7.84069565 36.6747685,5.59278261 33.6029212,5.59278261 L33.6029212,5.59278261 Z M33.8302816,16.0664348 C31.2958091,16.0664348 30.0989403,11.9533043 30.0989403,9.87286957 C30.0989403,7.79269565 31.4417566,6.30991304 32.9886014,6.30991304 C35.1959332,6.30991304 36.7201909,9.04721739 36.7201909,12.2402609 C36.7201909,13.3403478 36.3654988,16.0664348 33.8302816,16.0664348 L33.8302816,16.0664348 Z" id="Fill-7"></path>
                        <path d="M47.7739761,15.9902609 C46.677136,15.1946087 46.4624344,14.814 46.4624344,14.4693913 C46.4624344,14.1250435 46.473852,13.845913 47.2539761,13.0677391 C48.033852,12.2890435 48.7467112,11.4751304 48.7467112,10.0017391 C48.7467112,7.81513043 47.3445728,6.84078261 47.3445728,6.84078261 L48.6784535,6.79356522 L50.0123341,5.9613913 L44.8120859,5.9613913 C42.1438282,5.9613913 40.1313413,8.12452174 40.1313413,10.4533043 C40.1313413,12.0928696 41.4540525,14.0533043 44.0657184,14.0533043 C44.3370119,14.0533043 44.517957,13.994087 44.517957,13.994087 C44.517957,13.994087 44.3600955,14.3566957 44.3600955,14.838 C44.3600955,15.6224348 45.0039523,16.3233913 45.0039523,16.3233913 C45.0039523,16.3233913 38.9779093,16.3293913 38.9779093,20.3869565 C38.9779093,22.8404348 41.6121623,23.7615652 43.7718377,23.7615652 C45.9315131,23.7615652 49.628105,22.538087 49.628105,19.4123478 C49.628105,17.9214783 48.8710644,16.7866957 47.7739761,15.9902609 L47.7739761,15.9902609 Z M44.9136038,13.3406087 C43.3367255,13.3406087 42.0815274,10.8633913 42.0815274,9.366 C42.0815274,7.8686087 42.793642,6.79904348 44.0485919,6.79904348 C45.30379,6.79904348 46.7957804,8.31417391 46.7957804,11.0770435 C46.7957804,12.0393913 46.4912267,13.3406087 44.9136038,13.3406087 L44.9136038,13.3406087 Z M44.7952076,22.7514783 C44.0657184,22.7514783 40.9623484,22.4486087 40.9623484,19.8641739 C40.9623484,17.28 44.5400477,17.0389565 44.9555513,17.0389565 C45.3715513,17.0389565 45.7272363,17.1018261 45.7272363,17.1018261 C46.8302816,18.1262609 48.0509785,18.6346957 48.0509785,20.2382609 C48.0509785,22.538087 45.5239523,22.7514783 44.7952076,22.7514783 L44.7952076,22.7514783 Z" id="Fill-8"></path>
                        <path d="M49.746253,0.867391304 L51.2337757,0.0146086957 L54.4972411,0.0146086957 C53.7367255,0.440869565 53.4520286,0.778695652 53.43242,2.76886957 C53.4125632,4.75852174 53.3137757,14.8948696 53.3137757,14.8948696 C53.3137757,15.6534783 53.9414988,15.8590435 54.5071695,15.8590435 C55.021957,15.8590435 55.2580048,15.9641739 55.2580048,15.9641739 L54.5652506,16.4707826 L50.6082864,16.4707826 C50.6082864,16.4707826 51.1764391,15.9370435 51.183389,15.4046087 L51.3864248,0.872086957 L49.746253,0.867391304" id="Fill-9"></path>
                        <path d="M64.1776802,8.49756522 C64.1776802,8.49756522 63.629136,5.54373913 60.2926969,5.54373913 C56.956506,5.54373913 55.219284,8.30582609 55.219284,11.0196522 C55.219284,13.7332174 56.7504916,16.7838261 60.5667208,16.7838261 C63.2404391,16.7838261 64.4517041,14.6942609 64.4517041,14.6942609 C64.4517041,14.6942609 63.1719332,15.4870435 61.7549021,15.4870435 C59.6302243,15.4870435 57.1617757,13.1329565 57.1617757,9.67486957 C57.1617757,7.34478261 58.7073795,6.40826087 59.675895,6.40826087 C61.6183866,6.40826087 61.9720859,8.24556522 61.8013174,8.56982609 C61.6298043,8.89408696 57.2305298,10.7793913 57.2305298,10.7793913 L58.9900907,10.6831304 L64.1776802,8.49756522" id="Fill-10"></path>
                    </g>
                    <text id="Get-it-on" font-family=".SFNSText, .SF NS Text" font-size="10" font-weight="normal">
                        <tspan x="0" y="10">Get</tspan>
                        <tspan x="17.1630859" y="10" letter-spacing="-0.13"> </tspan>
                        <tspan x="19.9725391" y="10">it on</tspan>
                    </text>
                </g>
                <polygon id="Shape" fill="#00C9FF" fill-rule="nonzero" points="14 8 14 23.964875 14 40.5 31.9842914 23.964875"></polygon>
                <polygon id="Shape" fill="#03E572" fill-rule="nonzero" points="36.6601257 19.4605 29.5263143 15.583375 14 8 31.9842914 23.964875"></polygon>
                <polygon id="Shape" fill="#F83548" fill-rule="nonzero" points="14 40.535125 29.5263143 32.381625 36.6601257 28.504375 31.9842914 24"></polygon>
                <path d="M36.6758343,20 L32,24.504375 L36.6758343,29.00875 L43.9295086,25.0175 C44.34916,24.789375 44.34916,24.27625 43.9295086,24.04825 L36.6758343,20 Z" id="Shape" fill="#FFC900" fill-rule="nonzero"></path>
            </g>
        </g>
    </g>
</svg>