<svg width="25px" height="25px" viewBox="0 0 25 25" version="1.1" xmlns="http://www.w3.org/2000/svg" xmlns:xlink="http://www.w3.org/1999/xlink">
    <g id="Page-1" stroke="none" stroke-width="1" fill="none" fill-rule="evenodd">
        <g id="zam_website_homepage-" transform="translate(-528.000000, -7942.000000)" fill="#FFFFFF" fill-rule="nonzero">
            <g id="Group-57" transform="translate(0.000000, 7680.000000)">
                <g id="Group-54" transform="translate(150.000000, 245.000000)">
                    <g id="Group-4" transform="translate(378.000000, 3.000000)">
                        <g id="Group-63" transform="translate(0.000000, 14.000000)">
                            <path d="M17.5216486,0 L7.43460145,0 C3.33514493,0 0,3.33514493 0,7.43460145 L0,17.5216486 C0,21.6211051 3.33514493,24.95625 7.43460145,24.95625 L17.5216486,24.95625 C21.6211051,24.95625 24.95625,21.6211051 24.95625,17.5216486 L24.95625,7.43460145 C24.9562047,3.33514493 21.6210598,0 17.5216486,0 Z M22.4456522,17.5216486 C22.4456522,20.2410779 20.2410779,22.4456522 17.5216486,22.4456522 L7.43460145,22.4456522 C4.7151721,22.4456522 2.51059783,20.2410779 2.51059783,17.5216486 L2.51059783,7.43460145 C2.51059783,4.71512681 4.7151721,2.51059783 7.43460145,2.51059783 L17.5216486,2.51059783 C20.2410779,2.51059783 22.4456522,4.71512681 22.4456522,7.43460145 L22.4456522,17.5216486 Z" id="Shape"></path>
                            <path d="M12.7045743,6.25 C9.1455163,6.25 6.25,9.1455163 6.25,12.704529 C6.25,16.2635417 9.1455163,19.1591033 12.7045743,19.1591033 C16.2636322,19.1591033 19.1591486,16.263587 19.1591486,12.704529 C19.1591486,9.14547101 16.2636322,6.25 12.7045743,6.25 Z M12.7045743,16.6485507 C10.5263587,16.6485507 8.76059783,14.8827899 8.76059783,12.7045743 C8.76059783,10.5263587 10.526404,8.76059783 12.7045743,8.76059783 C14.8827899,8.76059783 16.6485507,10.5263587 16.6485507,12.7045743 C16.6485507,14.8827446 14.8827446,16.6485507 12.7045743,16.6485507 Z" id="Shape"></path>
                            <circle id="Oval" cx="20.2966486" cy="6.23414855" r="1.54664855"></circle>
                        </g>
                    </g>
                </g>
            </g>
        </g>
    </g>
</svg>