<svg width="25px" height="21px" viewBox="0 0 25 21" version="1.1" xmlns="http://www.w3.org/2000/svg" xmlns:xlink="http://www.w3.org/1999/xlink">
    <g id="Page-1" stroke="none" stroke-width="1" fill="none" fill-rule="evenodd">
        <g id="zam_website_homepage-" transform="translate(-755.000000, -7947.000000)" fill="#FFFFFF" fill-rule="nonzero">
            <g id="Group-57" transform="translate(0.000000, 7680.000000)">
                <g id="Group-54" transform="translate(150.000000, 245.000000)">
                    <g id="Group-12-Copy-2" transform="translate(605.000000, 2.000000)">
                        <g id="medium-seeklogo.com-3" transform="translate(0.000000, 17.000000)">
                            <path d="M2.96451915,7.14370221 C2.99557973,6.82962053 2.87854962,6.51918573 2.64939309,6.30779686 L0.315126056,3.42989417 L0.315126056,3 L7.56302522,3 L13.165266,15.5744047 L18.0905697,3 L25,3 L25,3.42989417 L23.0042017,5.38830099 C22.832142,5.52252885 22.7467916,5.74314183 22.7824464,5.96149323 L22.7824464,20.3510068 C22.7467916,20.5693581 22.832142,20.7899711 23.0042017,20.924199 L24.9533146,22.8826059 L24.9533146,23.3125 L15.1493931,23.3125 L15.1493931,22.8826059 L17.1685342,20.876433 C17.3669468,20.6734274 17.3669468,20.6137199 17.3669468,20.3032408 L17.3669468,8.67221487 L11.7530345,23.264734 L10.9943977,23.264734 L4.45845003,8.67221487 L4.45845003,18.4523074 C4.40395569,18.86349 4.5373893,19.277461 4.82026144,19.574809 L7.44631185,22.8348399 L7.44631185,23.264734 L0,23.264734 L0,22.8348399 L2.62605042,19.574809 C2.906863,19.2769679 3.03251599,18.8602509 2.96451915,18.4523074 L2.96451915,7.14370221 Z" id="Shape"></path>
                        </g>
                    </g>
                </g>
            </g>
        </g>
    </g>
</svg>