<svg width="29px" height="25px" viewBox="0 0 29 25" version="1.1" xmlns="http://www.w3.org/2000/svg" xmlns:xlink="http://www.w3.org/1999/xlink">
    <g id="Page-1" stroke="none" stroke-width="1" fill="none" fill-rule="evenodd">
        <g id="zam_website_homepage-" transform="translate(-150.000000, -7944.000000)" fill-rule="nonzero">
            <g id="Group-57" transform="translate(0.000000, 7680.000000)">
                <g id="Group-54" transform="translate(150.000000, 245.000000)">
                    <g id="Group-12-Copy-3">
                        <g id="Group-3">
                            <g id="telegram-(2)" transform="translate(0.000000, 19.000000)">
                                <path d="M7.58236607,13.9118778 L0.563895089,10.7992081 C-0.227064732,10.4486991 -0.173549107,9.29349548 0.646540179,9.02002262 L27.3351004,0.102432127 C28.0333147,-0.130656109 28.7137277,0.501131222 28.5455357,1.22692308 L23.2123326,24.2105769 C23.0530692,24.8972285 22.2390067,25.1772624 21.7006138,24.7303733 L15.4338728,19.5331448 L7.58236607,13.9118778 Z" id="Shape" fill="#EBF0FA"></path>
                                <path d="M22.1241629,5.06561086 L7.58236607,13.9118778 L9.36166295,22.2772059 C9.52126116,23.0277149 10.394029,23.3584842 11.000279,22.8983032 L15.4339286,19.5330882 L11.7859375,16.5071267 L22.5836496,5.66476244 C22.9002232,5.34683258 22.5063616,4.83308824 22.1241629,5.06561086 Z" id="Shape" fill="#BEC3D2"></path>
                                <path d="M9.9483817,23.0143665 C10.275279,23.1641403 10.6758929,23.1445701 11.000279,22.8983032 L15.4339286,19.5330882 L13.609933,18.0201357 L11.7859375,16.5071833 L9.9483817,23.0143665 Z" id="Shape" fill="#AFB4C8"></path>
                            </g>
                        </g>
                    </g>
                </g>
            </g>
        </g>
    </g>
</svg>