<svg width="31px" height="25px" viewBox="0 0 31 25" version="1.1" xmlns="http://www.w3.org/2000/svg" xmlns:xlink="http://www.w3.org/1999/xlink">
    <g id="Page-1" stroke="none" stroke-width="1" fill="none" fill-rule="evenodd">
        <g id="zam_website_homepage-" transform="translate(-361.000000, -7940.000000)" fill="#FFFFFF" fill-rule="nonzero">
            <g id="Group-57" transform="translate(0.000000, 7680.000000)">
                <g id="Group-54" transform="translate(150.000000, 245.000000)">
                    <g id="Group-5" transform="translate(211.000000, 3.000000)">
                        <path d="M30.82371,14.9578934 C29.6892244,15.4598356 28.4719377,15.800247 27.1929531,15.9522227 C28.4988833,15.1713735 29.4985401,13.932837 29.9723295,12.4615595 C28.7473369,13.1846761 27.395171,13.7097516 25.9544121,13.9943917 C24.8006868,12.7654606 23.1596237,12 21.3394102,12 C17.8473602,12 15.015956,14.82714 15.015956,18.3120199 C15.015956,18.8062677 15.0718115,19.2889992 15.1796947,19.750609 C9.92525083,19.4870906 5.26597756,16.9734571 2.1475901,13.1538988 C1.60248298,14.0847624 1.29238185,15.1694122 1.29238185,16.3272335 C1.29238185,18.5178056 2.4095417,20.4506426 4.10454632,21.5814584 C3.06827366,21.546859 2.09364852,21.2622189 1.24040453,20.7890928 L1.24040453,20.8679471 C1.24040453,23.9258668 3.42078265,26.4779721 6.31187005,27.0588189 C5.78217481,27.201139 5.22362007,27.2799933 4.64577529,27.2799933 C4.2374612,27.2799933 3.84259473,27.2396106 3.45543419,27.1626673 C4.26052865,29.6724788 6.59502558,31.4975951 9.36095441,31.5476335 C7.19790206,33.2400854 4.47050293,34.2459311 1.50814817,34.2459311 C0.997742962,34.2459311 0.494993328,34.2151537 0,34.1593824 C2.79866649,35.9537716 6.12123617,37 9.69225947,37 C21.324099,37 27.6822551,27.3800197 27.6822551,19.0370978 L27.6610512,18.2197381 C28.9033696,17.3349902 29.9781216,16.2233851 30.82371,14.9578934 Z" id="Shape"></path>
                    </g>
                </g>
            </g>
        </g>
    </g>
</svg>